G04 #@! TF.FileFunction,Copper,L2,Bot,Signal*
%FSLAX46Y46*%
G04 Gerber Fmt 4.6, Leading zero omitted, Abs format (unit mm)*
G04 Created by KiCad (PCBNEW 4.0.1-stable) date 29.01.2016 21:52:17*
%MOMM*%
G01*
G04 APERTURE LIST*
%ADD10C,0.100000*%
%ADD11O,1.501140X2.499360*%
%ADD12R,0.700000X1.300000*%
%ADD13C,1.501140*%
%ADD14C,3.810000*%
%ADD15R,3.810000X3.810000*%
%ADD16R,3.657600X2.032000*%
%ADD17R,1.016000X2.032000*%
%ADD18R,0.600000X1.950000*%
%ADD19R,1.250000X1.000000*%
%ADD20R,1.000000X1.250000*%
%ADD21R,1.727200X1.727200*%
%ADD22O,1.727200X1.727200*%
%ADD23R,1.727200X2.032000*%
%ADD24O,1.727200X2.032000*%
%ADD25C,2.900000*%
%ADD26R,1.800860X3.149600*%
%ADD27C,1.200000*%
%ADD28C,0.300000*%
%ADD29C,0.250000*%
%ADD30C,1.000000*%
%ADD31C,0.254000*%
G04 APERTURE END LIST*
D10*
D11*
X135890000Y-103378000D03*
X133350000Y-103378000D03*
X138430000Y-103378000D03*
D12*
X120462000Y-93345000D03*
X122362000Y-93345000D03*
D13*
X143311880Y-77470000D03*
X138430000Y-77470000D03*
D11*
X122555000Y-101854000D03*
X120015000Y-101854000D03*
X125095000Y-101854000D03*
D14*
X138430000Y-109220000D03*
X133350000Y-109220000D03*
D15*
X143510000Y-109220000D03*
D14*
X128270000Y-109220000D03*
D16*
X144145000Y-95250000D03*
D17*
X144145000Y-88646000D03*
X146431000Y-88646000D03*
X141859000Y-88646000D03*
D18*
X125095000Y-87375000D03*
X126365000Y-87375000D03*
X127635000Y-87375000D03*
X128905000Y-87375000D03*
X130175000Y-87375000D03*
X131445000Y-87375000D03*
X132715000Y-87375000D03*
X133985000Y-87375000D03*
X135255000Y-87375000D03*
X136525000Y-87375000D03*
X136525000Y-96775000D03*
X135255000Y-96775000D03*
X133985000Y-96775000D03*
X132715000Y-96775000D03*
X131445000Y-96775000D03*
X130175000Y-96775000D03*
X128905000Y-96775000D03*
X127635000Y-96775000D03*
X126365000Y-96775000D03*
X125095000Y-96775000D03*
D11*
X149225000Y-102108000D03*
X146685000Y-102108000D03*
X151765000Y-102108000D03*
D19*
X144780000Y-84312000D03*
X144780000Y-82312000D03*
D20*
X129175000Y-83820000D03*
X131175000Y-83820000D03*
X131048000Y-100330000D03*
X129048000Y-100330000D03*
D19*
X137795000Y-72660000D03*
X137795000Y-74660000D03*
X140970000Y-72660000D03*
X140970000Y-74660000D03*
D21*
X120650000Y-76962000D03*
D22*
X120650000Y-74422000D03*
X123190000Y-76962000D03*
X123190000Y-74422000D03*
X125730000Y-76962000D03*
X125730000Y-74422000D03*
D23*
X120650000Y-67945000D03*
D24*
X123190000Y-67945000D03*
X125730000Y-67945000D03*
X128270000Y-67945000D03*
D12*
X140396000Y-97028000D03*
X138496000Y-97028000D03*
X133416000Y-100076000D03*
X135316000Y-100076000D03*
X120462000Y-98552000D03*
X122362000Y-98552000D03*
X120462000Y-90932000D03*
X122362000Y-90932000D03*
X122875000Y-71120000D03*
X124775000Y-71120000D03*
D25*
X135255000Y-67945000D03*
X140335000Y-67945000D03*
X145415000Y-67945000D03*
X150495000Y-67945000D03*
D26*
X150495000Y-92930980D03*
X150495000Y-88679020D03*
D27*
X118618000Y-104902000D03*
X124968000Y-104902000D03*
X142240000Y-81534000D03*
X142240000Y-102362000D03*
X134549975Y-74836442D03*
X129057100Y-74899578D03*
X132395033Y-72861857D03*
X150406586Y-72939555D03*
X128520797Y-80088032D03*
X135373130Y-80210082D03*
D28*
X125095000Y-101854000D02*
X125095000Y-104775000D01*
X125095000Y-104775000D02*
X124968000Y-104902000D01*
X138430000Y-103378000D02*
X141224000Y-103378000D01*
X141224000Y-103378000D02*
X142240000Y-102362000D01*
D29*
X129026678Y-74930000D02*
X129057100Y-74899578D01*
D28*
X132715000Y-87375000D02*
X132715000Y-79163801D01*
X132715000Y-79163801D02*
X134408801Y-77470000D01*
X134408801Y-77470000D02*
X138430000Y-77470000D01*
X138430000Y-77470000D02*
X138430000Y-75295000D01*
X138430000Y-75295000D02*
X137795000Y-74660000D01*
X140970000Y-74660000D02*
X141895000Y-74660000D01*
X141895000Y-74660000D02*
X143311880Y-76076880D01*
X143311880Y-76076880D02*
X143311880Y-77470000D01*
X143311880Y-77470000D02*
X141809520Y-78972360D01*
X141809520Y-78972360D02*
X134575458Y-78972360D01*
X134575458Y-78972360D02*
X133985000Y-79562818D01*
X133985000Y-79562818D02*
X133985000Y-87375000D01*
X127508000Y-90932000D02*
X122362000Y-90932000D01*
X127508000Y-90932000D02*
X128905000Y-89535000D01*
X128905000Y-89535000D02*
X128905000Y-87375000D01*
D29*
X128905000Y-87375000D02*
X128905000Y-88050000D01*
X128905000Y-87375000D02*
X128730914Y-87200914D01*
D28*
X135255000Y-87375000D02*
X135255000Y-88773000D01*
X135255000Y-88773000D02*
X134660410Y-89367590D01*
X134660410Y-89367590D02*
X131104410Y-89367590D01*
X131104410Y-89367590D02*
X128524000Y-91948000D01*
X128524000Y-91948000D02*
X125222000Y-91948000D01*
X125222000Y-91948000D02*
X123825000Y-93345000D01*
X123825000Y-93345000D02*
X122362000Y-93345000D01*
D29*
X135255000Y-87375000D02*
X135255000Y-88050000D01*
D28*
X123952000Y-99060000D02*
X123444000Y-98552000D01*
X123444000Y-98552000D02*
X122362000Y-98552000D01*
X127254000Y-99060000D02*
X123952000Y-99060000D01*
X127635000Y-98679000D02*
X127254000Y-99060000D01*
X127635000Y-96775000D02*
X127635000Y-98679000D01*
X120462000Y-90932000D02*
X119637888Y-90932000D01*
X119637888Y-90932000D02*
X118872000Y-90166112D01*
X118872000Y-90166112D02*
X118872000Y-72644000D01*
X118872000Y-72644000D02*
X120396000Y-71120000D01*
X120396000Y-71120000D02*
X123002000Y-71120000D01*
X123002000Y-71120000D02*
X123190000Y-70932000D01*
X123190000Y-70932000D02*
X123190000Y-67945000D01*
D29*
X122875000Y-68260000D02*
X123190000Y-67945000D01*
D28*
X117856000Y-92075000D02*
X117856000Y-67564000D01*
X120462000Y-93345000D02*
X119126000Y-93345000D01*
X119126000Y-93345000D02*
X117856000Y-92075000D01*
X117856000Y-67564000D02*
X119380000Y-66040000D01*
X119380000Y-66040000D02*
X123977400Y-66040000D01*
X123977400Y-66040000D02*
X125730000Y-67792600D01*
X125730000Y-67792600D02*
X125730000Y-67945000D01*
D30*
X149225000Y-102108000D02*
X149225000Y-104357680D01*
X149225000Y-104357680D02*
X148426680Y-105156000D01*
X148426680Y-105156000D02*
X141122975Y-105156000D01*
X141122975Y-105156000D02*
X138430000Y-107848975D01*
X138430000Y-107848975D02*
X138430000Y-109220000D01*
X135890000Y-103505000D02*
X135890000Y-106680000D01*
X135890000Y-106680000D02*
X133350000Y-109220000D01*
X128270000Y-109220000D02*
X125575924Y-109220000D01*
X125575924Y-109220000D02*
X122555000Y-106199076D01*
X122555000Y-106199076D02*
X122555000Y-101854000D01*
D28*
X145796000Y-84328000D02*
X147378148Y-82745852D01*
X147378148Y-82745852D02*
X147378148Y-72084216D01*
X144921000Y-84328000D02*
X145796000Y-84328000D01*
X144780000Y-84312000D02*
X144905000Y-84312000D01*
X144905000Y-84312000D02*
X144921000Y-84328000D01*
X143272000Y-84312000D02*
X141859000Y-85725000D01*
X141859000Y-85725000D02*
X141859000Y-88646000D01*
X144780000Y-84312000D02*
X143272000Y-84312000D01*
X135255000Y-67945000D02*
X135255000Y-65817509D01*
X135255000Y-65817509D02*
X136302509Y-64770000D01*
X142875000Y-69850000D02*
X143923087Y-70898087D01*
X136302509Y-64770000D02*
X141605000Y-64770000D01*
X141605000Y-64770000D02*
X142875000Y-66040000D01*
X142875000Y-66040000D02*
X142875000Y-69850000D01*
X143923087Y-70898087D02*
X146192019Y-70898087D01*
X146192019Y-70898087D02*
X147378148Y-72084216D01*
X130175000Y-87375000D02*
X130175000Y-86700000D01*
X130175000Y-86700000D02*
X130048000Y-86573000D01*
X130048000Y-86573000D02*
X130048000Y-85487553D01*
X130048000Y-85487553D02*
X129175000Y-84614553D01*
X129175000Y-84614553D02*
X129175000Y-83820000D01*
X132395033Y-72861857D02*
X132395033Y-75110285D01*
X132395033Y-75110285D02*
X130045648Y-77459670D01*
X130045648Y-77459670D02*
X130045648Y-81512563D01*
X130045648Y-81512563D02*
X129175000Y-82383211D01*
X129175000Y-82383211D02*
X129175000Y-83820000D01*
X123952000Y-72644000D02*
X122428000Y-72644000D01*
X122428000Y-72644000D02*
X120650000Y-74422000D01*
X124968000Y-71628000D02*
X123952000Y-72644000D01*
X124968000Y-71613000D02*
X124968000Y-71628000D01*
X124775000Y-71120000D02*
X124775000Y-71420000D01*
X124775000Y-71420000D02*
X124968000Y-71613000D01*
X131445000Y-96775000D02*
X131445000Y-99933000D01*
X131445000Y-99933000D02*
X131048000Y-100330000D01*
X124902000Y-71120000D02*
X130653176Y-71120000D01*
X130653176Y-71120000D02*
X132395033Y-72861857D01*
X150495000Y-73027969D02*
X150406586Y-72939555D01*
X150495000Y-88679020D02*
X150495000Y-73027969D01*
X133604000Y-92964000D02*
X131445000Y-95123000D01*
X131445000Y-95123000D02*
X131445000Y-96775000D01*
X144780000Y-92964000D02*
X133604000Y-92964000D01*
X146304000Y-91440000D02*
X144780000Y-92964000D01*
X146304000Y-89281000D02*
X146304000Y-91440000D01*
X146431000Y-89154000D02*
X146304000Y-89281000D01*
D29*
X146431000Y-88646000D02*
X146431000Y-89154000D01*
D30*
X146431000Y-88646000D02*
X150461980Y-88646000D01*
X150461980Y-88646000D02*
X150495000Y-88679020D01*
D28*
X121920000Y-76200000D02*
X121920000Y-75692000D01*
X121920000Y-75692000D02*
X123190000Y-74422000D01*
D29*
X125095000Y-87375000D02*
X125114780Y-87355220D01*
X125114780Y-85494509D02*
X121920000Y-82299729D01*
X125114780Y-87355220D02*
X125114780Y-85494509D01*
X121920000Y-82299729D02*
X121920000Y-76200000D01*
D28*
X120650000Y-77470000D02*
X120637896Y-77482104D01*
X120637896Y-77482104D02*
X120612241Y-77482104D01*
X123526530Y-89488277D02*
X125903723Y-89488277D01*
X120612241Y-77482104D02*
X120647143Y-77517006D01*
X120647143Y-77517006D02*
X120647143Y-86608890D01*
X120647143Y-86608890D02*
X123526530Y-89488277D01*
X125903723Y-89488277D02*
X126365000Y-89027000D01*
X126365000Y-89027000D02*
X126365000Y-87375000D01*
X123190000Y-77470000D02*
X123170283Y-77489717D01*
X123170283Y-77489717D02*
X123170283Y-81453663D01*
X123170283Y-81453663D02*
X127635000Y-85918380D01*
X127635000Y-85918380D02*
X127635000Y-87375000D01*
X128520797Y-79752797D02*
X128520797Y-80088032D01*
X125730000Y-76962000D02*
X128520797Y-79752797D01*
D29*
X136525000Y-81361952D02*
X135373130Y-80210082D01*
X136525000Y-87375000D02*
X136525000Y-81361952D01*
D30*
X150495000Y-67310000D02*
X152400000Y-67310000D01*
X152400000Y-67310000D02*
X154305000Y-69215000D01*
X154305000Y-69215000D02*
X154305000Y-106045000D01*
X154305000Y-106045000D02*
X151130000Y-109220000D01*
X151130000Y-109220000D02*
X143510000Y-109220000D01*
D28*
X136525000Y-96775000D02*
X138243000Y-96775000D01*
X138243000Y-96775000D02*
X138496000Y-97028000D01*
D29*
X136590000Y-96840000D02*
X136525000Y-96775000D01*
D28*
X135316000Y-100076000D02*
X135316000Y-96836000D01*
X135316000Y-96836000D02*
X135255000Y-96775000D01*
X133416000Y-100076000D02*
X133416000Y-103312000D01*
X133416000Y-103312000D02*
X133350000Y-103378000D01*
X140396000Y-97028000D02*
X142104110Y-97028000D01*
X142104110Y-97028000D02*
X146685000Y-101608890D01*
X146685000Y-101608890D02*
X146685000Y-102108000D01*
X120015000Y-101854000D02*
X120015000Y-98999000D01*
X120015000Y-98999000D02*
X120462000Y-98552000D01*
D31*
G36*
X154490420Y-67795288D02*
X153202566Y-66507434D01*
X153129755Y-66458783D01*
X152834346Y-66261397D01*
X152400000Y-66175000D01*
X151669284Y-66175000D01*
X150911552Y-65860362D01*
X150082087Y-65859638D01*
X149315485Y-66176392D01*
X148728453Y-66762400D01*
X148410362Y-67528448D01*
X148409638Y-68357913D01*
X148726392Y-69124515D01*
X149312400Y-69711547D01*
X150078448Y-70029638D01*
X150907913Y-70030362D01*
X151674515Y-69713608D01*
X152261547Y-69127600D01*
X152364509Y-68879641D01*
X153170000Y-69685132D01*
X153170000Y-105574868D01*
X150659868Y-108085000D01*
X146062440Y-108085000D01*
X146062440Y-107315000D01*
X146018162Y-107079683D01*
X145879090Y-106863559D01*
X145666890Y-106718569D01*
X145415000Y-106667560D01*
X141605000Y-106667560D01*
X141369683Y-106711838D01*
X141153559Y-106850910D01*
X141008569Y-107063110D01*
X140957560Y-107315000D01*
X140957560Y-108685807D01*
X140584563Y-107783085D01*
X140343003Y-107541104D01*
X141593107Y-106291000D01*
X148426680Y-106291000D01*
X148861026Y-106204603D01*
X149229246Y-105958566D01*
X150027566Y-105160246D01*
X150091825Y-105064076D01*
X150273603Y-104792026D01*
X150360000Y-104357680D01*
X150360000Y-103391425D01*
X150505100Y-103174268D01*
X150506950Y-103164968D01*
X150533501Y-103254677D01*
X150875056Y-103676658D01*
X151352097Y-103935810D01*
X151423725Y-103949993D01*
X151638000Y-103827339D01*
X151638000Y-102235000D01*
X151892000Y-102235000D01*
X151892000Y-103827339D01*
X152106275Y-103949993D01*
X152177903Y-103935810D01*
X152654944Y-103676658D01*
X152996499Y-103254677D01*
X153150570Y-102734110D01*
X153150570Y-102235000D01*
X151892000Y-102235000D01*
X151638000Y-102235000D01*
X151618000Y-102235000D01*
X151618000Y-101981000D01*
X151638000Y-101981000D01*
X151638000Y-100388661D01*
X151892000Y-100388661D01*
X151892000Y-101981000D01*
X153150570Y-101981000D01*
X153150570Y-101481890D01*
X152996499Y-100961323D01*
X152654944Y-100539342D01*
X152177903Y-100280190D01*
X152106275Y-100266007D01*
X151892000Y-100388661D01*
X151638000Y-100388661D01*
X151423725Y-100266007D01*
X151352097Y-100280190D01*
X150875056Y-100539342D01*
X150533501Y-100961323D01*
X150506950Y-101051032D01*
X150505100Y-101041732D01*
X150204746Y-100592221D01*
X149755235Y-100291867D01*
X149225000Y-100186397D01*
X148694765Y-100291867D01*
X148245254Y-100592221D01*
X147955000Y-101026616D01*
X147664746Y-100592221D01*
X147215235Y-100291867D01*
X146685000Y-100186397D01*
X146424485Y-100238217D01*
X143099708Y-96913440D01*
X145973800Y-96913440D01*
X146209117Y-96869162D01*
X146425241Y-96730090D01*
X146570231Y-96517890D01*
X146621240Y-96266000D01*
X146621240Y-94234000D01*
X146576962Y-93998683D01*
X146437890Y-93782559D01*
X146225690Y-93637569D01*
X145973800Y-93586560D01*
X145234086Y-93586560D01*
X145335079Y-93519079D01*
X145637427Y-93216730D01*
X148959570Y-93216730D01*
X148959570Y-94632089D01*
X149056243Y-94865478D01*
X149234871Y-95044107D01*
X149468260Y-95140780D01*
X150209250Y-95140780D01*
X150368000Y-94982030D01*
X150368000Y-93057980D01*
X150622000Y-93057980D01*
X150622000Y-94982030D01*
X150780750Y-95140780D01*
X151521740Y-95140780D01*
X151755129Y-95044107D01*
X151933757Y-94865478D01*
X152030430Y-94632089D01*
X152030430Y-93216730D01*
X151871680Y-93057980D01*
X150622000Y-93057980D01*
X150368000Y-93057980D01*
X149118320Y-93057980D01*
X148959570Y-93216730D01*
X145637427Y-93216730D01*
X146859076Y-91995081D01*
X146859079Y-91995079D01*
X147029245Y-91740406D01*
X147089000Y-91440000D01*
X147089000Y-90281216D01*
X147174317Y-90265162D01*
X147390441Y-90126090D01*
X147535431Y-89913890D01*
X147562342Y-89781000D01*
X148947130Y-89781000D01*
X148947130Y-90253820D01*
X148991408Y-90489137D01*
X149130480Y-90705261D01*
X149272470Y-90802279D01*
X149234871Y-90817853D01*
X149056243Y-90996482D01*
X148959570Y-91229871D01*
X148959570Y-92645230D01*
X149118320Y-92803980D01*
X150368000Y-92803980D01*
X150368000Y-92783980D01*
X150622000Y-92783980D01*
X150622000Y-92803980D01*
X151871680Y-92803980D01*
X152030430Y-92645230D01*
X152030430Y-91229871D01*
X151933757Y-90996482D01*
X151755129Y-90817853D01*
X151716452Y-90801832D01*
X151846871Y-90717910D01*
X151991861Y-90505710D01*
X152042870Y-90253820D01*
X152042870Y-87104220D01*
X151998592Y-86868903D01*
X151859520Y-86652779D01*
X151647320Y-86507789D01*
X151395430Y-86456780D01*
X151280000Y-86456780D01*
X151280000Y-73812695D01*
X151452957Y-73640040D01*
X151641371Y-73186289D01*
X151641800Y-72694976D01*
X151454178Y-72240898D01*
X151107071Y-71893184D01*
X150653320Y-71704770D01*
X150162007Y-71704341D01*
X149707929Y-71891963D01*
X149360215Y-72239070D01*
X149171801Y-72692821D01*
X149171372Y-73184134D01*
X149358994Y-73638212D01*
X149706101Y-73985926D01*
X149710000Y-73987545D01*
X149710000Y-86456780D01*
X149594570Y-86456780D01*
X149359253Y-86501058D01*
X149143129Y-86640130D01*
X148998139Y-86852330D01*
X148947130Y-87104220D01*
X148947130Y-87511000D01*
X147564049Y-87511000D01*
X147542162Y-87394683D01*
X147403090Y-87178559D01*
X147190890Y-87033569D01*
X146939000Y-86982560D01*
X145923000Y-86982560D01*
X145687683Y-87026838D01*
X145471559Y-87165910D01*
X145326569Y-87378110D01*
X145288000Y-87568569D01*
X145288000Y-87503690D01*
X145191327Y-87270301D01*
X145012698Y-87091673D01*
X144779309Y-86995000D01*
X144430750Y-86995000D01*
X144272000Y-87153750D01*
X144272000Y-88519000D01*
X144292000Y-88519000D01*
X144292000Y-88773000D01*
X144272000Y-88773000D01*
X144272000Y-90138250D01*
X144430750Y-90297000D01*
X144779309Y-90297000D01*
X145012698Y-90200327D01*
X145191327Y-90021699D01*
X145288000Y-89788310D01*
X145288000Y-89728113D01*
X145319838Y-89897317D01*
X145458910Y-90113441D01*
X145519000Y-90154499D01*
X145519000Y-91114843D01*
X144454842Y-92179000D01*
X133604000Y-92179000D01*
X133303593Y-92238755D01*
X133048921Y-92408921D01*
X130889921Y-94567921D01*
X130719755Y-94822593D01*
X130719755Y-94822594D01*
X130660000Y-95123000D01*
X130660000Y-95189310D01*
X130601310Y-95165000D01*
X130460750Y-95165000D01*
X130302000Y-95323750D01*
X130302000Y-96648000D01*
X130322000Y-96648000D01*
X130322000Y-96902000D01*
X130302000Y-96902000D01*
X130302000Y-98226250D01*
X130460750Y-98385000D01*
X130601310Y-98385000D01*
X130660000Y-98360690D01*
X130660000Y-99057560D01*
X130548000Y-99057560D01*
X130312683Y-99101838D01*
X130096559Y-99240910D01*
X130050031Y-99309006D01*
X129907698Y-99166673D01*
X129674309Y-99070000D01*
X129333750Y-99070000D01*
X129175000Y-99228750D01*
X129175000Y-100203000D01*
X129195000Y-100203000D01*
X129195000Y-100457000D01*
X129175000Y-100457000D01*
X129175000Y-101431250D01*
X129333750Y-101590000D01*
X129674309Y-101590000D01*
X129907698Y-101493327D01*
X130048936Y-101352090D01*
X130083910Y-101406441D01*
X130296110Y-101551431D01*
X130548000Y-101602440D01*
X131548000Y-101602440D01*
X131783317Y-101558162D01*
X131999441Y-101419090D01*
X132144431Y-101206890D01*
X132195440Y-100955000D01*
X132195440Y-100106743D01*
X132230000Y-99933000D01*
X132230000Y-98359977D01*
X132415000Y-98397440D01*
X133015000Y-98397440D01*
X133250317Y-98353162D01*
X133349528Y-98289322D01*
X133433110Y-98346431D01*
X133685000Y-98397440D01*
X134285000Y-98397440D01*
X134520317Y-98353162D01*
X134531000Y-98346288D01*
X134531000Y-98951331D01*
X134514559Y-98961910D01*
X134369569Y-99174110D01*
X134366919Y-99187197D01*
X134230090Y-98974559D01*
X134017890Y-98829569D01*
X133766000Y-98778560D01*
X133066000Y-98778560D01*
X132830683Y-98822838D01*
X132614559Y-98961910D01*
X132469569Y-99174110D01*
X132418560Y-99426000D01*
X132418560Y-100726000D01*
X132462838Y-100961317D01*
X132601910Y-101177441D01*
X132631000Y-101197317D01*
X132631000Y-101687996D01*
X132370254Y-101862221D01*
X132069900Y-102311732D01*
X131964430Y-102841967D01*
X131964430Y-103914033D01*
X132069900Y-104444268D01*
X132370254Y-104893779D01*
X132819765Y-105194133D01*
X133350000Y-105299603D01*
X133880235Y-105194133D01*
X134329746Y-104893779D01*
X134620000Y-104459384D01*
X134755000Y-104661425D01*
X134755000Y-106209867D01*
X134159151Y-106805717D01*
X133857454Y-106680441D01*
X132846979Y-106679560D01*
X131913085Y-107065437D01*
X131197948Y-107779327D01*
X130810441Y-108712546D01*
X130810437Y-108716972D01*
X130424563Y-107783085D01*
X129710673Y-107067948D01*
X128777454Y-106680441D01*
X127766979Y-106679560D01*
X126833085Y-107065437D01*
X126117948Y-107779327D01*
X126007169Y-108046113D01*
X123690000Y-105728944D01*
X123690000Y-103137425D01*
X123835100Y-102920268D01*
X123836950Y-102910968D01*
X123863501Y-103000677D01*
X124205056Y-103422658D01*
X124682097Y-103681810D01*
X124753725Y-103695993D01*
X124968000Y-103573339D01*
X124968000Y-101981000D01*
X125222000Y-101981000D01*
X125222000Y-103573339D01*
X125436275Y-103695993D01*
X125507903Y-103681810D01*
X125984944Y-103422658D01*
X126326499Y-103000677D01*
X126480570Y-102480110D01*
X126480570Y-101981000D01*
X125222000Y-101981000D01*
X124968000Y-101981000D01*
X124948000Y-101981000D01*
X124948000Y-101727000D01*
X124968000Y-101727000D01*
X124968000Y-100134661D01*
X125222000Y-100134661D01*
X125222000Y-101727000D01*
X126480570Y-101727000D01*
X126480570Y-101227890D01*
X126326499Y-100707323D01*
X126252380Y-100615750D01*
X127913000Y-100615750D01*
X127913000Y-101081310D01*
X128009673Y-101314699D01*
X128188302Y-101493327D01*
X128421691Y-101590000D01*
X128762250Y-101590000D01*
X128921000Y-101431250D01*
X128921000Y-100457000D01*
X128071750Y-100457000D01*
X127913000Y-100615750D01*
X126252380Y-100615750D01*
X125984944Y-100285342D01*
X125507903Y-100026190D01*
X125436275Y-100012007D01*
X125222000Y-100134661D01*
X124968000Y-100134661D01*
X124753725Y-100012007D01*
X124682097Y-100026190D01*
X124205056Y-100285342D01*
X123863501Y-100707323D01*
X123836950Y-100797032D01*
X123835100Y-100787732D01*
X123534746Y-100338221D01*
X123085235Y-100037867D01*
X122555000Y-99932397D01*
X122024765Y-100037867D01*
X121575254Y-100338221D01*
X121285000Y-100772616D01*
X120994746Y-100338221D01*
X120800000Y-100208096D01*
X120800000Y-99849440D01*
X120812000Y-99849440D01*
X121047317Y-99805162D01*
X121263441Y-99666090D01*
X121408431Y-99453890D01*
X121411081Y-99440803D01*
X121547910Y-99653441D01*
X121760110Y-99798431D01*
X122012000Y-99849440D01*
X122712000Y-99849440D01*
X122947317Y-99805162D01*
X123163441Y-99666090D01*
X123278921Y-99497079D01*
X123396919Y-99615076D01*
X123396921Y-99615079D01*
X123651594Y-99785245D01*
X123952000Y-99845000D01*
X127254000Y-99845000D01*
X127554407Y-99785245D01*
X127809079Y-99615079D01*
X127960752Y-99463406D01*
X127913000Y-99578690D01*
X127913000Y-100044250D01*
X128071750Y-100203000D01*
X128921000Y-100203000D01*
X128921000Y-99228750D01*
X128762250Y-99070000D01*
X128421691Y-99070000D01*
X128253034Y-99139860D01*
X128360245Y-98979407D01*
X128420000Y-98679000D01*
X128420000Y-98359977D01*
X128605000Y-98397440D01*
X129205000Y-98397440D01*
X129440317Y-98353162D01*
X129530980Y-98294822D01*
X129748690Y-98385000D01*
X129889250Y-98385000D01*
X130048000Y-98226250D01*
X130048000Y-96902000D01*
X130028000Y-96902000D01*
X130028000Y-96648000D01*
X130048000Y-96648000D01*
X130048000Y-95323750D01*
X129889250Y-95165000D01*
X129748690Y-95165000D01*
X129531878Y-95254806D01*
X129456890Y-95203569D01*
X129205000Y-95152560D01*
X128605000Y-95152560D01*
X128369683Y-95196838D01*
X128270472Y-95260678D01*
X128186890Y-95203569D01*
X127935000Y-95152560D01*
X127335000Y-95152560D01*
X127099683Y-95196838D01*
X127000472Y-95260678D01*
X126916890Y-95203569D01*
X126665000Y-95152560D01*
X126065000Y-95152560D01*
X125829683Y-95196838D01*
X125730472Y-95260678D01*
X125646890Y-95203569D01*
X125395000Y-95152560D01*
X124795000Y-95152560D01*
X124559683Y-95196838D01*
X124343559Y-95335910D01*
X124198569Y-95548110D01*
X124147560Y-95800000D01*
X124147560Y-97750000D01*
X124191838Y-97985317D01*
X124330910Y-98201441D01*
X124438567Y-98275000D01*
X124277157Y-98275000D01*
X123999079Y-97996921D01*
X123744407Y-97826755D01*
X123444000Y-97767000D01*
X123334038Y-97767000D01*
X123315162Y-97666683D01*
X123176090Y-97450559D01*
X122963890Y-97305569D01*
X122712000Y-97254560D01*
X122012000Y-97254560D01*
X121776683Y-97298838D01*
X121560559Y-97437910D01*
X121415569Y-97650110D01*
X121412919Y-97663197D01*
X121276090Y-97450559D01*
X121063890Y-97305569D01*
X120812000Y-97254560D01*
X120112000Y-97254560D01*
X119876683Y-97298838D01*
X119660559Y-97437910D01*
X119515569Y-97650110D01*
X119464560Y-97902000D01*
X119464560Y-98439282D01*
X119459921Y-98443921D01*
X119289755Y-98698593D01*
X119265041Y-98822838D01*
X119230000Y-98999000D01*
X119230000Y-100208096D01*
X119035254Y-100338221D01*
X118734900Y-100787732D01*
X118629430Y-101317967D01*
X118629430Y-102390033D01*
X118734900Y-102920268D01*
X119035254Y-103369779D01*
X119484765Y-103670133D01*
X120015000Y-103775603D01*
X120545235Y-103670133D01*
X120994746Y-103369779D01*
X121285000Y-102935384D01*
X121420000Y-103137425D01*
X121420000Y-106199076D01*
X121506397Y-106633422D01*
X121617950Y-106800372D01*
X121752434Y-107001642D01*
X124773358Y-110022566D01*
X125141579Y-110268604D01*
X125575924Y-110355000D01*
X125990688Y-110355000D01*
X126115437Y-110656915D01*
X126829327Y-111372052D01*
X127762546Y-111759559D01*
X128773021Y-111760440D01*
X129706915Y-111374563D01*
X130422052Y-110660673D01*
X130809559Y-109727454D01*
X130809563Y-109723028D01*
X131195437Y-110656915D01*
X131909327Y-111372052D01*
X132842546Y-111759559D01*
X133853021Y-111760440D01*
X134786915Y-111374563D01*
X135502052Y-110660673D01*
X135889559Y-109727454D01*
X135889563Y-109723028D01*
X136275437Y-110656915D01*
X136989327Y-111372052D01*
X137922546Y-111759559D01*
X138933021Y-111760440D01*
X139866915Y-111374563D01*
X140582052Y-110660673D01*
X140957560Y-109756351D01*
X140957560Y-111125000D01*
X141001838Y-111360317D01*
X141140910Y-111576441D01*
X141353110Y-111721431D01*
X141605000Y-111772440D01*
X145415000Y-111772440D01*
X145650317Y-111728162D01*
X145866441Y-111589090D01*
X146011431Y-111376890D01*
X146062440Y-111125000D01*
X146062440Y-110355000D01*
X151130000Y-110355000D01*
X151564346Y-110268603D01*
X151932566Y-110022566D01*
X154490420Y-107464712D01*
X154490420Y-111950500D01*
X116141500Y-111950500D01*
X116141500Y-67564000D01*
X117071000Y-67564000D01*
X117071000Y-92075000D01*
X117130755Y-92375407D01*
X117300921Y-92630079D01*
X118570921Y-93900079D01*
X118825593Y-94070245D01*
X119126000Y-94130000D01*
X119489962Y-94130000D01*
X119508838Y-94230317D01*
X119647910Y-94446441D01*
X119860110Y-94591431D01*
X120112000Y-94642440D01*
X120812000Y-94642440D01*
X121047317Y-94598162D01*
X121263441Y-94459090D01*
X121408431Y-94246890D01*
X121411081Y-94233803D01*
X121547910Y-94446441D01*
X121760110Y-94591431D01*
X122012000Y-94642440D01*
X122712000Y-94642440D01*
X122947317Y-94598162D01*
X123163441Y-94459090D01*
X123308431Y-94246890D01*
X123332102Y-94130000D01*
X123825000Y-94130000D01*
X124125407Y-94070245D01*
X124380079Y-93900079D01*
X125547158Y-92733000D01*
X128524000Y-92733000D01*
X128824407Y-92673245D01*
X129079079Y-92503079D01*
X131429568Y-90152590D01*
X134660410Y-90152590D01*
X134960817Y-90092835D01*
X135215489Y-89922669D01*
X135810079Y-89328079D01*
X135980245Y-89073407D01*
X136004248Y-88952737D01*
X136225000Y-88997440D01*
X136825000Y-88997440D01*
X137060317Y-88953162D01*
X137276441Y-88814090D01*
X137421431Y-88601890D01*
X137472440Y-88350000D01*
X137472440Y-86400000D01*
X137428162Y-86164683D01*
X137289090Y-85948559D01*
X137285000Y-85945764D01*
X137285000Y-81685691D01*
X143520000Y-81685691D01*
X143520000Y-82026250D01*
X143678750Y-82185000D01*
X144653000Y-82185000D01*
X144653000Y-81335750D01*
X144907000Y-81335750D01*
X144907000Y-82185000D01*
X145881250Y-82185000D01*
X146040000Y-82026250D01*
X146040000Y-81685691D01*
X145943327Y-81452302D01*
X145764699Y-81273673D01*
X145531310Y-81177000D01*
X145065750Y-81177000D01*
X144907000Y-81335750D01*
X144653000Y-81335750D01*
X144494250Y-81177000D01*
X144028690Y-81177000D01*
X143795301Y-81273673D01*
X143616673Y-81452302D01*
X143520000Y-81685691D01*
X137285000Y-81685691D01*
X137285000Y-81361952D01*
X137277301Y-81323246D01*
X137227148Y-81071112D01*
X137062401Y-80824551D01*
X136607991Y-80370141D01*
X136608344Y-79965503D01*
X136522341Y-79757360D01*
X141809520Y-79757360D01*
X142109927Y-79697605D01*
X142364599Y-79527439D01*
X143036708Y-78855330D01*
X143586278Y-78855810D01*
X144095717Y-78645314D01*
X144485824Y-78255887D01*
X144697209Y-77746816D01*
X144697690Y-77195602D01*
X144487194Y-76686163D01*
X144097767Y-76296056D01*
X144096880Y-76295688D01*
X144096880Y-76076880D01*
X144037125Y-75776474D01*
X143866959Y-75521801D01*
X142450079Y-74104921D01*
X142200726Y-73938309D01*
X142198162Y-73924683D01*
X142059090Y-73708559D01*
X141990994Y-73662031D01*
X142133327Y-73519698D01*
X142230000Y-73286309D01*
X142230000Y-72945750D01*
X142071250Y-72787000D01*
X141097000Y-72787000D01*
X141097000Y-72807000D01*
X140843000Y-72807000D01*
X140843000Y-72787000D01*
X139868750Y-72787000D01*
X139710000Y-72945750D01*
X139710000Y-73286309D01*
X139806673Y-73519698D01*
X139947910Y-73660936D01*
X139893559Y-73695910D01*
X139748569Y-73908110D01*
X139697560Y-74160000D01*
X139697560Y-75160000D01*
X139741838Y-75395317D01*
X139880910Y-75611441D01*
X140093110Y-75756431D01*
X140345000Y-75807440D01*
X141595000Y-75807440D01*
X141830317Y-75763162D01*
X141865417Y-75740575D01*
X142473738Y-76348896D01*
X142137936Y-76684113D01*
X141926551Y-77193184D01*
X141926070Y-77744398D01*
X141926437Y-77745285D01*
X141484362Y-78187360D01*
X139632399Y-78187360D01*
X139815329Y-77746816D01*
X139815810Y-77195602D01*
X139605314Y-76686163D01*
X139215887Y-76296056D01*
X139215000Y-76295688D01*
X139215000Y-75295005D01*
X139215001Y-75295000D01*
X139155245Y-74994594D01*
X139067440Y-74863184D01*
X139067440Y-74160000D01*
X139023162Y-73924683D01*
X138884090Y-73708559D01*
X138815994Y-73662031D01*
X138958327Y-73519698D01*
X139055000Y-73286309D01*
X139055000Y-72945750D01*
X138896250Y-72787000D01*
X137922000Y-72787000D01*
X137922000Y-72807000D01*
X137668000Y-72807000D01*
X137668000Y-72787000D01*
X136693750Y-72787000D01*
X136535000Y-72945750D01*
X136535000Y-73286309D01*
X136631673Y-73519698D01*
X136772910Y-73660936D01*
X136718559Y-73695910D01*
X136573569Y-73908110D01*
X136522560Y-74160000D01*
X136522560Y-75160000D01*
X136566838Y-75395317D01*
X136705910Y-75611441D01*
X136918110Y-75756431D01*
X137170000Y-75807440D01*
X137645000Y-75807440D01*
X137645000Y-76295847D01*
X137256056Y-76684113D01*
X137255688Y-76685000D01*
X134408801Y-76685000D01*
X134108394Y-76744755D01*
X133853722Y-76914921D01*
X132159921Y-78608722D01*
X131989755Y-78863394D01*
X131989755Y-78863395D01*
X131930000Y-79163801D01*
X131930000Y-82613306D01*
X131801309Y-82560000D01*
X131460750Y-82560000D01*
X131302000Y-82718750D01*
X131302000Y-83693000D01*
X131322000Y-83693000D01*
X131322000Y-83947000D01*
X131302000Y-83947000D01*
X131302000Y-84921250D01*
X131460750Y-85080000D01*
X131801309Y-85080000D01*
X131930000Y-85026694D01*
X131930000Y-85789310D01*
X131871310Y-85765000D01*
X131730750Y-85765000D01*
X131572000Y-85923750D01*
X131572000Y-87248000D01*
X131592000Y-87248000D01*
X131592000Y-87502000D01*
X131572000Y-87502000D01*
X131572000Y-87522000D01*
X131318000Y-87522000D01*
X131318000Y-87502000D01*
X131298000Y-87502000D01*
X131298000Y-87248000D01*
X131318000Y-87248000D01*
X131318000Y-85923750D01*
X131159250Y-85765000D01*
X131018690Y-85765000D01*
X130833000Y-85841915D01*
X130833000Y-85487553D01*
X130773245Y-85187147D01*
X130701652Y-85080000D01*
X130889250Y-85080000D01*
X131048000Y-84921250D01*
X131048000Y-83947000D01*
X131028000Y-83947000D01*
X131028000Y-83693000D01*
X131048000Y-83693000D01*
X131048000Y-82718750D01*
X130889250Y-82560000D01*
X130548691Y-82560000D01*
X130315302Y-82656673D01*
X130174064Y-82797910D01*
X130139090Y-82743559D01*
X130011790Y-82656579D01*
X130600727Y-82067642D01*
X130770893Y-81812970D01*
X130830648Y-81512563D01*
X130830648Y-77784828D01*
X132950112Y-75665364D01*
X133120278Y-75410692D01*
X133180033Y-75110285D01*
X133180033Y-73823257D01*
X133441404Y-73562342D01*
X133629818Y-73108591D01*
X133630247Y-72617278D01*
X133442625Y-72163200D01*
X133313343Y-72033691D01*
X136535000Y-72033691D01*
X136535000Y-72374250D01*
X136693750Y-72533000D01*
X137668000Y-72533000D01*
X137668000Y-71683750D01*
X137922000Y-71683750D01*
X137922000Y-72533000D01*
X138896250Y-72533000D01*
X139055000Y-72374250D01*
X139055000Y-72033691D01*
X139710000Y-72033691D01*
X139710000Y-72374250D01*
X139868750Y-72533000D01*
X140843000Y-72533000D01*
X140843000Y-71683750D01*
X141097000Y-71683750D01*
X141097000Y-72533000D01*
X142071250Y-72533000D01*
X142230000Y-72374250D01*
X142230000Y-72033691D01*
X142133327Y-71800302D01*
X141954699Y-71621673D01*
X141721310Y-71525000D01*
X141255750Y-71525000D01*
X141097000Y-71683750D01*
X140843000Y-71683750D01*
X140684250Y-71525000D01*
X140218690Y-71525000D01*
X139985301Y-71621673D01*
X139806673Y-71800302D01*
X139710000Y-72033691D01*
X139055000Y-72033691D01*
X138958327Y-71800302D01*
X138779699Y-71621673D01*
X138546310Y-71525000D01*
X138080750Y-71525000D01*
X137922000Y-71683750D01*
X137668000Y-71683750D01*
X137509250Y-71525000D01*
X137043690Y-71525000D01*
X136810301Y-71621673D01*
X136631673Y-71800302D01*
X136535000Y-72033691D01*
X133313343Y-72033691D01*
X133095518Y-71815486D01*
X132641767Y-71627072D01*
X132270081Y-71626747D01*
X131208255Y-70564921D01*
X130953583Y-70394755D01*
X130653176Y-70335000D01*
X125747038Y-70335000D01*
X125728162Y-70234683D01*
X125589090Y-70018559D01*
X125376890Y-69873569D01*
X125125000Y-69822560D01*
X124425000Y-69822560D01*
X124189683Y-69866838D01*
X123975000Y-70004983D01*
X123975000Y-69372944D01*
X124249670Y-69189415D01*
X124460000Y-68874634D01*
X124670330Y-69189415D01*
X125156511Y-69514271D01*
X125730000Y-69628345D01*
X126303489Y-69514271D01*
X126789670Y-69189415D01*
X126996461Y-68879931D01*
X127367964Y-69295732D01*
X127895209Y-69549709D01*
X127910974Y-69552358D01*
X128143000Y-69431217D01*
X128143000Y-68072000D01*
X128397000Y-68072000D01*
X128397000Y-69431217D01*
X128629026Y-69552358D01*
X128644791Y-69549709D01*
X129172036Y-69295732D01*
X129561954Y-68859320D01*
X129737344Y-68357913D01*
X133169638Y-68357913D01*
X133486392Y-69124515D01*
X134072400Y-69711547D01*
X134838448Y-70029638D01*
X135667913Y-70030362D01*
X136434515Y-69713608D01*
X136725782Y-69422849D01*
X139036756Y-69422849D01*
X139190435Y-69736424D01*
X139963108Y-70038066D01*
X140792398Y-70021058D01*
X141479565Y-69736424D01*
X141633244Y-69422849D01*
X140335000Y-68124605D01*
X139036756Y-69422849D01*
X136725782Y-69422849D01*
X137021547Y-69127600D01*
X137339638Y-68361552D01*
X137340326Y-67573108D01*
X138241934Y-67573108D01*
X138258942Y-68402398D01*
X138543576Y-69089565D01*
X138857151Y-69243244D01*
X140155395Y-67945000D01*
X138857151Y-66646756D01*
X138543576Y-66800435D01*
X138241934Y-67573108D01*
X137340326Y-67573108D01*
X137340362Y-67532087D01*
X137023608Y-66765485D01*
X136725795Y-66467151D01*
X139036756Y-66467151D01*
X140335000Y-67765395D01*
X141633244Y-66467151D01*
X141479565Y-66153576D01*
X140706892Y-65851934D01*
X139877602Y-65868942D01*
X139190435Y-66153576D01*
X139036756Y-66467151D01*
X136725795Y-66467151D01*
X136437600Y-66178453D01*
X136131371Y-66051296D01*
X136627667Y-65555000D01*
X141279842Y-65555000D01*
X142090000Y-66365158D01*
X142090000Y-66782584D01*
X141812849Y-66646756D01*
X140514605Y-67945000D01*
X141812849Y-69243244D01*
X142090000Y-69107416D01*
X142090000Y-69850000D01*
X142149755Y-70150407D01*
X142319921Y-70405079D01*
X143368008Y-71453166D01*
X143622681Y-71623332D01*
X143923087Y-71683087D01*
X145866861Y-71683087D01*
X146593148Y-72409374D01*
X146593148Y-82420694D01*
X146014874Y-82998968D01*
X146040000Y-82938309D01*
X146040000Y-82597750D01*
X145881250Y-82439000D01*
X144907000Y-82439000D01*
X144907000Y-82459000D01*
X144653000Y-82459000D01*
X144653000Y-82439000D01*
X143678750Y-82439000D01*
X143520000Y-82597750D01*
X143520000Y-82938309D01*
X143616673Y-83171698D01*
X143757910Y-83312936D01*
X143703559Y-83347910D01*
X143581192Y-83527000D01*
X143272000Y-83527000D01*
X142971594Y-83586755D01*
X142716921Y-83756921D01*
X141303921Y-85169921D01*
X141133755Y-85424593D01*
X141119848Y-85494509D01*
X141074000Y-85725000D01*
X141074000Y-87053660D01*
X140899559Y-87165910D01*
X140754569Y-87378110D01*
X140703560Y-87630000D01*
X140703560Y-89662000D01*
X140747838Y-89897317D01*
X140886910Y-90113441D01*
X141099110Y-90258431D01*
X141351000Y-90309440D01*
X142367000Y-90309440D01*
X142602317Y-90265162D01*
X142818441Y-90126090D01*
X142963431Y-89913890D01*
X143002000Y-89723431D01*
X143002000Y-89788310D01*
X143098673Y-90021699D01*
X143277302Y-90200327D01*
X143510691Y-90297000D01*
X143859250Y-90297000D01*
X144018000Y-90138250D01*
X144018000Y-88773000D01*
X143998000Y-88773000D01*
X143998000Y-88519000D01*
X144018000Y-88519000D01*
X144018000Y-87153750D01*
X143859250Y-86995000D01*
X143510691Y-86995000D01*
X143277302Y-87091673D01*
X143098673Y-87270301D01*
X143002000Y-87503690D01*
X143002000Y-87563887D01*
X142970162Y-87394683D01*
X142831090Y-87178559D01*
X142644000Y-87050726D01*
X142644000Y-86050158D01*
X143589035Y-85105123D01*
X143690910Y-85263441D01*
X143903110Y-85408431D01*
X144155000Y-85459440D01*
X145405000Y-85459440D01*
X145640317Y-85415162D01*
X145856441Y-85276090D01*
X145994910Y-85073434D01*
X146096407Y-85053245D01*
X146351079Y-84883079D01*
X147933227Y-83300931D01*
X148103393Y-83046259D01*
X148163148Y-82745852D01*
X148163148Y-72084216D01*
X148103393Y-71783810D01*
X147933227Y-71529137D01*
X146747098Y-70343008D01*
X146492426Y-70172842D01*
X146192019Y-70113087D01*
X144248245Y-70113087D01*
X143660000Y-69524842D01*
X143660000Y-69422849D01*
X144116756Y-69422849D01*
X144270435Y-69736424D01*
X145043108Y-70038066D01*
X145872398Y-70021058D01*
X146559565Y-69736424D01*
X146713244Y-69422849D01*
X145415000Y-68124605D01*
X144116756Y-69422849D01*
X143660000Y-69422849D01*
X143660000Y-69107416D01*
X143937151Y-69243244D01*
X145235395Y-67945000D01*
X145594605Y-67945000D01*
X146892849Y-69243244D01*
X147206424Y-69089565D01*
X147508066Y-68316892D01*
X147491058Y-67487602D01*
X147206424Y-66800435D01*
X146892849Y-66646756D01*
X145594605Y-67945000D01*
X145235395Y-67945000D01*
X143937151Y-66646756D01*
X143660000Y-66782584D01*
X143660000Y-66467151D01*
X144116756Y-66467151D01*
X145415000Y-67765395D01*
X146713244Y-66467151D01*
X146559565Y-66153576D01*
X145786892Y-65851934D01*
X144957602Y-65868942D01*
X144270435Y-66153576D01*
X144116756Y-66467151D01*
X143660000Y-66467151D01*
X143660000Y-66040000D01*
X143625974Y-65868942D01*
X143600245Y-65739593D01*
X143430079Y-65484921D01*
X142160079Y-64214921D01*
X141905407Y-64044755D01*
X141605000Y-63985000D01*
X136302509Y-63985000D01*
X136002103Y-64044755D01*
X136002101Y-64044756D01*
X136002102Y-64044756D01*
X135747430Y-64214921D01*
X134699921Y-65262430D01*
X134529755Y-65517102D01*
X134529755Y-65517103D01*
X134470000Y-65817509D01*
X134470000Y-66013381D01*
X134075485Y-66176392D01*
X133488453Y-66762400D01*
X133170362Y-67528448D01*
X133169638Y-68357913D01*
X129737344Y-68357913D01*
X129755184Y-68306913D01*
X129610924Y-68072000D01*
X128397000Y-68072000D01*
X128143000Y-68072000D01*
X128123000Y-68072000D01*
X128123000Y-67818000D01*
X128143000Y-67818000D01*
X128143000Y-66458783D01*
X128397000Y-66458783D01*
X128397000Y-67818000D01*
X129610924Y-67818000D01*
X129755184Y-67583087D01*
X129561954Y-67030680D01*
X129172036Y-66594268D01*
X128644791Y-66340291D01*
X128629026Y-66337642D01*
X128397000Y-66458783D01*
X128143000Y-66458783D01*
X127910974Y-66337642D01*
X127895209Y-66340291D01*
X127367964Y-66594268D01*
X126996461Y-67010069D01*
X126789670Y-66700585D01*
X126303489Y-66375729D01*
X125730000Y-66261655D01*
X125379026Y-66331468D01*
X124532479Y-65484921D01*
X124277807Y-65314755D01*
X123977400Y-65255000D01*
X119380000Y-65255000D01*
X119079594Y-65314755D01*
X118824921Y-65484921D01*
X118824919Y-65484924D01*
X117300921Y-67008921D01*
X117130755Y-67263593D01*
X117130755Y-67263594D01*
X117071000Y-67564000D01*
X116141500Y-67564000D01*
X116141500Y-63601600D01*
X154490420Y-63601600D01*
X154490420Y-67795288D01*
X154490420Y-67795288D01*
G37*
X154490420Y-67795288D02*
X153202566Y-66507434D01*
X153129755Y-66458783D01*
X152834346Y-66261397D01*
X152400000Y-66175000D01*
X151669284Y-66175000D01*
X150911552Y-65860362D01*
X150082087Y-65859638D01*
X149315485Y-66176392D01*
X148728453Y-66762400D01*
X148410362Y-67528448D01*
X148409638Y-68357913D01*
X148726392Y-69124515D01*
X149312400Y-69711547D01*
X150078448Y-70029638D01*
X150907913Y-70030362D01*
X151674515Y-69713608D01*
X152261547Y-69127600D01*
X152364509Y-68879641D01*
X153170000Y-69685132D01*
X153170000Y-105574868D01*
X150659868Y-108085000D01*
X146062440Y-108085000D01*
X146062440Y-107315000D01*
X146018162Y-107079683D01*
X145879090Y-106863559D01*
X145666890Y-106718569D01*
X145415000Y-106667560D01*
X141605000Y-106667560D01*
X141369683Y-106711838D01*
X141153559Y-106850910D01*
X141008569Y-107063110D01*
X140957560Y-107315000D01*
X140957560Y-108685807D01*
X140584563Y-107783085D01*
X140343003Y-107541104D01*
X141593107Y-106291000D01*
X148426680Y-106291000D01*
X148861026Y-106204603D01*
X149229246Y-105958566D01*
X150027566Y-105160246D01*
X150091825Y-105064076D01*
X150273603Y-104792026D01*
X150360000Y-104357680D01*
X150360000Y-103391425D01*
X150505100Y-103174268D01*
X150506950Y-103164968D01*
X150533501Y-103254677D01*
X150875056Y-103676658D01*
X151352097Y-103935810D01*
X151423725Y-103949993D01*
X151638000Y-103827339D01*
X151638000Y-102235000D01*
X151892000Y-102235000D01*
X151892000Y-103827339D01*
X152106275Y-103949993D01*
X152177903Y-103935810D01*
X152654944Y-103676658D01*
X152996499Y-103254677D01*
X153150570Y-102734110D01*
X153150570Y-102235000D01*
X151892000Y-102235000D01*
X151638000Y-102235000D01*
X151618000Y-102235000D01*
X151618000Y-101981000D01*
X151638000Y-101981000D01*
X151638000Y-100388661D01*
X151892000Y-100388661D01*
X151892000Y-101981000D01*
X153150570Y-101981000D01*
X153150570Y-101481890D01*
X152996499Y-100961323D01*
X152654944Y-100539342D01*
X152177903Y-100280190D01*
X152106275Y-100266007D01*
X151892000Y-100388661D01*
X151638000Y-100388661D01*
X151423725Y-100266007D01*
X151352097Y-100280190D01*
X150875056Y-100539342D01*
X150533501Y-100961323D01*
X150506950Y-101051032D01*
X150505100Y-101041732D01*
X150204746Y-100592221D01*
X149755235Y-100291867D01*
X149225000Y-100186397D01*
X148694765Y-100291867D01*
X148245254Y-100592221D01*
X147955000Y-101026616D01*
X147664746Y-100592221D01*
X147215235Y-100291867D01*
X146685000Y-100186397D01*
X146424485Y-100238217D01*
X143099708Y-96913440D01*
X145973800Y-96913440D01*
X146209117Y-96869162D01*
X146425241Y-96730090D01*
X146570231Y-96517890D01*
X146621240Y-96266000D01*
X146621240Y-94234000D01*
X146576962Y-93998683D01*
X146437890Y-93782559D01*
X146225690Y-93637569D01*
X145973800Y-93586560D01*
X145234086Y-93586560D01*
X145335079Y-93519079D01*
X145637427Y-93216730D01*
X148959570Y-93216730D01*
X148959570Y-94632089D01*
X149056243Y-94865478D01*
X149234871Y-95044107D01*
X149468260Y-95140780D01*
X150209250Y-95140780D01*
X150368000Y-94982030D01*
X150368000Y-93057980D01*
X150622000Y-93057980D01*
X150622000Y-94982030D01*
X150780750Y-95140780D01*
X151521740Y-95140780D01*
X151755129Y-95044107D01*
X151933757Y-94865478D01*
X152030430Y-94632089D01*
X152030430Y-93216730D01*
X151871680Y-93057980D01*
X150622000Y-93057980D01*
X150368000Y-93057980D01*
X149118320Y-93057980D01*
X148959570Y-93216730D01*
X145637427Y-93216730D01*
X146859076Y-91995081D01*
X146859079Y-91995079D01*
X147029245Y-91740406D01*
X147089000Y-91440000D01*
X147089000Y-90281216D01*
X147174317Y-90265162D01*
X147390441Y-90126090D01*
X147535431Y-89913890D01*
X147562342Y-89781000D01*
X148947130Y-89781000D01*
X148947130Y-90253820D01*
X148991408Y-90489137D01*
X149130480Y-90705261D01*
X149272470Y-90802279D01*
X149234871Y-90817853D01*
X149056243Y-90996482D01*
X148959570Y-91229871D01*
X148959570Y-92645230D01*
X149118320Y-92803980D01*
X150368000Y-92803980D01*
X150368000Y-92783980D01*
X150622000Y-92783980D01*
X150622000Y-92803980D01*
X151871680Y-92803980D01*
X152030430Y-92645230D01*
X152030430Y-91229871D01*
X151933757Y-90996482D01*
X151755129Y-90817853D01*
X151716452Y-90801832D01*
X151846871Y-90717910D01*
X151991861Y-90505710D01*
X152042870Y-90253820D01*
X152042870Y-87104220D01*
X151998592Y-86868903D01*
X151859520Y-86652779D01*
X151647320Y-86507789D01*
X151395430Y-86456780D01*
X151280000Y-86456780D01*
X151280000Y-73812695D01*
X151452957Y-73640040D01*
X151641371Y-73186289D01*
X151641800Y-72694976D01*
X151454178Y-72240898D01*
X151107071Y-71893184D01*
X150653320Y-71704770D01*
X150162007Y-71704341D01*
X149707929Y-71891963D01*
X149360215Y-72239070D01*
X149171801Y-72692821D01*
X149171372Y-73184134D01*
X149358994Y-73638212D01*
X149706101Y-73985926D01*
X149710000Y-73987545D01*
X149710000Y-86456780D01*
X149594570Y-86456780D01*
X149359253Y-86501058D01*
X149143129Y-86640130D01*
X148998139Y-86852330D01*
X148947130Y-87104220D01*
X148947130Y-87511000D01*
X147564049Y-87511000D01*
X147542162Y-87394683D01*
X147403090Y-87178559D01*
X147190890Y-87033569D01*
X146939000Y-86982560D01*
X145923000Y-86982560D01*
X145687683Y-87026838D01*
X145471559Y-87165910D01*
X145326569Y-87378110D01*
X145288000Y-87568569D01*
X145288000Y-87503690D01*
X145191327Y-87270301D01*
X145012698Y-87091673D01*
X144779309Y-86995000D01*
X144430750Y-86995000D01*
X144272000Y-87153750D01*
X144272000Y-88519000D01*
X144292000Y-88519000D01*
X144292000Y-88773000D01*
X144272000Y-88773000D01*
X144272000Y-90138250D01*
X144430750Y-90297000D01*
X144779309Y-90297000D01*
X145012698Y-90200327D01*
X145191327Y-90021699D01*
X145288000Y-89788310D01*
X145288000Y-89728113D01*
X145319838Y-89897317D01*
X145458910Y-90113441D01*
X145519000Y-90154499D01*
X145519000Y-91114843D01*
X144454842Y-92179000D01*
X133604000Y-92179000D01*
X133303593Y-92238755D01*
X133048921Y-92408921D01*
X130889921Y-94567921D01*
X130719755Y-94822593D01*
X130719755Y-94822594D01*
X130660000Y-95123000D01*
X130660000Y-95189310D01*
X130601310Y-95165000D01*
X130460750Y-95165000D01*
X130302000Y-95323750D01*
X130302000Y-96648000D01*
X130322000Y-96648000D01*
X130322000Y-96902000D01*
X130302000Y-96902000D01*
X130302000Y-98226250D01*
X130460750Y-98385000D01*
X130601310Y-98385000D01*
X130660000Y-98360690D01*
X130660000Y-99057560D01*
X130548000Y-99057560D01*
X130312683Y-99101838D01*
X130096559Y-99240910D01*
X130050031Y-99309006D01*
X129907698Y-99166673D01*
X129674309Y-99070000D01*
X129333750Y-99070000D01*
X129175000Y-99228750D01*
X129175000Y-100203000D01*
X129195000Y-100203000D01*
X129195000Y-100457000D01*
X129175000Y-100457000D01*
X129175000Y-101431250D01*
X129333750Y-101590000D01*
X129674309Y-101590000D01*
X129907698Y-101493327D01*
X130048936Y-101352090D01*
X130083910Y-101406441D01*
X130296110Y-101551431D01*
X130548000Y-101602440D01*
X131548000Y-101602440D01*
X131783317Y-101558162D01*
X131999441Y-101419090D01*
X132144431Y-101206890D01*
X132195440Y-100955000D01*
X132195440Y-100106743D01*
X132230000Y-99933000D01*
X132230000Y-98359977D01*
X132415000Y-98397440D01*
X133015000Y-98397440D01*
X133250317Y-98353162D01*
X133349528Y-98289322D01*
X133433110Y-98346431D01*
X133685000Y-98397440D01*
X134285000Y-98397440D01*
X134520317Y-98353162D01*
X134531000Y-98346288D01*
X134531000Y-98951331D01*
X134514559Y-98961910D01*
X134369569Y-99174110D01*
X134366919Y-99187197D01*
X134230090Y-98974559D01*
X134017890Y-98829569D01*
X133766000Y-98778560D01*
X133066000Y-98778560D01*
X132830683Y-98822838D01*
X132614559Y-98961910D01*
X132469569Y-99174110D01*
X132418560Y-99426000D01*
X132418560Y-100726000D01*
X132462838Y-100961317D01*
X132601910Y-101177441D01*
X132631000Y-101197317D01*
X132631000Y-101687996D01*
X132370254Y-101862221D01*
X132069900Y-102311732D01*
X131964430Y-102841967D01*
X131964430Y-103914033D01*
X132069900Y-104444268D01*
X132370254Y-104893779D01*
X132819765Y-105194133D01*
X133350000Y-105299603D01*
X133880235Y-105194133D01*
X134329746Y-104893779D01*
X134620000Y-104459384D01*
X134755000Y-104661425D01*
X134755000Y-106209867D01*
X134159151Y-106805717D01*
X133857454Y-106680441D01*
X132846979Y-106679560D01*
X131913085Y-107065437D01*
X131197948Y-107779327D01*
X130810441Y-108712546D01*
X130810437Y-108716972D01*
X130424563Y-107783085D01*
X129710673Y-107067948D01*
X128777454Y-106680441D01*
X127766979Y-106679560D01*
X126833085Y-107065437D01*
X126117948Y-107779327D01*
X126007169Y-108046113D01*
X123690000Y-105728944D01*
X123690000Y-103137425D01*
X123835100Y-102920268D01*
X123836950Y-102910968D01*
X123863501Y-103000677D01*
X124205056Y-103422658D01*
X124682097Y-103681810D01*
X124753725Y-103695993D01*
X124968000Y-103573339D01*
X124968000Y-101981000D01*
X125222000Y-101981000D01*
X125222000Y-103573339D01*
X125436275Y-103695993D01*
X125507903Y-103681810D01*
X125984944Y-103422658D01*
X126326499Y-103000677D01*
X126480570Y-102480110D01*
X126480570Y-101981000D01*
X125222000Y-101981000D01*
X124968000Y-101981000D01*
X124948000Y-101981000D01*
X124948000Y-101727000D01*
X124968000Y-101727000D01*
X124968000Y-100134661D01*
X125222000Y-100134661D01*
X125222000Y-101727000D01*
X126480570Y-101727000D01*
X126480570Y-101227890D01*
X126326499Y-100707323D01*
X126252380Y-100615750D01*
X127913000Y-100615750D01*
X127913000Y-101081310D01*
X128009673Y-101314699D01*
X128188302Y-101493327D01*
X128421691Y-101590000D01*
X128762250Y-101590000D01*
X128921000Y-101431250D01*
X128921000Y-100457000D01*
X128071750Y-100457000D01*
X127913000Y-100615750D01*
X126252380Y-100615750D01*
X125984944Y-100285342D01*
X125507903Y-100026190D01*
X125436275Y-100012007D01*
X125222000Y-100134661D01*
X124968000Y-100134661D01*
X124753725Y-100012007D01*
X124682097Y-100026190D01*
X124205056Y-100285342D01*
X123863501Y-100707323D01*
X123836950Y-100797032D01*
X123835100Y-100787732D01*
X123534746Y-100338221D01*
X123085235Y-100037867D01*
X122555000Y-99932397D01*
X122024765Y-100037867D01*
X121575254Y-100338221D01*
X121285000Y-100772616D01*
X120994746Y-100338221D01*
X120800000Y-100208096D01*
X120800000Y-99849440D01*
X120812000Y-99849440D01*
X121047317Y-99805162D01*
X121263441Y-99666090D01*
X121408431Y-99453890D01*
X121411081Y-99440803D01*
X121547910Y-99653441D01*
X121760110Y-99798431D01*
X122012000Y-99849440D01*
X122712000Y-99849440D01*
X122947317Y-99805162D01*
X123163441Y-99666090D01*
X123278921Y-99497079D01*
X123396919Y-99615076D01*
X123396921Y-99615079D01*
X123651594Y-99785245D01*
X123952000Y-99845000D01*
X127254000Y-99845000D01*
X127554407Y-99785245D01*
X127809079Y-99615079D01*
X127960752Y-99463406D01*
X127913000Y-99578690D01*
X127913000Y-100044250D01*
X128071750Y-100203000D01*
X128921000Y-100203000D01*
X128921000Y-99228750D01*
X128762250Y-99070000D01*
X128421691Y-99070000D01*
X128253034Y-99139860D01*
X128360245Y-98979407D01*
X128420000Y-98679000D01*
X128420000Y-98359977D01*
X128605000Y-98397440D01*
X129205000Y-98397440D01*
X129440317Y-98353162D01*
X129530980Y-98294822D01*
X129748690Y-98385000D01*
X129889250Y-98385000D01*
X130048000Y-98226250D01*
X130048000Y-96902000D01*
X130028000Y-96902000D01*
X130028000Y-96648000D01*
X130048000Y-96648000D01*
X130048000Y-95323750D01*
X129889250Y-95165000D01*
X129748690Y-95165000D01*
X129531878Y-95254806D01*
X129456890Y-95203569D01*
X129205000Y-95152560D01*
X128605000Y-95152560D01*
X128369683Y-95196838D01*
X128270472Y-95260678D01*
X128186890Y-95203569D01*
X127935000Y-95152560D01*
X127335000Y-95152560D01*
X127099683Y-95196838D01*
X127000472Y-95260678D01*
X126916890Y-95203569D01*
X126665000Y-95152560D01*
X126065000Y-95152560D01*
X125829683Y-95196838D01*
X125730472Y-95260678D01*
X125646890Y-95203569D01*
X125395000Y-95152560D01*
X124795000Y-95152560D01*
X124559683Y-95196838D01*
X124343559Y-95335910D01*
X124198569Y-95548110D01*
X124147560Y-95800000D01*
X124147560Y-97750000D01*
X124191838Y-97985317D01*
X124330910Y-98201441D01*
X124438567Y-98275000D01*
X124277157Y-98275000D01*
X123999079Y-97996921D01*
X123744407Y-97826755D01*
X123444000Y-97767000D01*
X123334038Y-97767000D01*
X123315162Y-97666683D01*
X123176090Y-97450559D01*
X122963890Y-97305569D01*
X122712000Y-97254560D01*
X122012000Y-97254560D01*
X121776683Y-97298838D01*
X121560559Y-97437910D01*
X121415569Y-97650110D01*
X121412919Y-97663197D01*
X121276090Y-97450559D01*
X121063890Y-97305569D01*
X120812000Y-97254560D01*
X120112000Y-97254560D01*
X119876683Y-97298838D01*
X119660559Y-97437910D01*
X119515569Y-97650110D01*
X119464560Y-97902000D01*
X119464560Y-98439282D01*
X119459921Y-98443921D01*
X119289755Y-98698593D01*
X119265041Y-98822838D01*
X119230000Y-98999000D01*
X119230000Y-100208096D01*
X119035254Y-100338221D01*
X118734900Y-100787732D01*
X118629430Y-101317967D01*
X118629430Y-102390033D01*
X118734900Y-102920268D01*
X119035254Y-103369779D01*
X119484765Y-103670133D01*
X120015000Y-103775603D01*
X120545235Y-103670133D01*
X120994746Y-103369779D01*
X121285000Y-102935384D01*
X121420000Y-103137425D01*
X121420000Y-106199076D01*
X121506397Y-106633422D01*
X121617950Y-106800372D01*
X121752434Y-107001642D01*
X124773358Y-110022566D01*
X125141579Y-110268604D01*
X125575924Y-110355000D01*
X125990688Y-110355000D01*
X126115437Y-110656915D01*
X126829327Y-111372052D01*
X127762546Y-111759559D01*
X128773021Y-111760440D01*
X129706915Y-111374563D01*
X130422052Y-110660673D01*
X130809559Y-109727454D01*
X130809563Y-109723028D01*
X131195437Y-110656915D01*
X131909327Y-111372052D01*
X132842546Y-111759559D01*
X133853021Y-111760440D01*
X134786915Y-111374563D01*
X135502052Y-110660673D01*
X135889559Y-109727454D01*
X135889563Y-109723028D01*
X136275437Y-110656915D01*
X136989327Y-111372052D01*
X137922546Y-111759559D01*
X138933021Y-111760440D01*
X139866915Y-111374563D01*
X140582052Y-110660673D01*
X140957560Y-109756351D01*
X140957560Y-111125000D01*
X141001838Y-111360317D01*
X141140910Y-111576441D01*
X141353110Y-111721431D01*
X141605000Y-111772440D01*
X145415000Y-111772440D01*
X145650317Y-111728162D01*
X145866441Y-111589090D01*
X146011431Y-111376890D01*
X146062440Y-111125000D01*
X146062440Y-110355000D01*
X151130000Y-110355000D01*
X151564346Y-110268603D01*
X151932566Y-110022566D01*
X154490420Y-107464712D01*
X154490420Y-111950500D01*
X116141500Y-111950500D01*
X116141500Y-67564000D01*
X117071000Y-67564000D01*
X117071000Y-92075000D01*
X117130755Y-92375407D01*
X117300921Y-92630079D01*
X118570921Y-93900079D01*
X118825593Y-94070245D01*
X119126000Y-94130000D01*
X119489962Y-94130000D01*
X119508838Y-94230317D01*
X119647910Y-94446441D01*
X119860110Y-94591431D01*
X120112000Y-94642440D01*
X120812000Y-94642440D01*
X121047317Y-94598162D01*
X121263441Y-94459090D01*
X121408431Y-94246890D01*
X121411081Y-94233803D01*
X121547910Y-94446441D01*
X121760110Y-94591431D01*
X122012000Y-94642440D01*
X122712000Y-94642440D01*
X122947317Y-94598162D01*
X123163441Y-94459090D01*
X123308431Y-94246890D01*
X123332102Y-94130000D01*
X123825000Y-94130000D01*
X124125407Y-94070245D01*
X124380079Y-93900079D01*
X125547158Y-92733000D01*
X128524000Y-92733000D01*
X128824407Y-92673245D01*
X129079079Y-92503079D01*
X131429568Y-90152590D01*
X134660410Y-90152590D01*
X134960817Y-90092835D01*
X135215489Y-89922669D01*
X135810079Y-89328079D01*
X135980245Y-89073407D01*
X136004248Y-88952737D01*
X136225000Y-88997440D01*
X136825000Y-88997440D01*
X137060317Y-88953162D01*
X137276441Y-88814090D01*
X137421431Y-88601890D01*
X137472440Y-88350000D01*
X137472440Y-86400000D01*
X137428162Y-86164683D01*
X137289090Y-85948559D01*
X137285000Y-85945764D01*
X137285000Y-81685691D01*
X143520000Y-81685691D01*
X143520000Y-82026250D01*
X143678750Y-82185000D01*
X144653000Y-82185000D01*
X144653000Y-81335750D01*
X144907000Y-81335750D01*
X144907000Y-82185000D01*
X145881250Y-82185000D01*
X146040000Y-82026250D01*
X146040000Y-81685691D01*
X145943327Y-81452302D01*
X145764699Y-81273673D01*
X145531310Y-81177000D01*
X145065750Y-81177000D01*
X144907000Y-81335750D01*
X144653000Y-81335750D01*
X144494250Y-81177000D01*
X144028690Y-81177000D01*
X143795301Y-81273673D01*
X143616673Y-81452302D01*
X143520000Y-81685691D01*
X137285000Y-81685691D01*
X137285000Y-81361952D01*
X137277301Y-81323246D01*
X137227148Y-81071112D01*
X137062401Y-80824551D01*
X136607991Y-80370141D01*
X136608344Y-79965503D01*
X136522341Y-79757360D01*
X141809520Y-79757360D01*
X142109927Y-79697605D01*
X142364599Y-79527439D01*
X143036708Y-78855330D01*
X143586278Y-78855810D01*
X144095717Y-78645314D01*
X144485824Y-78255887D01*
X144697209Y-77746816D01*
X144697690Y-77195602D01*
X144487194Y-76686163D01*
X144097767Y-76296056D01*
X144096880Y-76295688D01*
X144096880Y-76076880D01*
X144037125Y-75776474D01*
X143866959Y-75521801D01*
X142450079Y-74104921D01*
X142200726Y-73938309D01*
X142198162Y-73924683D01*
X142059090Y-73708559D01*
X141990994Y-73662031D01*
X142133327Y-73519698D01*
X142230000Y-73286309D01*
X142230000Y-72945750D01*
X142071250Y-72787000D01*
X141097000Y-72787000D01*
X141097000Y-72807000D01*
X140843000Y-72807000D01*
X140843000Y-72787000D01*
X139868750Y-72787000D01*
X139710000Y-72945750D01*
X139710000Y-73286309D01*
X139806673Y-73519698D01*
X139947910Y-73660936D01*
X139893559Y-73695910D01*
X139748569Y-73908110D01*
X139697560Y-74160000D01*
X139697560Y-75160000D01*
X139741838Y-75395317D01*
X139880910Y-75611441D01*
X140093110Y-75756431D01*
X140345000Y-75807440D01*
X141595000Y-75807440D01*
X141830317Y-75763162D01*
X141865417Y-75740575D01*
X142473738Y-76348896D01*
X142137936Y-76684113D01*
X141926551Y-77193184D01*
X141926070Y-77744398D01*
X141926437Y-77745285D01*
X141484362Y-78187360D01*
X139632399Y-78187360D01*
X139815329Y-77746816D01*
X139815810Y-77195602D01*
X139605314Y-76686163D01*
X139215887Y-76296056D01*
X139215000Y-76295688D01*
X139215000Y-75295005D01*
X139215001Y-75295000D01*
X139155245Y-74994594D01*
X139067440Y-74863184D01*
X139067440Y-74160000D01*
X139023162Y-73924683D01*
X138884090Y-73708559D01*
X138815994Y-73662031D01*
X138958327Y-73519698D01*
X139055000Y-73286309D01*
X139055000Y-72945750D01*
X138896250Y-72787000D01*
X137922000Y-72787000D01*
X137922000Y-72807000D01*
X137668000Y-72807000D01*
X137668000Y-72787000D01*
X136693750Y-72787000D01*
X136535000Y-72945750D01*
X136535000Y-73286309D01*
X136631673Y-73519698D01*
X136772910Y-73660936D01*
X136718559Y-73695910D01*
X136573569Y-73908110D01*
X136522560Y-74160000D01*
X136522560Y-75160000D01*
X136566838Y-75395317D01*
X136705910Y-75611441D01*
X136918110Y-75756431D01*
X137170000Y-75807440D01*
X137645000Y-75807440D01*
X137645000Y-76295847D01*
X137256056Y-76684113D01*
X137255688Y-76685000D01*
X134408801Y-76685000D01*
X134108394Y-76744755D01*
X133853722Y-76914921D01*
X132159921Y-78608722D01*
X131989755Y-78863394D01*
X131989755Y-78863395D01*
X131930000Y-79163801D01*
X131930000Y-82613306D01*
X131801309Y-82560000D01*
X131460750Y-82560000D01*
X131302000Y-82718750D01*
X131302000Y-83693000D01*
X131322000Y-83693000D01*
X131322000Y-83947000D01*
X131302000Y-83947000D01*
X131302000Y-84921250D01*
X131460750Y-85080000D01*
X131801309Y-85080000D01*
X131930000Y-85026694D01*
X131930000Y-85789310D01*
X131871310Y-85765000D01*
X131730750Y-85765000D01*
X131572000Y-85923750D01*
X131572000Y-87248000D01*
X131592000Y-87248000D01*
X131592000Y-87502000D01*
X131572000Y-87502000D01*
X131572000Y-87522000D01*
X131318000Y-87522000D01*
X131318000Y-87502000D01*
X131298000Y-87502000D01*
X131298000Y-87248000D01*
X131318000Y-87248000D01*
X131318000Y-85923750D01*
X131159250Y-85765000D01*
X131018690Y-85765000D01*
X130833000Y-85841915D01*
X130833000Y-85487553D01*
X130773245Y-85187147D01*
X130701652Y-85080000D01*
X130889250Y-85080000D01*
X131048000Y-84921250D01*
X131048000Y-83947000D01*
X131028000Y-83947000D01*
X131028000Y-83693000D01*
X131048000Y-83693000D01*
X131048000Y-82718750D01*
X130889250Y-82560000D01*
X130548691Y-82560000D01*
X130315302Y-82656673D01*
X130174064Y-82797910D01*
X130139090Y-82743559D01*
X130011790Y-82656579D01*
X130600727Y-82067642D01*
X130770893Y-81812970D01*
X130830648Y-81512563D01*
X130830648Y-77784828D01*
X132950112Y-75665364D01*
X133120278Y-75410692D01*
X133180033Y-75110285D01*
X133180033Y-73823257D01*
X133441404Y-73562342D01*
X133629818Y-73108591D01*
X133630247Y-72617278D01*
X133442625Y-72163200D01*
X133313343Y-72033691D01*
X136535000Y-72033691D01*
X136535000Y-72374250D01*
X136693750Y-72533000D01*
X137668000Y-72533000D01*
X137668000Y-71683750D01*
X137922000Y-71683750D01*
X137922000Y-72533000D01*
X138896250Y-72533000D01*
X139055000Y-72374250D01*
X139055000Y-72033691D01*
X139710000Y-72033691D01*
X139710000Y-72374250D01*
X139868750Y-72533000D01*
X140843000Y-72533000D01*
X140843000Y-71683750D01*
X141097000Y-71683750D01*
X141097000Y-72533000D01*
X142071250Y-72533000D01*
X142230000Y-72374250D01*
X142230000Y-72033691D01*
X142133327Y-71800302D01*
X141954699Y-71621673D01*
X141721310Y-71525000D01*
X141255750Y-71525000D01*
X141097000Y-71683750D01*
X140843000Y-71683750D01*
X140684250Y-71525000D01*
X140218690Y-71525000D01*
X139985301Y-71621673D01*
X139806673Y-71800302D01*
X139710000Y-72033691D01*
X139055000Y-72033691D01*
X138958327Y-71800302D01*
X138779699Y-71621673D01*
X138546310Y-71525000D01*
X138080750Y-71525000D01*
X137922000Y-71683750D01*
X137668000Y-71683750D01*
X137509250Y-71525000D01*
X137043690Y-71525000D01*
X136810301Y-71621673D01*
X136631673Y-71800302D01*
X136535000Y-72033691D01*
X133313343Y-72033691D01*
X133095518Y-71815486D01*
X132641767Y-71627072D01*
X132270081Y-71626747D01*
X131208255Y-70564921D01*
X130953583Y-70394755D01*
X130653176Y-70335000D01*
X125747038Y-70335000D01*
X125728162Y-70234683D01*
X125589090Y-70018559D01*
X125376890Y-69873569D01*
X125125000Y-69822560D01*
X124425000Y-69822560D01*
X124189683Y-69866838D01*
X123975000Y-70004983D01*
X123975000Y-69372944D01*
X124249670Y-69189415D01*
X124460000Y-68874634D01*
X124670330Y-69189415D01*
X125156511Y-69514271D01*
X125730000Y-69628345D01*
X126303489Y-69514271D01*
X126789670Y-69189415D01*
X126996461Y-68879931D01*
X127367964Y-69295732D01*
X127895209Y-69549709D01*
X127910974Y-69552358D01*
X128143000Y-69431217D01*
X128143000Y-68072000D01*
X128397000Y-68072000D01*
X128397000Y-69431217D01*
X128629026Y-69552358D01*
X128644791Y-69549709D01*
X129172036Y-69295732D01*
X129561954Y-68859320D01*
X129737344Y-68357913D01*
X133169638Y-68357913D01*
X133486392Y-69124515D01*
X134072400Y-69711547D01*
X134838448Y-70029638D01*
X135667913Y-70030362D01*
X136434515Y-69713608D01*
X136725782Y-69422849D01*
X139036756Y-69422849D01*
X139190435Y-69736424D01*
X139963108Y-70038066D01*
X140792398Y-70021058D01*
X141479565Y-69736424D01*
X141633244Y-69422849D01*
X140335000Y-68124605D01*
X139036756Y-69422849D01*
X136725782Y-69422849D01*
X137021547Y-69127600D01*
X137339638Y-68361552D01*
X137340326Y-67573108D01*
X138241934Y-67573108D01*
X138258942Y-68402398D01*
X138543576Y-69089565D01*
X138857151Y-69243244D01*
X140155395Y-67945000D01*
X138857151Y-66646756D01*
X138543576Y-66800435D01*
X138241934Y-67573108D01*
X137340326Y-67573108D01*
X137340362Y-67532087D01*
X137023608Y-66765485D01*
X136725795Y-66467151D01*
X139036756Y-66467151D01*
X140335000Y-67765395D01*
X141633244Y-66467151D01*
X141479565Y-66153576D01*
X140706892Y-65851934D01*
X139877602Y-65868942D01*
X139190435Y-66153576D01*
X139036756Y-66467151D01*
X136725795Y-66467151D01*
X136437600Y-66178453D01*
X136131371Y-66051296D01*
X136627667Y-65555000D01*
X141279842Y-65555000D01*
X142090000Y-66365158D01*
X142090000Y-66782584D01*
X141812849Y-66646756D01*
X140514605Y-67945000D01*
X141812849Y-69243244D01*
X142090000Y-69107416D01*
X142090000Y-69850000D01*
X142149755Y-70150407D01*
X142319921Y-70405079D01*
X143368008Y-71453166D01*
X143622681Y-71623332D01*
X143923087Y-71683087D01*
X145866861Y-71683087D01*
X146593148Y-72409374D01*
X146593148Y-82420694D01*
X146014874Y-82998968D01*
X146040000Y-82938309D01*
X146040000Y-82597750D01*
X145881250Y-82439000D01*
X144907000Y-82439000D01*
X144907000Y-82459000D01*
X144653000Y-82459000D01*
X144653000Y-82439000D01*
X143678750Y-82439000D01*
X143520000Y-82597750D01*
X143520000Y-82938309D01*
X143616673Y-83171698D01*
X143757910Y-83312936D01*
X143703559Y-83347910D01*
X143581192Y-83527000D01*
X143272000Y-83527000D01*
X142971594Y-83586755D01*
X142716921Y-83756921D01*
X141303921Y-85169921D01*
X141133755Y-85424593D01*
X141119848Y-85494509D01*
X141074000Y-85725000D01*
X141074000Y-87053660D01*
X140899559Y-87165910D01*
X140754569Y-87378110D01*
X140703560Y-87630000D01*
X140703560Y-89662000D01*
X140747838Y-89897317D01*
X140886910Y-90113441D01*
X141099110Y-90258431D01*
X141351000Y-90309440D01*
X142367000Y-90309440D01*
X142602317Y-90265162D01*
X142818441Y-90126090D01*
X142963431Y-89913890D01*
X143002000Y-89723431D01*
X143002000Y-89788310D01*
X143098673Y-90021699D01*
X143277302Y-90200327D01*
X143510691Y-90297000D01*
X143859250Y-90297000D01*
X144018000Y-90138250D01*
X144018000Y-88773000D01*
X143998000Y-88773000D01*
X143998000Y-88519000D01*
X144018000Y-88519000D01*
X144018000Y-87153750D01*
X143859250Y-86995000D01*
X143510691Y-86995000D01*
X143277302Y-87091673D01*
X143098673Y-87270301D01*
X143002000Y-87503690D01*
X143002000Y-87563887D01*
X142970162Y-87394683D01*
X142831090Y-87178559D01*
X142644000Y-87050726D01*
X142644000Y-86050158D01*
X143589035Y-85105123D01*
X143690910Y-85263441D01*
X143903110Y-85408431D01*
X144155000Y-85459440D01*
X145405000Y-85459440D01*
X145640317Y-85415162D01*
X145856441Y-85276090D01*
X145994910Y-85073434D01*
X146096407Y-85053245D01*
X146351079Y-84883079D01*
X147933227Y-83300931D01*
X148103393Y-83046259D01*
X148163148Y-82745852D01*
X148163148Y-72084216D01*
X148103393Y-71783810D01*
X147933227Y-71529137D01*
X146747098Y-70343008D01*
X146492426Y-70172842D01*
X146192019Y-70113087D01*
X144248245Y-70113087D01*
X143660000Y-69524842D01*
X143660000Y-69422849D01*
X144116756Y-69422849D01*
X144270435Y-69736424D01*
X145043108Y-70038066D01*
X145872398Y-70021058D01*
X146559565Y-69736424D01*
X146713244Y-69422849D01*
X145415000Y-68124605D01*
X144116756Y-69422849D01*
X143660000Y-69422849D01*
X143660000Y-69107416D01*
X143937151Y-69243244D01*
X145235395Y-67945000D01*
X145594605Y-67945000D01*
X146892849Y-69243244D01*
X147206424Y-69089565D01*
X147508066Y-68316892D01*
X147491058Y-67487602D01*
X147206424Y-66800435D01*
X146892849Y-66646756D01*
X145594605Y-67945000D01*
X145235395Y-67945000D01*
X143937151Y-66646756D01*
X143660000Y-66782584D01*
X143660000Y-66467151D01*
X144116756Y-66467151D01*
X145415000Y-67765395D01*
X146713244Y-66467151D01*
X146559565Y-66153576D01*
X145786892Y-65851934D01*
X144957602Y-65868942D01*
X144270435Y-66153576D01*
X144116756Y-66467151D01*
X143660000Y-66467151D01*
X143660000Y-66040000D01*
X143625974Y-65868942D01*
X143600245Y-65739593D01*
X143430079Y-65484921D01*
X142160079Y-64214921D01*
X141905407Y-64044755D01*
X141605000Y-63985000D01*
X136302509Y-63985000D01*
X136002103Y-64044755D01*
X136002101Y-64044756D01*
X136002102Y-64044756D01*
X135747430Y-64214921D01*
X134699921Y-65262430D01*
X134529755Y-65517102D01*
X134529755Y-65517103D01*
X134470000Y-65817509D01*
X134470000Y-66013381D01*
X134075485Y-66176392D01*
X133488453Y-66762400D01*
X133170362Y-67528448D01*
X133169638Y-68357913D01*
X129737344Y-68357913D01*
X129755184Y-68306913D01*
X129610924Y-68072000D01*
X128397000Y-68072000D01*
X128143000Y-68072000D01*
X128123000Y-68072000D01*
X128123000Y-67818000D01*
X128143000Y-67818000D01*
X128143000Y-66458783D01*
X128397000Y-66458783D01*
X128397000Y-67818000D01*
X129610924Y-67818000D01*
X129755184Y-67583087D01*
X129561954Y-67030680D01*
X129172036Y-66594268D01*
X128644791Y-66340291D01*
X128629026Y-66337642D01*
X128397000Y-66458783D01*
X128143000Y-66458783D01*
X127910974Y-66337642D01*
X127895209Y-66340291D01*
X127367964Y-66594268D01*
X126996461Y-67010069D01*
X126789670Y-66700585D01*
X126303489Y-66375729D01*
X125730000Y-66261655D01*
X125379026Y-66331468D01*
X124532479Y-65484921D01*
X124277807Y-65314755D01*
X123977400Y-65255000D01*
X119380000Y-65255000D01*
X119079594Y-65314755D01*
X118824921Y-65484921D01*
X118824919Y-65484924D01*
X117300921Y-67008921D01*
X117130755Y-67263593D01*
X117130755Y-67263594D01*
X117071000Y-67564000D01*
X116141500Y-67564000D01*
X116141500Y-63601600D01*
X154490420Y-63601600D01*
X154490420Y-67795288D01*
G36*
X131160141Y-72737123D02*
X131159819Y-73106436D01*
X131347441Y-73560514D01*
X131610033Y-73823565D01*
X131610033Y-74785127D01*
X129490569Y-76904591D01*
X129320403Y-77159263D01*
X129314426Y-77189310D01*
X129260648Y-77459670D01*
X129260648Y-79081096D01*
X129221282Y-79041661D01*
X128767531Y-78853247D01*
X128731373Y-78853215D01*
X127169024Y-77290866D01*
X127228600Y-76991359D01*
X127228600Y-76932641D01*
X127114526Y-76359152D01*
X126789670Y-75872971D01*
X126518839Y-75692008D01*
X126936821Y-75310490D01*
X127184968Y-74781027D01*
X127064469Y-74549000D01*
X125857000Y-74549000D01*
X125857000Y-74569000D01*
X125603000Y-74569000D01*
X125603000Y-74549000D01*
X125583000Y-74549000D01*
X125583000Y-74295000D01*
X125603000Y-74295000D01*
X125603000Y-73088183D01*
X125857000Y-73088183D01*
X125857000Y-74295000D01*
X127064469Y-74295000D01*
X127184968Y-74062973D01*
X126936821Y-73533510D01*
X126504947Y-73139312D01*
X126089026Y-72967042D01*
X125857000Y-73088183D01*
X125603000Y-73088183D01*
X125370974Y-72967042D01*
X124955053Y-73139312D01*
X124523179Y-73533510D01*
X124465664Y-73656228D01*
X124267271Y-73359313D01*
X124507079Y-73199079D01*
X125326664Y-72379494D01*
X125360317Y-72373162D01*
X125576441Y-72234090D01*
X125721431Y-72021890D01*
X125745102Y-71905000D01*
X130328018Y-71905000D01*
X131160141Y-72737123D01*
X131160141Y-72737123D01*
G37*
X131160141Y-72737123D02*
X131159819Y-73106436D01*
X131347441Y-73560514D01*
X131610033Y-73823565D01*
X131610033Y-74785127D01*
X129490569Y-76904591D01*
X129320403Y-77159263D01*
X129314426Y-77189310D01*
X129260648Y-77459670D01*
X129260648Y-79081096D01*
X129221282Y-79041661D01*
X128767531Y-78853247D01*
X128731373Y-78853215D01*
X127169024Y-77290866D01*
X127228600Y-76991359D01*
X127228600Y-76932641D01*
X127114526Y-76359152D01*
X126789670Y-75872971D01*
X126518839Y-75692008D01*
X126936821Y-75310490D01*
X127184968Y-74781027D01*
X127064469Y-74549000D01*
X125857000Y-74549000D01*
X125857000Y-74569000D01*
X125603000Y-74569000D01*
X125603000Y-74549000D01*
X125583000Y-74549000D01*
X125583000Y-74295000D01*
X125603000Y-74295000D01*
X125603000Y-73088183D01*
X125857000Y-73088183D01*
X125857000Y-74295000D01*
X127064469Y-74295000D01*
X127184968Y-74062973D01*
X126936821Y-73533510D01*
X126504947Y-73139312D01*
X126089026Y-72967042D01*
X125857000Y-73088183D01*
X125603000Y-73088183D01*
X125370974Y-72967042D01*
X124955053Y-73139312D01*
X124523179Y-73533510D01*
X124465664Y-73656228D01*
X124267271Y-73359313D01*
X124507079Y-73199079D01*
X125326664Y-72379494D01*
X125360317Y-72373162D01*
X125576441Y-72234090D01*
X125721431Y-72021890D01*
X125745102Y-71905000D01*
X130328018Y-71905000D01*
X131160141Y-72737123D01*
G36*
X137498560Y-97678000D02*
X137542838Y-97913317D01*
X137681910Y-98129441D01*
X137894110Y-98274431D01*
X138146000Y-98325440D01*
X138846000Y-98325440D01*
X139081317Y-98281162D01*
X139297441Y-98142090D01*
X139442431Y-97929890D01*
X139445081Y-97916803D01*
X139581910Y-98129441D01*
X139794110Y-98274431D01*
X140046000Y-98325440D01*
X140746000Y-98325440D01*
X140981317Y-98281162D01*
X141197441Y-98142090D01*
X141342431Y-97929890D01*
X141366102Y-97813000D01*
X141778952Y-97813000D01*
X145338998Y-101373046D01*
X145299430Y-101571967D01*
X145299430Y-102644033D01*
X145404900Y-103174268D01*
X145705254Y-103623779D01*
X146154765Y-103924133D01*
X146641750Y-104021000D01*
X141122975Y-104021000D01*
X140688629Y-104107397D01*
X140320409Y-104353434D01*
X137994224Y-106679619D01*
X137926979Y-106679560D01*
X136993085Y-107065437D01*
X136927611Y-107130797D01*
X136938603Y-107114346D01*
X136948794Y-107063110D01*
X137025000Y-106680000D01*
X137025000Y-104661425D01*
X137170100Y-104444268D01*
X137171950Y-104434968D01*
X137198501Y-104524677D01*
X137540056Y-104946658D01*
X138017097Y-105205810D01*
X138088725Y-105219993D01*
X138303000Y-105097339D01*
X138303000Y-103505000D01*
X138557000Y-103505000D01*
X138557000Y-105097339D01*
X138771275Y-105219993D01*
X138842903Y-105205810D01*
X139319944Y-104946658D01*
X139661499Y-104524677D01*
X139815570Y-104004110D01*
X139815570Y-103505000D01*
X138557000Y-103505000D01*
X138303000Y-103505000D01*
X138283000Y-103505000D01*
X138283000Y-103251000D01*
X138303000Y-103251000D01*
X138303000Y-101658661D01*
X138557000Y-101658661D01*
X138557000Y-103251000D01*
X139815570Y-103251000D01*
X139815570Y-102751890D01*
X139661499Y-102231323D01*
X139319944Y-101809342D01*
X138842903Y-101550190D01*
X138771275Y-101536007D01*
X138557000Y-101658661D01*
X138303000Y-101658661D01*
X138088725Y-101536007D01*
X138017097Y-101550190D01*
X137540056Y-101809342D01*
X137198501Y-102231323D01*
X137171950Y-102321032D01*
X137170100Y-102311732D01*
X136869746Y-101862221D01*
X136420235Y-101561867D01*
X135890000Y-101456397D01*
X135359765Y-101561867D01*
X134910254Y-101862221D01*
X134620000Y-102296616D01*
X134329746Y-101862221D01*
X134201000Y-101776196D01*
X134201000Y-101200669D01*
X134217441Y-101190090D01*
X134362431Y-100977890D01*
X134365081Y-100964803D01*
X134501910Y-101177441D01*
X134714110Y-101322431D01*
X134966000Y-101373440D01*
X135666000Y-101373440D01*
X135901317Y-101329162D01*
X136117441Y-101190090D01*
X136262431Y-100977890D01*
X136313440Y-100726000D01*
X136313440Y-99426000D01*
X136269162Y-99190683D01*
X136130090Y-98974559D01*
X136101000Y-98954683D01*
X136101000Y-98372329D01*
X136225000Y-98397440D01*
X136825000Y-98397440D01*
X137060317Y-98353162D01*
X137276441Y-98214090D01*
X137421431Y-98001890D01*
X137472440Y-97750000D01*
X137472440Y-97560000D01*
X137498560Y-97560000D01*
X137498560Y-97678000D01*
X137498560Y-97678000D01*
G37*
X137498560Y-97678000D02*
X137542838Y-97913317D01*
X137681910Y-98129441D01*
X137894110Y-98274431D01*
X138146000Y-98325440D01*
X138846000Y-98325440D01*
X139081317Y-98281162D01*
X139297441Y-98142090D01*
X139442431Y-97929890D01*
X139445081Y-97916803D01*
X139581910Y-98129441D01*
X139794110Y-98274431D01*
X140046000Y-98325440D01*
X140746000Y-98325440D01*
X140981317Y-98281162D01*
X141197441Y-98142090D01*
X141342431Y-97929890D01*
X141366102Y-97813000D01*
X141778952Y-97813000D01*
X145338998Y-101373046D01*
X145299430Y-101571967D01*
X145299430Y-102644033D01*
X145404900Y-103174268D01*
X145705254Y-103623779D01*
X146154765Y-103924133D01*
X146641750Y-104021000D01*
X141122975Y-104021000D01*
X140688629Y-104107397D01*
X140320409Y-104353434D01*
X137994224Y-106679619D01*
X137926979Y-106679560D01*
X136993085Y-107065437D01*
X136927611Y-107130797D01*
X136938603Y-107114346D01*
X136948794Y-107063110D01*
X137025000Y-106680000D01*
X137025000Y-104661425D01*
X137170100Y-104444268D01*
X137171950Y-104434968D01*
X137198501Y-104524677D01*
X137540056Y-104946658D01*
X138017097Y-105205810D01*
X138088725Y-105219993D01*
X138303000Y-105097339D01*
X138303000Y-103505000D01*
X138557000Y-103505000D01*
X138557000Y-105097339D01*
X138771275Y-105219993D01*
X138842903Y-105205810D01*
X139319944Y-104946658D01*
X139661499Y-104524677D01*
X139815570Y-104004110D01*
X139815570Y-103505000D01*
X138557000Y-103505000D01*
X138303000Y-103505000D01*
X138283000Y-103505000D01*
X138283000Y-103251000D01*
X138303000Y-103251000D01*
X138303000Y-101658661D01*
X138557000Y-101658661D01*
X138557000Y-103251000D01*
X139815570Y-103251000D01*
X139815570Y-102751890D01*
X139661499Y-102231323D01*
X139319944Y-101809342D01*
X138842903Y-101550190D01*
X138771275Y-101536007D01*
X138557000Y-101658661D01*
X138303000Y-101658661D01*
X138088725Y-101536007D01*
X138017097Y-101550190D01*
X137540056Y-101809342D01*
X137198501Y-102231323D01*
X137171950Y-102321032D01*
X137170100Y-102311732D01*
X136869746Y-101862221D01*
X136420235Y-101561867D01*
X135890000Y-101456397D01*
X135359765Y-101561867D01*
X134910254Y-101862221D01*
X134620000Y-102296616D01*
X134329746Y-101862221D01*
X134201000Y-101776196D01*
X134201000Y-101200669D01*
X134217441Y-101190090D01*
X134362431Y-100977890D01*
X134365081Y-100964803D01*
X134501910Y-101177441D01*
X134714110Y-101322431D01*
X134966000Y-101373440D01*
X135666000Y-101373440D01*
X135901317Y-101329162D01*
X136117441Y-101190090D01*
X136262431Y-100977890D01*
X136313440Y-100726000D01*
X136313440Y-99426000D01*
X136269162Y-99190683D01*
X136130090Y-98974559D01*
X136101000Y-98954683D01*
X136101000Y-98372329D01*
X136225000Y-98397440D01*
X136825000Y-98397440D01*
X137060317Y-98353162D01*
X137276441Y-98214090D01*
X137421431Y-98001890D01*
X137472440Y-97750000D01*
X137472440Y-97560000D01*
X137498560Y-97560000D01*
X137498560Y-97678000D01*
M02*
