M48
;DRILL file {KiCad 4.0.2-stable} date 08.05.2016 16:41:34
;FORMAT={-:-/ absolute / metric / decimal}
FMAT,2
METRIC,TZ
T1C0.800
T2C0.800
T3C1.001
T4C1.016
T5C1.524
T6C1.800
%
G90
G05
M71
T1
X118.618Y-104.902
X120.65Y-71.561
X124.968Y-104.902
X125.706Y-79.91
X128.684Y-71.621
X132.395Y-72.862
X135.191Y-80.113
X142.24Y-81.534
X142.24Y-102.362
X150.407Y-72.94
T2
X138.43Y-77.47
X143.312Y-77.47
T3
X120.015Y-101.854
X122.555Y-101.854
X125.095Y-101.854
X133.35Y-103.378
X135.89Y-103.378
X138.43Y-103.378
X146.685Y-102.108
X149.225Y-102.108
X151.765Y-102.108
T4
X120.65Y-67.945
X120.65Y-74.422
X120.65Y-76.962
X123.19Y-67.945
X123.19Y-74.422
X123.19Y-76.962
X125.73Y-67.945
X125.73Y-74.422
X125.73Y-76.962
X128.27Y-67.945
T5
X128.27Y-109.22
X133.35Y-109.22
X138.43Y-109.22
X143.51Y-109.22
T6
X135.255Y-67.945
X140.335Y-67.945
X145.415Y-67.945
X150.495Y-67.945
T0
M30
