G04 #@! TF.FileFunction,Copper,L2,Bot,Signal*
%FSLAX46Y46*%
G04 Gerber Fmt 4.6, Leading zero omitted, Abs format (unit mm)*
G04 Created by KiCad (PCBNEW 4.0.2-stable) date 08.05.2016 16:41:32*
%MOMM*%
G01*
G04 APERTURE LIST*
%ADD10C,0.100000*%
%ADD11R,1.250000X1.000000*%
%ADD12O,1.501140X2.499360*%
%ADD13R,0.700000X1.300000*%
%ADD14C,2.000000*%
%ADD15C,3.810000*%
%ADD16R,3.810000X3.810000*%
%ADD17R,3.657600X2.032000*%
%ADD18R,1.016000X2.032000*%
%ADD19R,0.600000X1.950000*%
%ADD20R,1.000000X1.250000*%
%ADD21R,1.727200X1.727200*%
%ADD22O,2.000000X2.000000*%
%ADD23R,1.727200X2.032000*%
%ADD24O,1.727200X2.032000*%
%ADD25R,1.300000X0.700000*%
%ADD26C,2.900000*%
%ADD27R,1.800860X3.149600*%
%ADD28C,0.300000*%
%ADD29C,0.500000*%
%ADD30C,0.250000*%
%ADD31C,1.000000*%
%ADD32C,0.254000*%
G04 APERTURE END LIST*
D10*
D11*
X129794000Y-102124000D03*
X129794000Y-104124000D03*
D12*
X135890000Y-103378000D03*
X133350000Y-103378000D03*
X138430000Y-103378000D03*
D13*
X119446000Y-92964000D03*
X121346000Y-92964000D03*
D14*
X143311880Y-77470000D03*
X138430000Y-77470000D03*
D12*
X122555000Y-101854000D03*
X120015000Y-101854000D03*
X125095000Y-101854000D03*
D15*
X138430000Y-109220000D03*
X133350000Y-109220000D03*
D16*
X143510000Y-109220000D03*
D15*
X128270000Y-109220000D03*
D17*
X144145000Y-95250000D03*
D18*
X144145000Y-88646000D03*
X146431000Y-88646000D03*
X141859000Y-88646000D03*
D19*
X125095000Y-87375000D03*
X126365000Y-87375000D03*
X127635000Y-87375000D03*
X128905000Y-87375000D03*
X130175000Y-87375000D03*
X131445000Y-87375000D03*
X132715000Y-87375000D03*
X133985000Y-87375000D03*
X135255000Y-87375000D03*
X136525000Y-87375000D03*
X136525000Y-96775000D03*
X135255000Y-96775000D03*
X133985000Y-96775000D03*
X132715000Y-96775000D03*
X131445000Y-96775000D03*
X130175000Y-96775000D03*
X128905000Y-96775000D03*
X127635000Y-96775000D03*
X126365000Y-96775000D03*
X125095000Y-96775000D03*
D12*
X149225000Y-102108000D03*
X146685000Y-102108000D03*
X151765000Y-102108000D03*
D20*
X142002000Y-85344000D03*
X144002000Y-85344000D03*
X129175000Y-83820000D03*
X131175000Y-83820000D03*
D11*
X137795000Y-72660000D03*
X137795000Y-74660000D03*
X140970000Y-72660000D03*
X140970000Y-74660000D03*
D21*
X120650000Y-76962000D03*
D22*
X120650000Y-74422000D03*
X123190000Y-76962000D03*
X123190000Y-74422000D03*
X125730000Y-76962000D03*
X125730000Y-74422000D03*
D23*
X120650000Y-67945000D03*
D24*
X123190000Y-67945000D03*
X125730000Y-67945000D03*
X128270000Y-67945000D03*
D13*
X146746000Y-98552000D03*
X144846000Y-98552000D03*
X133416000Y-100076000D03*
X135316000Y-100076000D03*
X120462000Y-98552000D03*
X122362000Y-98552000D03*
D25*
X121666000Y-86934000D03*
X121666000Y-88834000D03*
X118872000Y-86934000D03*
X118872000Y-88834000D03*
D26*
X135255000Y-67945000D03*
X140335000Y-67945000D03*
X145415000Y-67945000D03*
X150495000Y-67945000D03*
D27*
X150495000Y-92930980D03*
X150495000Y-88679020D03*
D14*
X118618000Y-104902000D03*
X124968000Y-104902000D03*
X142240000Y-81534000D03*
X142240000Y-102362000D03*
X128684266Y-71621193D03*
X120650000Y-71561032D03*
X132395033Y-72861857D03*
X150406586Y-72939555D03*
X125706117Y-79910067D03*
X135191369Y-80112636D03*
D28*
X125095000Y-101854000D02*
X125095000Y-104775000D01*
X125095000Y-104775000D02*
X124968000Y-104902000D01*
X138430000Y-103378000D02*
X141224000Y-103378000D01*
X141224000Y-103378000D02*
X142240000Y-102362000D01*
D29*
X138430000Y-77470000D02*
X138430000Y-76018497D01*
X138430000Y-76018497D02*
X137795000Y-75383497D01*
X137795000Y-75383497D02*
X137795000Y-74660000D01*
X132715000Y-87375000D02*
X132715000Y-78148677D01*
X132715000Y-78148677D02*
X133946417Y-76917260D01*
X133946417Y-76917260D02*
X137877260Y-76917260D01*
X137877260Y-76917260D02*
X138430000Y-77470000D01*
X140970000Y-74660000D02*
X140970000Y-75995542D01*
X140970000Y-75995542D02*
X142444458Y-77470000D01*
X142444458Y-77470000D02*
X143311880Y-77470000D01*
X143311880Y-77470000D02*
X141353968Y-79427912D01*
X134350123Y-77957161D02*
X133596123Y-78711161D01*
X141353968Y-79427912D02*
X137288449Y-79427912D01*
X137288449Y-79427912D02*
X135817698Y-77957161D01*
X133985000Y-84671215D02*
X133985000Y-87375000D01*
X135817698Y-77957161D02*
X134350123Y-77957161D01*
X133596123Y-78711161D02*
X133596123Y-84282338D01*
X133596123Y-84282338D02*
X133985000Y-84671215D01*
X128270000Y-90170000D02*
X128905000Y-89535000D01*
X122406000Y-90424000D02*
X128016000Y-90424000D01*
X128016000Y-90424000D02*
X128270000Y-90170000D01*
X121666000Y-88834000D02*
X121666000Y-89684000D01*
X121666000Y-89684000D02*
X122406000Y-90424000D01*
X128905000Y-87375000D02*
X128905000Y-89535000D01*
D30*
X128905000Y-87375000D02*
X128905000Y-88050000D01*
X128905000Y-87375000D02*
X128730914Y-87200914D01*
D29*
X134620000Y-90424000D02*
X135255000Y-89789000D01*
X135255000Y-89789000D02*
X135255000Y-89001841D01*
X131572000Y-90424000D02*
X134620000Y-90424000D01*
X129032000Y-92964000D02*
X131572000Y-90424000D01*
X121346000Y-92964000D02*
X129032000Y-92964000D01*
X135255000Y-89001841D02*
X135255000Y-87375000D01*
D30*
X135255000Y-87375000D02*
X135255000Y-88050000D01*
D29*
X123952000Y-99060000D02*
X123444000Y-98552000D01*
X123444000Y-98552000D02*
X122362000Y-98552000D01*
X127254000Y-99060000D02*
X123952000Y-99060000D01*
X127635000Y-98679000D02*
X127254000Y-99060000D01*
X127635000Y-96775000D02*
X127635000Y-98679000D01*
X118872000Y-86934000D02*
X121666000Y-86934000D01*
X123190000Y-67945000D02*
X123190000Y-66429000D01*
X123190000Y-66429000D02*
X122801000Y-66040000D01*
X117507024Y-66642976D02*
X117507024Y-83725024D01*
X122801000Y-66040000D02*
X118110000Y-66040000D01*
X118110000Y-66040000D02*
X117507024Y-66642976D01*
X118872000Y-85090000D02*
X118872000Y-86934000D01*
X117507024Y-83725024D02*
X118872000Y-85090000D01*
X123190000Y-67945000D02*
X123190000Y-67792600D01*
X123510000Y-67625000D02*
X123190000Y-67945000D01*
X122875000Y-68260000D02*
X123190000Y-67945000D01*
X119446000Y-92964000D02*
X118596000Y-92964000D01*
X118596000Y-92964000D02*
X116532649Y-90900649D01*
X116532649Y-90900649D02*
X116532649Y-65839351D01*
X124390540Y-65024000D02*
X125730000Y-66363460D01*
X116532649Y-65839351D02*
X117348000Y-65024000D01*
X117348000Y-65024000D02*
X124390540Y-65024000D01*
X125730000Y-66363460D02*
X125730000Y-67945000D01*
X125730000Y-67945000D02*
X125730000Y-68097400D01*
D28*
X125730000Y-67792600D02*
X125730000Y-67945000D01*
D31*
X149225000Y-102108000D02*
X149225000Y-104357680D01*
X149225000Y-104357680D02*
X148426680Y-105156000D01*
X148426680Y-105156000D02*
X141122975Y-105156000D01*
X141122975Y-105156000D02*
X138430000Y-107848975D01*
X138430000Y-107848975D02*
X138430000Y-109220000D01*
X135890000Y-103505000D02*
X135890000Y-106680000D01*
X135890000Y-106680000D02*
X133350000Y-109220000D01*
X128270000Y-109220000D02*
X125575924Y-109220000D01*
X125575924Y-109220000D02*
X122555000Y-106199076D01*
X122555000Y-106199076D02*
X122555000Y-101854000D01*
D29*
X147378148Y-74353148D02*
X147378148Y-81788000D01*
X143163000Y-83058000D02*
X146108148Y-83058000D01*
X146108148Y-83058000D02*
X147378148Y-81788000D01*
X142002000Y-85344000D02*
X142002000Y-84219000D01*
X142002000Y-84219000D02*
X143163000Y-83058000D01*
X141859000Y-88646000D02*
X141859000Y-85487000D01*
X141859000Y-85487000D02*
X142002000Y-85344000D01*
X135255000Y-67945000D02*
X135255000Y-65817509D01*
X135255000Y-65817509D02*
X136302509Y-64770000D01*
X136302509Y-64770000D02*
X141605000Y-64770000D01*
X141605000Y-64770000D02*
X142875000Y-66040000D01*
X142875000Y-66040000D02*
X142875000Y-69850000D01*
X142875000Y-69850000D02*
X147378148Y-74353148D01*
X129175000Y-83820000D02*
X129175000Y-72111927D01*
X129175000Y-72111927D02*
X128684266Y-71621193D01*
X129684265Y-72621192D02*
X128684266Y-71621193D01*
X129924930Y-72861857D02*
X129684265Y-72621192D01*
X132395033Y-72861857D02*
X129924930Y-72861857D01*
X146304000Y-89281000D02*
X146304000Y-91440000D01*
X146304000Y-91440000D02*
X144408539Y-93335461D01*
X133229112Y-93335461D02*
X131445000Y-95119573D01*
X144408539Y-93335461D02*
X133229112Y-93335461D01*
X131445000Y-95119573D02*
X131445000Y-96775000D01*
X129286000Y-90932000D02*
X130175000Y-90043000D01*
X120374000Y-91186000D02*
X129032000Y-91186000D01*
X129032000Y-91186000D02*
X129286000Y-90932000D01*
X118872000Y-88834000D02*
X118872000Y-89684000D01*
X118872000Y-89684000D02*
X120374000Y-91186000D01*
X130174086Y-85806164D02*
X129175000Y-84807078D01*
X130174086Y-86446914D02*
X130174086Y-85806164D01*
X129175000Y-84807078D02*
X129175000Y-83820000D01*
X131445000Y-99441000D02*
X129794000Y-101092000D01*
X129794000Y-101092000D02*
X129794000Y-102124000D01*
X131445000Y-96775000D02*
X131445000Y-99441000D01*
X130175000Y-90043000D02*
X130175000Y-87375000D01*
X120650000Y-74422000D02*
X120650000Y-71561032D01*
D28*
X130175000Y-87375000D02*
X130175000Y-86700000D01*
X130175000Y-86700000D02*
X130048000Y-86573000D01*
X150495000Y-73027969D02*
X150406586Y-72939555D01*
D29*
X150495000Y-88679020D02*
X150495000Y-73027969D01*
D28*
X146431000Y-89154000D02*
X146304000Y-89281000D01*
D30*
X146431000Y-88646000D02*
X146431000Y-89154000D01*
D31*
X146431000Y-88646000D02*
X150461980Y-88646000D01*
X150461980Y-88646000D02*
X150495000Y-88679020D01*
D29*
X125095000Y-87375000D02*
X125095000Y-85743887D01*
X121787016Y-70111012D02*
X123190000Y-71513996D01*
X125095000Y-85743887D02*
X118452742Y-79101629D01*
X118452742Y-79101629D02*
X118452742Y-71171254D01*
X118452742Y-71171254D02*
X119512984Y-70111012D01*
X119512984Y-70111012D02*
X121787016Y-70111012D01*
X123190000Y-71513996D02*
X123190000Y-73007787D01*
X123190000Y-73007787D02*
X123190000Y-74422000D01*
D30*
X125095000Y-87375000D02*
X125114780Y-87355220D01*
D29*
X126365000Y-87375000D02*
X126365000Y-85178015D01*
X126365000Y-85178015D02*
X120650000Y-79463015D01*
X120650000Y-79463015D02*
X120650000Y-78325600D01*
X120650000Y-78325600D02*
X120650000Y-76962000D01*
D28*
X120650000Y-77470000D02*
X120637896Y-77482104D01*
X120637896Y-77482104D02*
X120612241Y-77482104D01*
X120612241Y-77482104D02*
X120647143Y-77517006D01*
D29*
X123170283Y-77489717D02*
X123170283Y-80387265D01*
X127635000Y-84851982D02*
X127635000Y-87375000D01*
X123170283Y-80387265D02*
X127635000Y-84851982D01*
D28*
X123190000Y-77470000D02*
X123170283Y-77489717D01*
D29*
X125730000Y-79886184D02*
X125706117Y-79910067D01*
X125730000Y-76962000D02*
X125730000Y-79886184D01*
X136525000Y-87375000D02*
X136525000Y-81446267D01*
X136191368Y-81112635D02*
X135191369Y-80112636D01*
X136525000Y-81446267D02*
X136191368Y-81112635D01*
D31*
X150495000Y-67310000D02*
X152400000Y-67310000D01*
X152400000Y-67310000D02*
X154305000Y-69215000D01*
X154305000Y-69215000D02*
X154305000Y-106045000D01*
X154305000Y-106045000D02*
X151130000Y-109220000D01*
X151130000Y-109220000D02*
X143510000Y-109220000D01*
D29*
X136525000Y-96775000D02*
X139413968Y-96775000D01*
X139413968Y-96775000D02*
X141190968Y-98552000D01*
X141190968Y-98552000D02*
X144272000Y-98552000D01*
X144846000Y-98552000D02*
X144272000Y-98552000D01*
X144272000Y-98552000D02*
X141986000Y-98552000D01*
D30*
X136590000Y-96840000D02*
X136525000Y-96775000D01*
D29*
X135316000Y-100076000D02*
X135316000Y-96836000D01*
D28*
X135316000Y-96836000D02*
X135255000Y-96775000D01*
D29*
X133416000Y-100076000D02*
X133416000Y-103312000D01*
D28*
X133416000Y-103312000D02*
X133350000Y-103378000D01*
D29*
X146685000Y-102108000D02*
X146685000Y-98613000D01*
X146685000Y-98613000D02*
X146746000Y-98552000D01*
X120015000Y-101854000D02*
X120015000Y-100147305D01*
X120015000Y-100147305D02*
X120427178Y-99735127D01*
X120427178Y-99735127D02*
X120427178Y-98586822D01*
X120427178Y-98586822D02*
X120462000Y-98552000D01*
D32*
G36*
X154490420Y-67795288D02*
X153202566Y-66507434D01*
X153085181Y-66429000D01*
X152834346Y-66261397D01*
X152400000Y-66175000D01*
X151669284Y-66175000D01*
X150911552Y-65860362D01*
X150082087Y-65859638D01*
X149315485Y-66176392D01*
X148728453Y-66762400D01*
X148410362Y-67528448D01*
X148409638Y-68357913D01*
X148726392Y-69124515D01*
X149312400Y-69711547D01*
X150078448Y-70029638D01*
X150907913Y-70030362D01*
X151674515Y-69713608D01*
X152261547Y-69127600D01*
X152364509Y-68879641D01*
X153170000Y-69685132D01*
X153170000Y-105574868D01*
X150659868Y-108085000D01*
X146062440Y-108085000D01*
X146062440Y-107315000D01*
X146018162Y-107079683D01*
X145879090Y-106863559D01*
X145666890Y-106718569D01*
X145415000Y-106667560D01*
X141605000Y-106667560D01*
X141369683Y-106711838D01*
X141153559Y-106850910D01*
X141008569Y-107063110D01*
X140957560Y-107315000D01*
X140957560Y-108685807D01*
X140584563Y-107783085D01*
X140343003Y-107541104D01*
X141593107Y-106291000D01*
X148426680Y-106291000D01*
X148861026Y-106204603D01*
X149229246Y-105958566D01*
X150027566Y-105160246D01*
X150091825Y-105064076D01*
X150273603Y-104792026D01*
X150360000Y-104357680D01*
X150360000Y-103391425D01*
X150505100Y-103174268D01*
X150506950Y-103164968D01*
X150533501Y-103254677D01*
X150875056Y-103676658D01*
X151352097Y-103935810D01*
X151423725Y-103949993D01*
X151638000Y-103827339D01*
X151638000Y-102235000D01*
X151892000Y-102235000D01*
X151892000Y-103827339D01*
X152106275Y-103949993D01*
X152177903Y-103935810D01*
X152654944Y-103676658D01*
X152996499Y-103254677D01*
X153150570Y-102734110D01*
X153150570Y-102235000D01*
X151892000Y-102235000D01*
X151638000Y-102235000D01*
X151618000Y-102235000D01*
X151618000Y-101981000D01*
X151638000Y-101981000D01*
X151638000Y-100388661D01*
X151892000Y-100388661D01*
X151892000Y-101981000D01*
X153150570Y-101981000D01*
X153150570Y-101481890D01*
X152996499Y-100961323D01*
X152654944Y-100539342D01*
X152177903Y-100280190D01*
X152106275Y-100266007D01*
X151892000Y-100388661D01*
X151638000Y-100388661D01*
X151423725Y-100266007D01*
X151352097Y-100280190D01*
X150875056Y-100539342D01*
X150533501Y-100961323D01*
X150506950Y-101051032D01*
X150505100Y-101041732D01*
X150204746Y-100592221D01*
X149755235Y-100291867D01*
X149225000Y-100186397D01*
X148694765Y-100291867D01*
X148245254Y-100592221D01*
X147955000Y-101026616D01*
X147664746Y-100592221D01*
X147570000Y-100528914D01*
X147570000Y-99633074D01*
X147692431Y-99453890D01*
X147743440Y-99202000D01*
X147743440Y-97902000D01*
X147699162Y-97666683D01*
X147560090Y-97450559D01*
X147347890Y-97305569D01*
X147096000Y-97254560D01*
X146396000Y-97254560D01*
X146160683Y-97298838D01*
X145944559Y-97437910D01*
X145799569Y-97650110D01*
X145796919Y-97663197D01*
X145660090Y-97450559D01*
X145447890Y-97305569D01*
X145196000Y-97254560D01*
X144496000Y-97254560D01*
X144260683Y-97298838D01*
X144044559Y-97437910D01*
X143899569Y-97650110D01*
X143896149Y-97667000D01*
X141557547Y-97667000D01*
X140039758Y-96149210D01*
X139752643Y-95957367D01*
X139696452Y-95946190D01*
X139413968Y-95889999D01*
X139413963Y-95890000D01*
X137472440Y-95890000D01*
X137472440Y-95800000D01*
X137428162Y-95564683D01*
X137289090Y-95348559D01*
X137076890Y-95203569D01*
X136825000Y-95152560D01*
X136225000Y-95152560D01*
X135989683Y-95196838D01*
X135890472Y-95260678D01*
X135806890Y-95203569D01*
X135555000Y-95152560D01*
X134955000Y-95152560D01*
X134719683Y-95196838D01*
X134620472Y-95260678D01*
X134536890Y-95203569D01*
X134285000Y-95152560D01*
X133685000Y-95152560D01*
X133449683Y-95196838D01*
X133350472Y-95260678D01*
X133266890Y-95203569D01*
X133015000Y-95152560D01*
X132663593Y-95152560D01*
X133595691Y-94220461D01*
X141671502Y-94220461D01*
X141668760Y-94234000D01*
X141668760Y-96266000D01*
X141713038Y-96501317D01*
X141852110Y-96717441D01*
X142064310Y-96862431D01*
X142316200Y-96913440D01*
X145973800Y-96913440D01*
X146209117Y-96869162D01*
X146425241Y-96730090D01*
X146570231Y-96517890D01*
X146621240Y-96266000D01*
X146621240Y-94234000D01*
X146576962Y-93998683D01*
X146437890Y-93782559D01*
X146225690Y-93637569D01*
X145973800Y-93586560D01*
X145409020Y-93586560D01*
X145778849Y-93216730D01*
X148959570Y-93216730D01*
X148959570Y-94632089D01*
X149056243Y-94865478D01*
X149234871Y-95044107D01*
X149468260Y-95140780D01*
X150209250Y-95140780D01*
X150368000Y-94982030D01*
X150368000Y-93057980D01*
X150622000Y-93057980D01*
X150622000Y-94982030D01*
X150780750Y-95140780D01*
X151521740Y-95140780D01*
X151755129Y-95044107D01*
X151933757Y-94865478D01*
X152030430Y-94632089D01*
X152030430Y-93216730D01*
X151871680Y-93057980D01*
X150622000Y-93057980D01*
X150368000Y-93057980D01*
X149118320Y-93057980D01*
X148959570Y-93216730D01*
X145778849Y-93216730D01*
X146929787Y-92065792D01*
X146929790Y-92065790D01*
X147121633Y-91778675D01*
X147143934Y-91666560D01*
X147189001Y-91440000D01*
X147189000Y-91439995D01*
X147189000Y-90255714D01*
X147390441Y-90126090D01*
X147535431Y-89913890D01*
X147562342Y-89781000D01*
X148947130Y-89781000D01*
X148947130Y-90253820D01*
X148991408Y-90489137D01*
X149130480Y-90705261D01*
X149272470Y-90802279D01*
X149234871Y-90817853D01*
X149056243Y-90996482D01*
X148959570Y-91229871D01*
X148959570Y-92645230D01*
X149118320Y-92803980D01*
X150368000Y-92803980D01*
X150368000Y-92783980D01*
X150622000Y-92783980D01*
X150622000Y-92803980D01*
X151871680Y-92803980D01*
X152030430Y-92645230D01*
X152030430Y-91229871D01*
X151933757Y-90996482D01*
X151755129Y-90817853D01*
X151716452Y-90801832D01*
X151846871Y-90717910D01*
X151991861Y-90505710D01*
X152042870Y-90253820D01*
X152042870Y-87104220D01*
X151998592Y-86868903D01*
X151859520Y-86652779D01*
X151647320Y-86507789D01*
X151395430Y-86456780D01*
X151380000Y-86456780D01*
X151380000Y-74278063D01*
X151791864Y-73866918D01*
X152041302Y-73266203D01*
X152041870Y-72615760D01*
X151793480Y-72014612D01*
X151333949Y-71554277D01*
X150733234Y-71304839D01*
X150082791Y-71304271D01*
X149481643Y-71552661D01*
X149021308Y-72012192D01*
X148771870Y-72612907D01*
X148771302Y-73263350D01*
X149019692Y-73864498D01*
X149479223Y-74324833D01*
X149610000Y-74379136D01*
X149610000Y-86456780D01*
X149594570Y-86456780D01*
X149359253Y-86501058D01*
X149143129Y-86640130D01*
X148998139Y-86852330D01*
X148947130Y-87104220D01*
X148947130Y-87511000D01*
X147564049Y-87511000D01*
X147542162Y-87394683D01*
X147403090Y-87178559D01*
X147190890Y-87033569D01*
X146939000Y-86982560D01*
X145923000Y-86982560D01*
X145687683Y-87026838D01*
X145471559Y-87165910D01*
X145326569Y-87378110D01*
X145288000Y-87568569D01*
X145288000Y-87503690D01*
X145191327Y-87270301D01*
X145012698Y-87091673D01*
X144779309Y-86995000D01*
X144430750Y-86995000D01*
X144272000Y-87153750D01*
X144272000Y-88519000D01*
X144292000Y-88519000D01*
X144292000Y-88773000D01*
X144272000Y-88773000D01*
X144272000Y-90138250D01*
X144430750Y-90297000D01*
X144779309Y-90297000D01*
X145012698Y-90200327D01*
X145191327Y-90021699D01*
X145288000Y-89788310D01*
X145288000Y-89728113D01*
X145319838Y-89897317D01*
X145419000Y-90051419D01*
X145419000Y-91073421D01*
X144041959Y-92450461D01*
X133229112Y-92450461D01*
X132890437Y-92517828D01*
X132603322Y-92709671D01*
X132603320Y-92709674D01*
X130819210Y-94493783D01*
X130627367Y-94780898D01*
X130627367Y-94780899D01*
X130559999Y-95119573D01*
X130560000Y-95119578D01*
X130560000Y-95165000D01*
X130460750Y-95165000D01*
X130302000Y-95323750D01*
X130302000Y-96648000D01*
X130322000Y-96648000D01*
X130322000Y-96902000D01*
X130302000Y-96902000D01*
X130302000Y-98226250D01*
X130460750Y-98385000D01*
X130560000Y-98385000D01*
X130560000Y-99074421D01*
X129168210Y-100466210D01*
X128976367Y-100753325D01*
X128969523Y-100787732D01*
X128921609Y-101028608D01*
X128717559Y-101159910D01*
X128572569Y-101372110D01*
X128521560Y-101624000D01*
X128521560Y-102624000D01*
X128565838Y-102859317D01*
X128704910Y-103075441D01*
X128773006Y-103121969D01*
X128630673Y-103264302D01*
X128534000Y-103497691D01*
X128534000Y-103838250D01*
X128692750Y-103997000D01*
X129667000Y-103997000D01*
X129667000Y-103977000D01*
X129921000Y-103977000D01*
X129921000Y-103997000D01*
X130895250Y-103997000D01*
X131054000Y-103838250D01*
X131054000Y-103497691D01*
X130957327Y-103264302D01*
X130816090Y-103123064D01*
X130870441Y-103088090D01*
X131015431Y-102875890D01*
X131066440Y-102624000D01*
X131066440Y-101624000D01*
X131022162Y-101388683D01*
X130915169Y-101222411D01*
X132070787Y-100066792D01*
X132070790Y-100066790D01*
X132216018Y-99849440D01*
X132262634Y-99779674D01*
X132330001Y-99441000D01*
X132330000Y-99440995D01*
X132330000Y-98380227D01*
X132415000Y-98397440D01*
X133015000Y-98397440D01*
X133250317Y-98353162D01*
X133349528Y-98289322D01*
X133433110Y-98346431D01*
X133685000Y-98397440D01*
X134285000Y-98397440D01*
X134431000Y-98369968D01*
X134431000Y-99084203D01*
X134369569Y-99174110D01*
X134366919Y-99187197D01*
X134230090Y-98974559D01*
X134017890Y-98829569D01*
X133766000Y-98778560D01*
X133066000Y-98778560D01*
X132830683Y-98822838D01*
X132614559Y-98961910D01*
X132469569Y-99174110D01*
X132418560Y-99426000D01*
X132418560Y-100726000D01*
X132462838Y-100961317D01*
X132531000Y-101067244D01*
X132531000Y-101754814D01*
X132370254Y-101862221D01*
X132069900Y-102311732D01*
X131964430Y-102841967D01*
X131964430Y-103914033D01*
X132069900Y-104444268D01*
X132370254Y-104893779D01*
X132819765Y-105194133D01*
X133350000Y-105299603D01*
X133880235Y-105194133D01*
X134329746Y-104893779D01*
X134620000Y-104459384D01*
X134755000Y-104661425D01*
X134755000Y-106209867D01*
X134159151Y-106805717D01*
X133857454Y-106680441D01*
X132846979Y-106679560D01*
X131913085Y-107065437D01*
X131197948Y-107779327D01*
X130810441Y-108712546D01*
X130810437Y-108716972D01*
X130424563Y-107783085D01*
X129710673Y-107067948D01*
X128777454Y-106680441D01*
X127766979Y-106679560D01*
X126833085Y-107065437D01*
X126117948Y-107779327D01*
X126007169Y-108046113D01*
X123690000Y-105728944D01*
X123690000Y-104409750D01*
X128534000Y-104409750D01*
X128534000Y-104750309D01*
X128630673Y-104983698D01*
X128809301Y-105162327D01*
X129042690Y-105259000D01*
X129508250Y-105259000D01*
X129667000Y-105100250D01*
X129667000Y-104251000D01*
X129921000Y-104251000D01*
X129921000Y-105100250D01*
X130079750Y-105259000D01*
X130545310Y-105259000D01*
X130778699Y-105162327D01*
X130957327Y-104983698D01*
X131054000Y-104750309D01*
X131054000Y-104409750D01*
X130895250Y-104251000D01*
X129921000Y-104251000D01*
X129667000Y-104251000D01*
X128692750Y-104251000D01*
X128534000Y-104409750D01*
X123690000Y-104409750D01*
X123690000Y-103137425D01*
X123835100Y-102920268D01*
X123836950Y-102910968D01*
X123863501Y-103000677D01*
X124205056Y-103422658D01*
X124682097Y-103681810D01*
X124753725Y-103695993D01*
X124968000Y-103573339D01*
X124968000Y-101981000D01*
X125222000Y-101981000D01*
X125222000Y-103573339D01*
X125436275Y-103695993D01*
X125507903Y-103681810D01*
X125984944Y-103422658D01*
X126326499Y-103000677D01*
X126480570Y-102480110D01*
X126480570Y-101981000D01*
X125222000Y-101981000D01*
X124968000Y-101981000D01*
X124948000Y-101981000D01*
X124948000Y-101727000D01*
X124968000Y-101727000D01*
X124968000Y-100134661D01*
X125222000Y-100134661D01*
X125222000Y-101727000D01*
X126480570Y-101727000D01*
X126480570Y-101227890D01*
X126326499Y-100707323D01*
X125984944Y-100285342D01*
X125507903Y-100026190D01*
X125436275Y-100012007D01*
X125222000Y-100134661D01*
X124968000Y-100134661D01*
X124753725Y-100012007D01*
X124682097Y-100026190D01*
X124205056Y-100285342D01*
X123863501Y-100707323D01*
X123836950Y-100797032D01*
X123835100Y-100787732D01*
X123534746Y-100338221D01*
X123085235Y-100037867D01*
X122555000Y-99932397D01*
X122024765Y-100037867D01*
X121575254Y-100338221D01*
X121285000Y-100772616D01*
X121027157Y-100386727D01*
X121052965Y-100360919D01*
X121052968Y-100360917D01*
X121244811Y-100073802D01*
X121257103Y-100012007D01*
X121312179Y-99735127D01*
X121312178Y-99735122D01*
X121312178Y-99594761D01*
X121408431Y-99453890D01*
X121411081Y-99440803D01*
X121547910Y-99653441D01*
X121760110Y-99798431D01*
X122012000Y-99849440D01*
X122712000Y-99849440D01*
X122947317Y-99805162D01*
X123163441Y-99666090D01*
X123221516Y-99581095D01*
X123326208Y-99685787D01*
X123326210Y-99685790D01*
X123510056Y-99808631D01*
X123613325Y-99877633D01*
X123952000Y-99945000D01*
X127253995Y-99945000D01*
X127254000Y-99945001D01*
X127536484Y-99888810D01*
X127592675Y-99877633D01*
X127879790Y-99685790D01*
X127879791Y-99685789D01*
X128260787Y-99304792D01*
X128260790Y-99304790D01*
X128452633Y-99017675D01*
X128520000Y-98679000D01*
X128520000Y-98380227D01*
X128605000Y-98397440D01*
X129205000Y-98397440D01*
X129440317Y-98353162D01*
X129530980Y-98294822D01*
X129748690Y-98385000D01*
X129889250Y-98385000D01*
X130048000Y-98226250D01*
X130048000Y-96902000D01*
X130028000Y-96902000D01*
X130028000Y-96648000D01*
X130048000Y-96648000D01*
X130048000Y-95323750D01*
X129889250Y-95165000D01*
X129748690Y-95165000D01*
X129531878Y-95254806D01*
X129456890Y-95203569D01*
X129205000Y-95152560D01*
X128605000Y-95152560D01*
X128369683Y-95196838D01*
X128270472Y-95260678D01*
X128186890Y-95203569D01*
X127935000Y-95152560D01*
X127335000Y-95152560D01*
X127099683Y-95196838D01*
X127000472Y-95260678D01*
X126916890Y-95203569D01*
X126665000Y-95152560D01*
X126065000Y-95152560D01*
X125829683Y-95196838D01*
X125730472Y-95260678D01*
X125646890Y-95203569D01*
X125395000Y-95152560D01*
X124795000Y-95152560D01*
X124559683Y-95196838D01*
X124343559Y-95335910D01*
X124198569Y-95548110D01*
X124147560Y-95800000D01*
X124147560Y-97750000D01*
X124191838Y-97985317D01*
X124305442Y-98161862D01*
X124069790Y-97926210D01*
X123873968Y-97795367D01*
X123782675Y-97734367D01*
X123726484Y-97723190D01*
X123444000Y-97666999D01*
X123443995Y-97667000D01*
X123315222Y-97667000D01*
X123315162Y-97666683D01*
X123176090Y-97450559D01*
X122963890Y-97305569D01*
X122712000Y-97254560D01*
X122012000Y-97254560D01*
X121776683Y-97298838D01*
X121560559Y-97437910D01*
X121415569Y-97650110D01*
X121412919Y-97663197D01*
X121276090Y-97450559D01*
X121063890Y-97305569D01*
X120812000Y-97254560D01*
X120112000Y-97254560D01*
X119876683Y-97298838D01*
X119660559Y-97437910D01*
X119515569Y-97650110D01*
X119464560Y-97902000D01*
X119464560Y-99202000D01*
X119503227Y-99407498D01*
X119389210Y-99521515D01*
X119197367Y-99808630D01*
X119197367Y-99808631D01*
X119129999Y-100147305D01*
X119130000Y-100147310D01*
X119130000Y-100274914D01*
X119035254Y-100338221D01*
X118734900Y-100787732D01*
X118629430Y-101317967D01*
X118629430Y-102390033D01*
X118734900Y-102920268D01*
X119035254Y-103369779D01*
X119484765Y-103670133D01*
X120015000Y-103775603D01*
X120545235Y-103670133D01*
X120994746Y-103369779D01*
X121285000Y-102935384D01*
X121420000Y-103137425D01*
X121420000Y-106199076D01*
X121506397Y-106633422D01*
X121617950Y-106800372D01*
X121752434Y-107001642D01*
X124773358Y-110022566D01*
X125141579Y-110268604D01*
X125575924Y-110355000D01*
X125990688Y-110355000D01*
X126115437Y-110656915D01*
X126829327Y-111372052D01*
X127762546Y-111759559D01*
X128773021Y-111760440D01*
X129706915Y-111374563D01*
X130422052Y-110660673D01*
X130809559Y-109727454D01*
X130809563Y-109723028D01*
X131195437Y-110656915D01*
X131909327Y-111372052D01*
X132842546Y-111759559D01*
X133853021Y-111760440D01*
X134786915Y-111374563D01*
X135502052Y-110660673D01*
X135889559Y-109727454D01*
X135889563Y-109723028D01*
X136275437Y-110656915D01*
X136989327Y-111372052D01*
X137922546Y-111759559D01*
X138933021Y-111760440D01*
X139866915Y-111374563D01*
X140582052Y-110660673D01*
X140957560Y-109756351D01*
X140957560Y-111125000D01*
X141001838Y-111360317D01*
X141140910Y-111576441D01*
X141353110Y-111721431D01*
X141605000Y-111772440D01*
X145415000Y-111772440D01*
X145650317Y-111728162D01*
X145866441Y-111589090D01*
X146011431Y-111376890D01*
X146062440Y-111125000D01*
X146062440Y-110355000D01*
X151130000Y-110355000D01*
X151564346Y-110268603D01*
X151932566Y-110022566D01*
X154490420Y-107464712D01*
X154490420Y-111950500D01*
X116141500Y-111950500D01*
X116141500Y-91761080D01*
X117970208Y-93589787D01*
X117970210Y-93589790D01*
X118257325Y-93781633D01*
X118313516Y-93792810D01*
X118488765Y-93827670D01*
X118492838Y-93849317D01*
X118631910Y-94065441D01*
X118844110Y-94210431D01*
X119096000Y-94261440D01*
X119796000Y-94261440D01*
X120031317Y-94217162D01*
X120247441Y-94078090D01*
X120392431Y-93865890D01*
X120395081Y-93852803D01*
X120531910Y-94065441D01*
X120744110Y-94210431D01*
X120996000Y-94261440D01*
X121696000Y-94261440D01*
X121931317Y-94217162D01*
X122147441Y-94078090D01*
X122292431Y-93865890D01*
X122295851Y-93849000D01*
X129031995Y-93849000D01*
X129032000Y-93849001D01*
X129314484Y-93792810D01*
X129370675Y-93781633D01*
X129657790Y-93589790D01*
X131938579Y-91309000D01*
X134619995Y-91309000D01*
X134620000Y-91309001D01*
X134902484Y-91252810D01*
X134958675Y-91241633D01*
X135245790Y-91049790D01*
X135245791Y-91049789D01*
X135880787Y-90414792D01*
X135880790Y-90414790D01*
X136044353Y-90170000D01*
X136072634Y-90127674D01*
X136140001Y-89789000D01*
X136140000Y-89788995D01*
X136140000Y-88980227D01*
X136225000Y-88997440D01*
X136825000Y-88997440D01*
X137060317Y-88953162D01*
X137276441Y-88814090D01*
X137421431Y-88601890D01*
X137472440Y-88350000D01*
X137472440Y-86400000D01*
X137428162Y-86164683D01*
X137410000Y-86136458D01*
X137410000Y-81446272D01*
X137410001Y-81446267D01*
X137342633Y-81107593D01*
X137342633Y-81107592D01*
X137150790Y-80820477D01*
X137150787Y-80820475D01*
X136817158Y-80486845D01*
X136817155Y-80486843D01*
X136809511Y-80479199D01*
X136826085Y-80439284D01*
X136826326Y-80163060D01*
X136949774Y-80245545D01*
X137005965Y-80256722D01*
X137288449Y-80312913D01*
X137288454Y-80312912D01*
X141353963Y-80312912D01*
X141353968Y-80312913D01*
X141636452Y-80256722D01*
X141692643Y-80245545D01*
X141979758Y-80053702D01*
X141979759Y-80053701D01*
X142945317Y-79088142D01*
X142985232Y-79104716D01*
X143635675Y-79105284D01*
X144236823Y-78856894D01*
X144697158Y-78397363D01*
X144946596Y-77796648D01*
X144947164Y-77146205D01*
X144698774Y-76545057D01*
X144239243Y-76084722D01*
X143638528Y-75835284D01*
X142988085Y-75834716D01*
X142386937Y-76083106D01*
X142348006Y-76121969D01*
X141926991Y-75700954D01*
X142046441Y-75624090D01*
X142191431Y-75411890D01*
X142242440Y-75160000D01*
X142242440Y-74160000D01*
X142198162Y-73924683D01*
X142059090Y-73708559D01*
X141990994Y-73662031D01*
X142133327Y-73519698D01*
X142230000Y-73286309D01*
X142230000Y-72945750D01*
X142071250Y-72787000D01*
X141097000Y-72787000D01*
X141097000Y-72807000D01*
X140843000Y-72807000D01*
X140843000Y-72787000D01*
X139868750Y-72787000D01*
X139710000Y-72945750D01*
X139710000Y-73286309D01*
X139806673Y-73519698D01*
X139947910Y-73660936D01*
X139893559Y-73695910D01*
X139748569Y-73908110D01*
X139697560Y-74160000D01*
X139697560Y-75160000D01*
X139741838Y-75395317D01*
X139880910Y-75611441D01*
X140085000Y-75750890D01*
X140085000Y-75995537D01*
X140084999Y-75995542D01*
X140114603Y-76144367D01*
X140152367Y-76334217D01*
X140291628Y-76542637D01*
X140344210Y-76621332D01*
X141626590Y-77903711D01*
X140987388Y-78542912D01*
X139669474Y-78542912D01*
X139815278Y-78397363D01*
X140064716Y-77796648D01*
X140065284Y-77146205D01*
X139816894Y-76545057D01*
X139357363Y-76084722D01*
X139315000Y-76067131D01*
X139315000Y-76018502D01*
X139315001Y-76018497D01*
X139247634Y-75679823D01*
X139128796Y-75501969D01*
X139055790Y-75392707D01*
X139055787Y-75392705D01*
X139026289Y-75363207D01*
X139067440Y-75160000D01*
X139067440Y-74160000D01*
X139023162Y-73924683D01*
X138884090Y-73708559D01*
X138815994Y-73662031D01*
X138958327Y-73519698D01*
X139055000Y-73286309D01*
X139055000Y-72945750D01*
X138896250Y-72787000D01*
X137922000Y-72787000D01*
X137922000Y-72807000D01*
X137668000Y-72807000D01*
X137668000Y-72787000D01*
X136693750Y-72787000D01*
X136535000Y-72945750D01*
X136535000Y-73286309D01*
X136631673Y-73519698D01*
X136772910Y-73660936D01*
X136718559Y-73695910D01*
X136573569Y-73908110D01*
X136522560Y-74160000D01*
X136522560Y-75160000D01*
X136566838Y-75395317D01*
X136705910Y-75611441D01*
X136918110Y-75756431D01*
X137013113Y-75775670D01*
X137091361Y-75892777D01*
X137169210Y-76009287D01*
X137192183Y-76032260D01*
X133946422Y-76032260D01*
X133946417Y-76032259D01*
X133690798Y-76083106D01*
X133607742Y-76099627D01*
X133320627Y-76291470D01*
X133320625Y-76291473D01*
X132089210Y-77522887D01*
X131897367Y-77810002D01*
X131897367Y-77810003D01*
X131829999Y-78148677D01*
X131830000Y-78148682D01*
X131830000Y-82571884D01*
X131801309Y-82560000D01*
X131460750Y-82560000D01*
X131302000Y-82718750D01*
X131302000Y-83693000D01*
X131322000Y-83693000D01*
X131322000Y-83947000D01*
X131302000Y-83947000D01*
X131302000Y-84921250D01*
X131460750Y-85080000D01*
X131801309Y-85080000D01*
X131830000Y-85068116D01*
X131830000Y-85765000D01*
X131730750Y-85765000D01*
X131572000Y-85923750D01*
X131572000Y-87248000D01*
X131592000Y-87248000D01*
X131592000Y-87502000D01*
X131572000Y-87502000D01*
X131572000Y-88826250D01*
X131730750Y-88985000D01*
X131871310Y-88985000D01*
X132088122Y-88895194D01*
X132163110Y-88946431D01*
X132415000Y-88997440D01*
X133015000Y-88997440D01*
X133250317Y-88953162D01*
X133349528Y-88889322D01*
X133433110Y-88946431D01*
X133685000Y-88997440D01*
X134285000Y-88997440D01*
X134370000Y-88981446D01*
X134370000Y-89422421D01*
X134253420Y-89539000D01*
X131572000Y-89539000D01*
X131233325Y-89606367D01*
X131060000Y-89722178D01*
X131060000Y-88985000D01*
X131159250Y-88985000D01*
X131318000Y-88826250D01*
X131318000Y-87502000D01*
X131298000Y-87502000D01*
X131298000Y-87248000D01*
X131318000Y-87248000D01*
X131318000Y-85923750D01*
X131159250Y-85765000D01*
X131050899Y-85765000D01*
X131001506Y-85516690D01*
X130991719Y-85467489D01*
X130799876Y-85180374D01*
X130799873Y-85180372D01*
X130699501Y-85080000D01*
X130889250Y-85080000D01*
X131048000Y-84921250D01*
X131048000Y-83947000D01*
X131028000Y-83947000D01*
X131028000Y-83693000D01*
X131048000Y-83693000D01*
X131048000Y-82718750D01*
X130889250Y-82560000D01*
X130548691Y-82560000D01*
X130315302Y-82656673D01*
X130174064Y-82797910D01*
X130139090Y-82743559D01*
X130060000Y-82689519D01*
X130060000Y-73746857D01*
X130991635Y-73746857D01*
X131008139Y-73786800D01*
X131467670Y-74247135D01*
X132068385Y-74496573D01*
X132718828Y-74497141D01*
X133319976Y-74248751D01*
X133780311Y-73789220D01*
X134029749Y-73188505D01*
X134030317Y-72538062D01*
X133821915Y-72033691D01*
X136535000Y-72033691D01*
X136535000Y-72374250D01*
X136693750Y-72533000D01*
X137668000Y-72533000D01*
X137668000Y-71683750D01*
X137922000Y-71683750D01*
X137922000Y-72533000D01*
X138896250Y-72533000D01*
X139055000Y-72374250D01*
X139055000Y-72033691D01*
X139710000Y-72033691D01*
X139710000Y-72374250D01*
X139868750Y-72533000D01*
X140843000Y-72533000D01*
X140843000Y-71683750D01*
X141097000Y-71683750D01*
X141097000Y-72533000D01*
X142071250Y-72533000D01*
X142230000Y-72374250D01*
X142230000Y-72033691D01*
X142133327Y-71800302D01*
X141954699Y-71621673D01*
X141721310Y-71525000D01*
X141255750Y-71525000D01*
X141097000Y-71683750D01*
X140843000Y-71683750D01*
X140684250Y-71525000D01*
X140218690Y-71525000D01*
X139985301Y-71621673D01*
X139806673Y-71800302D01*
X139710000Y-72033691D01*
X139055000Y-72033691D01*
X138958327Y-71800302D01*
X138779699Y-71621673D01*
X138546310Y-71525000D01*
X138080750Y-71525000D01*
X137922000Y-71683750D01*
X137668000Y-71683750D01*
X137509250Y-71525000D01*
X137043690Y-71525000D01*
X136810301Y-71621673D01*
X136631673Y-71800302D01*
X136535000Y-72033691D01*
X133821915Y-72033691D01*
X133781927Y-71936914D01*
X133322396Y-71476579D01*
X132721681Y-71227141D01*
X132071238Y-71226573D01*
X131470090Y-71474963D01*
X131009755Y-71934494D01*
X130992164Y-71976857D01*
X130306934Y-71976857D01*
X130318982Y-71947841D01*
X130319550Y-71297398D01*
X130071160Y-70696250D01*
X129611629Y-70235915D01*
X129010914Y-69986477D01*
X128360471Y-69985909D01*
X127759323Y-70234299D01*
X127298988Y-70693830D01*
X127049550Y-71294545D01*
X127048982Y-71944988D01*
X127297372Y-72546136D01*
X127756903Y-73006471D01*
X128290000Y-73227832D01*
X128290000Y-82688156D01*
X128223559Y-82730910D01*
X128078569Y-82943110D01*
X128027560Y-83195000D01*
X128027560Y-83992963D01*
X125579555Y-81544958D01*
X126029912Y-81545351D01*
X126631060Y-81296961D01*
X127091395Y-80837430D01*
X127340833Y-80236715D01*
X127341401Y-79586272D01*
X127093011Y-78985124D01*
X126633480Y-78524789D01*
X126615000Y-78517115D01*
X126615000Y-78331308D01*
X126886120Y-78150152D01*
X127240543Y-77619719D01*
X127365000Y-76994032D01*
X127365000Y-76929968D01*
X127240543Y-76304281D01*
X126886120Y-75773848D01*
X126737514Y-75674553D01*
X127053505Y-75381994D01*
X127320133Y-74802435D01*
X127201319Y-74549000D01*
X125857000Y-74549000D01*
X125857000Y-74569000D01*
X125603000Y-74569000D01*
X125603000Y-74549000D01*
X125583000Y-74549000D01*
X125583000Y-74295000D01*
X125603000Y-74295000D01*
X125603000Y-72951223D01*
X125857000Y-72951223D01*
X125857000Y-74295000D01*
X127201319Y-74295000D01*
X127320133Y-74041565D01*
X127053505Y-73462006D01*
X126585385Y-73028598D01*
X126110434Y-72831876D01*
X125857000Y-72951223D01*
X125603000Y-72951223D01*
X125349566Y-72831876D01*
X124874615Y-73028598D01*
X124463379Y-73409340D01*
X124346120Y-73233848D01*
X124075000Y-73052692D01*
X124075000Y-71514001D01*
X124075001Y-71513996D01*
X124007633Y-71175322D01*
X124007633Y-71175321D01*
X123815790Y-70888206D01*
X122412806Y-69485222D01*
X122331981Y-69431217D01*
X122125691Y-69293379D01*
X122069500Y-69282202D01*
X122063489Y-69281006D01*
X122110031Y-69212890D01*
X122118400Y-69171561D01*
X122130330Y-69189415D01*
X122616511Y-69514271D01*
X123190000Y-69628345D01*
X123763489Y-69514271D01*
X124249670Y-69189415D01*
X124460000Y-68874634D01*
X124670330Y-69189415D01*
X125156511Y-69514271D01*
X125730000Y-69628345D01*
X126303489Y-69514271D01*
X126789670Y-69189415D01*
X126996461Y-68879931D01*
X127367964Y-69295732D01*
X127895209Y-69549709D01*
X127910974Y-69552358D01*
X128143000Y-69431217D01*
X128143000Y-68072000D01*
X128397000Y-68072000D01*
X128397000Y-69431217D01*
X128629026Y-69552358D01*
X128644791Y-69549709D01*
X129172036Y-69295732D01*
X129561954Y-68859320D01*
X129737344Y-68357913D01*
X133169638Y-68357913D01*
X133486392Y-69124515D01*
X134072400Y-69711547D01*
X134838448Y-70029638D01*
X135667913Y-70030362D01*
X136434515Y-69713608D01*
X136725782Y-69422849D01*
X139036756Y-69422849D01*
X139190435Y-69736424D01*
X139963108Y-70038066D01*
X140792398Y-70021058D01*
X141479565Y-69736424D01*
X141633244Y-69422849D01*
X140335000Y-68124605D01*
X139036756Y-69422849D01*
X136725782Y-69422849D01*
X137021547Y-69127600D01*
X137339638Y-68361552D01*
X137340326Y-67573108D01*
X138241934Y-67573108D01*
X138258942Y-68402398D01*
X138543576Y-69089565D01*
X138857151Y-69243244D01*
X140155395Y-67945000D01*
X138857151Y-66646756D01*
X138543576Y-66800435D01*
X138241934Y-67573108D01*
X137340326Y-67573108D01*
X137340362Y-67532087D01*
X137023608Y-66765485D01*
X136725795Y-66467151D01*
X139036756Y-66467151D01*
X140335000Y-67765395D01*
X141633244Y-66467151D01*
X141479565Y-66153576D01*
X140706892Y-65851934D01*
X139877602Y-65868942D01*
X139190435Y-66153576D01*
X139036756Y-66467151D01*
X136725795Y-66467151D01*
X136437600Y-66178453D01*
X136231299Y-66092789D01*
X136669088Y-65655000D01*
X141238420Y-65655000D01*
X141990000Y-66406579D01*
X141990000Y-66733575D01*
X141812849Y-66646756D01*
X140514605Y-67945000D01*
X141812849Y-69243244D01*
X141990000Y-69156425D01*
X141990000Y-69849995D01*
X141989999Y-69850000D01*
X142025732Y-70029638D01*
X142057367Y-70188675D01*
X142167580Y-70353621D01*
X142249210Y-70475790D01*
X146493148Y-74719727D01*
X146493148Y-81421421D01*
X145741568Y-82173000D01*
X143163005Y-82173000D01*
X143163000Y-82172999D01*
X142880516Y-82229190D01*
X142824325Y-82240367D01*
X142537210Y-82432210D01*
X142537208Y-82432213D01*
X141376210Y-83593210D01*
X141184367Y-83880325D01*
X141184367Y-83880326D01*
X141118560Y-84211153D01*
X141050559Y-84254910D01*
X140905569Y-84467110D01*
X140854560Y-84719000D01*
X140854560Y-85969000D01*
X140898838Y-86204317D01*
X140974000Y-86321122D01*
X140974000Y-87118009D01*
X140899559Y-87165910D01*
X140754569Y-87378110D01*
X140703560Y-87630000D01*
X140703560Y-89662000D01*
X140747838Y-89897317D01*
X140886910Y-90113441D01*
X141099110Y-90258431D01*
X141351000Y-90309440D01*
X142367000Y-90309440D01*
X142602317Y-90265162D01*
X142818441Y-90126090D01*
X142963431Y-89913890D01*
X143002000Y-89723431D01*
X143002000Y-89788310D01*
X143098673Y-90021699D01*
X143277302Y-90200327D01*
X143510691Y-90297000D01*
X143859250Y-90297000D01*
X144018000Y-90138250D01*
X144018000Y-88773000D01*
X143998000Y-88773000D01*
X143998000Y-88519000D01*
X144018000Y-88519000D01*
X144018000Y-87153750D01*
X143859250Y-86995000D01*
X143510691Y-86995000D01*
X143277302Y-87091673D01*
X143098673Y-87270301D01*
X143002000Y-87503690D01*
X143002000Y-87563887D01*
X142970162Y-87394683D01*
X142831090Y-87178559D01*
X142744000Y-87119053D01*
X142744000Y-86567862D01*
X142953441Y-86433090D01*
X142999969Y-86364994D01*
X143142302Y-86507327D01*
X143375691Y-86604000D01*
X143716250Y-86604000D01*
X143875000Y-86445250D01*
X143875000Y-85471000D01*
X144129000Y-85471000D01*
X144129000Y-86445250D01*
X144287750Y-86604000D01*
X144628309Y-86604000D01*
X144861698Y-86507327D01*
X145040327Y-86328699D01*
X145137000Y-86095310D01*
X145137000Y-85629750D01*
X144978250Y-85471000D01*
X144129000Y-85471000D01*
X143875000Y-85471000D01*
X143855000Y-85471000D01*
X143855000Y-85217000D01*
X143875000Y-85217000D01*
X143875000Y-84242750D01*
X144129000Y-84242750D01*
X144129000Y-85217000D01*
X144978250Y-85217000D01*
X145137000Y-85058250D01*
X145137000Y-84592690D01*
X145040327Y-84359301D01*
X144861698Y-84180673D01*
X144628309Y-84084000D01*
X144287750Y-84084000D01*
X144129000Y-84242750D01*
X143875000Y-84242750D01*
X143716250Y-84084000D01*
X143388579Y-84084000D01*
X143529579Y-83943000D01*
X146108143Y-83943000D01*
X146108148Y-83943001D01*
X146390632Y-83886810D01*
X146446823Y-83875633D01*
X146733938Y-83683790D01*
X146733939Y-83683789D01*
X148003935Y-82413792D01*
X148003938Y-82413790D01*
X148195781Y-82126675D01*
X148221449Y-81997636D01*
X148263149Y-81788000D01*
X148263148Y-81787995D01*
X148263148Y-74353153D01*
X148263149Y-74353148D01*
X148195781Y-74014474D01*
X148195781Y-74014473D01*
X148003938Y-73727358D01*
X148003935Y-73727356D01*
X143760000Y-69483420D01*
X143760000Y-69422849D01*
X144116756Y-69422849D01*
X144270435Y-69736424D01*
X145043108Y-70038066D01*
X145872398Y-70021058D01*
X146559565Y-69736424D01*
X146713244Y-69422849D01*
X145415000Y-68124605D01*
X144116756Y-69422849D01*
X143760000Y-69422849D01*
X143760000Y-69156425D01*
X143937151Y-69243244D01*
X145235395Y-67945000D01*
X145594605Y-67945000D01*
X146892849Y-69243244D01*
X147206424Y-69089565D01*
X147508066Y-68316892D01*
X147491058Y-67487602D01*
X147206424Y-66800435D01*
X146892849Y-66646756D01*
X145594605Y-67945000D01*
X145235395Y-67945000D01*
X143937151Y-66646756D01*
X143760000Y-66733575D01*
X143760000Y-66467151D01*
X144116756Y-66467151D01*
X145415000Y-67765395D01*
X146713244Y-66467151D01*
X146559565Y-66153576D01*
X145786892Y-65851934D01*
X144957602Y-65868942D01*
X144270435Y-66153576D01*
X144116756Y-66467151D01*
X143760000Y-66467151D01*
X143760000Y-66040005D01*
X143760001Y-66040000D01*
X143692633Y-65701325D01*
X143661680Y-65655000D01*
X143500790Y-65414210D01*
X143500787Y-65414208D01*
X142230790Y-64144210D01*
X142222991Y-64138999D01*
X141943675Y-63952367D01*
X141887484Y-63941190D01*
X141605000Y-63884999D01*
X141604995Y-63885000D01*
X136302509Y-63885000D01*
X135963834Y-63952367D01*
X135676719Y-64144210D01*
X135676717Y-64144213D01*
X134629210Y-65191719D01*
X134437367Y-65478834D01*
X134437367Y-65478835D01*
X134369999Y-65817509D01*
X134370000Y-65817514D01*
X134370000Y-66054701D01*
X134075485Y-66176392D01*
X133488453Y-66762400D01*
X133170362Y-67528448D01*
X133169638Y-68357913D01*
X129737344Y-68357913D01*
X129755184Y-68306913D01*
X129610924Y-68072000D01*
X128397000Y-68072000D01*
X128143000Y-68072000D01*
X128123000Y-68072000D01*
X128123000Y-67818000D01*
X128143000Y-67818000D01*
X128143000Y-66458783D01*
X128397000Y-66458783D01*
X128397000Y-67818000D01*
X129610924Y-67818000D01*
X129755184Y-67583087D01*
X129561954Y-67030680D01*
X129172036Y-66594268D01*
X128644791Y-66340291D01*
X128629026Y-66337642D01*
X128397000Y-66458783D01*
X128143000Y-66458783D01*
X127910974Y-66337642D01*
X127895209Y-66340291D01*
X127367964Y-66594268D01*
X126996461Y-67010069D01*
X126789670Y-66700585D01*
X126615000Y-66583874D01*
X126615000Y-66363460D01*
X126547633Y-66024785D01*
X126355790Y-65737670D01*
X126355787Y-65737668D01*
X125016330Y-64398210D01*
X124729215Y-64206367D01*
X124673024Y-64195190D01*
X124390540Y-64138999D01*
X124390535Y-64139000D01*
X117348000Y-64139000D01*
X117009325Y-64206367D01*
X116722210Y-64398210D01*
X116722208Y-64398213D01*
X116141500Y-64978920D01*
X116141500Y-63601600D01*
X154490420Y-63601600D01*
X154490420Y-67795288D01*
X154490420Y-67795288D01*
G37*
X154490420Y-67795288D02*
X153202566Y-66507434D01*
X153085181Y-66429000D01*
X152834346Y-66261397D01*
X152400000Y-66175000D01*
X151669284Y-66175000D01*
X150911552Y-65860362D01*
X150082087Y-65859638D01*
X149315485Y-66176392D01*
X148728453Y-66762400D01*
X148410362Y-67528448D01*
X148409638Y-68357913D01*
X148726392Y-69124515D01*
X149312400Y-69711547D01*
X150078448Y-70029638D01*
X150907913Y-70030362D01*
X151674515Y-69713608D01*
X152261547Y-69127600D01*
X152364509Y-68879641D01*
X153170000Y-69685132D01*
X153170000Y-105574868D01*
X150659868Y-108085000D01*
X146062440Y-108085000D01*
X146062440Y-107315000D01*
X146018162Y-107079683D01*
X145879090Y-106863559D01*
X145666890Y-106718569D01*
X145415000Y-106667560D01*
X141605000Y-106667560D01*
X141369683Y-106711838D01*
X141153559Y-106850910D01*
X141008569Y-107063110D01*
X140957560Y-107315000D01*
X140957560Y-108685807D01*
X140584563Y-107783085D01*
X140343003Y-107541104D01*
X141593107Y-106291000D01*
X148426680Y-106291000D01*
X148861026Y-106204603D01*
X149229246Y-105958566D01*
X150027566Y-105160246D01*
X150091825Y-105064076D01*
X150273603Y-104792026D01*
X150360000Y-104357680D01*
X150360000Y-103391425D01*
X150505100Y-103174268D01*
X150506950Y-103164968D01*
X150533501Y-103254677D01*
X150875056Y-103676658D01*
X151352097Y-103935810D01*
X151423725Y-103949993D01*
X151638000Y-103827339D01*
X151638000Y-102235000D01*
X151892000Y-102235000D01*
X151892000Y-103827339D01*
X152106275Y-103949993D01*
X152177903Y-103935810D01*
X152654944Y-103676658D01*
X152996499Y-103254677D01*
X153150570Y-102734110D01*
X153150570Y-102235000D01*
X151892000Y-102235000D01*
X151638000Y-102235000D01*
X151618000Y-102235000D01*
X151618000Y-101981000D01*
X151638000Y-101981000D01*
X151638000Y-100388661D01*
X151892000Y-100388661D01*
X151892000Y-101981000D01*
X153150570Y-101981000D01*
X153150570Y-101481890D01*
X152996499Y-100961323D01*
X152654944Y-100539342D01*
X152177903Y-100280190D01*
X152106275Y-100266007D01*
X151892000Y-100388661D01*
X151638000Y-100388661D01*
X151423725Y-100266007D01*
X151352097Y-100280190D01*
X150875056Y-100539342D01*
X150533501Y-100961323D01*
X150506950Y-101051032D01*
X150505100Y-101041732D01*
X150204746Y-100592221D01*
X149755235Y-100291867D01*
X149225000Y-100186397D01*
X148694765Y-100291867D01*
X148245254Y-100592221D01*
X147955000Y-101026616D01*
X147664746Y-100592221D01*
X147570000Y-100528914D01*
X147570000Y-99633074D01*
X147692431Y-99453890D01*
X147743440Y-99202000D01*
X147743440Y-97902000D01*
X147699162Y-97666683D01*
X147560090Y-97450559D01*
X147347890Y-97305569D01*
X147096000Y-97254560D01*
X146396000Y-97254560D01*
X146160683Y-97298838D01*
X145944559Y-97437910D01*
X145799569Y-97650110D01*
X145796919Y-97663197D01*
X145660090Y-97450559D01*
X145447890Y-97305569D01*
X145196000Y-97254560D01*
X144496000Y-97254560D01*
X144260683Y-97298838D01*
X144044559Y-97437910D01*
X143899569Y-97650110D01*
X143896149Y-97667000D01*
X141557547Y-97667000D01*
X140039758Y-96149210D01*
X139752643Y-95957367D01*
X139696452Y-95946190D01*
X139413968Y-95889999D01*
X139413963Y-95890000D01*
X137472440Y-95890000D01*
X137472440Y-95800000D01*
X137428162Y-95564683D01*
X137289090Y-95348559D01*
X137076890Y-95203569D01*
X136825000Y-95152560D01*
X136225000Y-95152560D01*
X135989683Y-95196838D01*
X135890472Y-95260678D01*
X135806890Y-95203569D01*
X135555000Y-95152560D01*
X134955000Y-95152560D01*
X134719683Y-95196838D01*
X134620472Y-95260678D01*
X134536890Y-95203569D01*
X134285000Y-95152560D01*
X133685000Y-95152560D01*
X133449683Y-95196838D01*
X133350472Y-95260678D01*
X133266890Y-95203569D01*
X133015000Y-95152560D01*
X132663593Y-95152560D01*
X133595691Y-94220461D01*
X141671502Y-94220461D01*
X141668760Y-94234000D01*
X141668760Y-96266000D01*
X141713038Y-96501317D01*
X141852110Y-96717441D01*
X142064310Y-96862431D01*
X142316200Y-96913440D01*
X145973800Y-96913440D01*
X146209117Y-96869162D01*
X146425241Y-96730090D01*
X146570231Y-96517890D01*
X146621240Y-96266000D01*
X146621240Y-94234000D01*
X146576962Y-93998683D01*
X146437890Y-93782559D01*
X146225690Y-93637569D01*
X145973800Y-93586560D01*
X145409020Y-93586560D01*
X145778849Y-93216730D01*
X148959570Y-93216730D01*
X148959570Y-94632089D01*
X149056243Y-94865478D01*
X149234871Y-95044107D01*
X149468260Y-95140780D01*
X150209250Y-95140780D01*
X150368000Y-94982030D01*
X150368000Y-93057980D01*
X150622000Y-93057980D01*
X150622000Y-94982030D01*
X150780750Y-95140780D01*
X151521740Y-95140780D01*
X151755129Y-95044107D01*
X151933757Y-94865478D01*
X152030430Y-94632089D01*
X152030430Y-93216730D01*
X151871680Y-93057980D01*
X150622000Y-93057980D01*
X150368000Y-93057980D01*
X149118320Y-93057980D01*
X148959570Y-93216730D01*
X145778849Y-93216730D01*
X146929787Y-92065792D01*
X146929790Y-92065790D01*
X147121633Y-91778675D01*
X147143934Y-91666560D01*
X147189001Y-91440000D01*
X147189000Y-91439995D01*
X147189000Y-90255714D01*
X147390441Y-90126090D01*
X147535431Y-89913890D01*
X147562342Y-89781000D01*
X148947130Y-89781000D01*
X148947130Y-90253820D01*
X148991408Y-90489137D01*
X149130480Y-90705261D01*
X149272470Y-90802279D01*
X149234871Y-90817853D01*
X149056243Y-90996482D01*
X148959570Y-91229871D01*
X148959570Y-92645230D01*
X149118320Y-92803980D01*
X150368000Y-92803980D01*
X150368000Y-92783980D01*
X150622000Y-92783980D01*
X150622000Y-92803980D01*
X151871680Y-92803980D01*
X152030430Y-92645230D01*
X152030430Y-91229871D01*
X151933757Y-90996482D01*
X151755129Y-90817853D01*
X151716452Y-90801832D01*
X151846871Y-90717910D01*
X151991861Y-90505710D01*
X152042870Y-90253820D01*
X152042870Y-87104220D01*
X151998592Y-86868903D01*
X151859520Y-86652779D01*
X151647320Y-86507789D01*
X151395430Y-86456780D01*
X151380000Y-86456780D01*
X151380000Y-74278063D01*
X151791864Y-73866918D01*
X152041302Y-73266203D01*
X152041870Y-72615760D01*
X151793480Y-72014612D01*
X151333949Y-71554277D01*
X150733234Y-71304839D01*
X150082791Y-71304271D01*
X149481643Y-71552661D01*
X149021308Y-72012192D01*
X148771870Y-72612907D01*
X148771302Y-73263350D01*
X149019692Y-73864498D01*
X149479223Y-74324833D01*
X149610000Y-74379136D01*
X149610000Y-86456780D01*
X149594570Y-86456780D01*
X149359253Y-86501058D01*
X149143129Y-86640130D01*
X148998139Y-86852330D01*
X148947130Y-87104220D01*
X148947130Y-87511000D01*
X147564049Y-87511000D01*
X147542162Y-87394683D01*
X147403090Y-87178559D01*
X147190890Y-87033569D01*
X146939000Y-86982560D01*
X145923000Y-86982560D01*
X145687683Y-87026838D01*
X145471559Y-87165910D01*
X145326569Y-87378110D01*
X145288000Y-87568569D01*
X145288000Y-87503690D01*
X145191327Y-87270301D01*
X145012698Y-87091673D01*
X144779309Y-86995000D01*
X144430750Y-86995000D01*
X144272000Y-87153750D01*
X144272000Y-88519000D01*
X144292000Y-88519000D01*
X144292000Y-88773000D01*
X144272000Y-88773000D01*
X144272000Y-90138250D01*
X144430750Y-90297000D01*
X144779309Y-90297000D01*
X145012698Y-90200327D01*
X145191327Y-90021699D01*
X145288000Y-89788310D01*
X145288000Y-89728113D01*
X145319838Y-89897317D01*
X145419000Y-90051419D01*
X145419000Y-91073421D01*
X144041959Y-92450461D01*
X133229112Y-92450461D01*
X132890437Y-92517828D01*
X132603322Y-92709671D01*
X132603320Y-92709674D01*
X130819210Y-94493783D01*
X130627367Y-94780898D01*
X130627367Y-94780899D01*
X130559999Y-95119573D01*
X130560000Y-95119578D01*
X130560000Y-95165000D01*
X130460750Y-95165000D01*
X130302000Y-95323750D01*
X130302000Y-96648000D01*
X130322000Y-96648000D01*
X130322000Y-96902000D01*
X130302000Y-96902000D01*
X130302000Y-98226250D01*
X130460750Y-98385000D01*
X130560000Y-98385000D01*
X130560000Y-99074421D01*
X129168210Y-100466210D01*
X128976367Y-100753325D01*
X128969523Y-100787732D01*
X128921609Y-101028608D01*
X128717559Y-101159910D01*
X128572569Y-101372110D01*
X128521560Y-101624000D01*
X128521560Y-102624000D01*
X128565838Y-102859317D01*
X128704910Y-103075441D01*
X128773006Y-103121969D01*
X128630673Y-103264302D01*
X128534000Y-103497691D01*
X128534000Y-103838250D01*
X128692750Y-103997000D01*
X129667000Y-103997000D01*
X129667000Y-103977000D01*
X129921000Y-103977000D01*
X129921000Y-103997000D01*
X130895250Y-103997000D01*
X131054000Y-103838250D01*
X131054000Y-103497691D01*
X130957327Y-103264302D01*
X130816090Y-103123064D01*
X130870441Y-103088090D01*
X131015431Y-102875890D01*
X131066440Y-102624000D01*
X131066440Y-101624000D01*
X131022162Y-101388683D01*
X130915169Y-101222411D01*
X132070787Y-100066792D01*
X132070790Y-100066790D01*
X132216018Y-99849440D01*
X132262634Y-99779674D01*
X132330001Y-99441000D01*
X132330000Y-99440995D01*
X132330000Y-98380227D01*
X132415000Y-98397440D01*
X133015000Y-98397440D01*
X133250317Y-98353162D01*
X133349528Y-98289322D01*
X133433110Y-98346431D01*
X133685000Y-98397440D01*
X134285000Y-98397440D01*
X134431000Y-98369968D01*
X134431000Y-99084203D01*
X134369569Y-99174110D01*
X134366919Y-99187197D01*
X134230090Y-98974559D01*
X134017890Y-98829569D01*
X133766000Y-98778560D01*
X133066000Y-98778560D01*
X132830683Y-98822838D01*
X132614559Y-98961910D01*
X132469569Y-99174110D01*
X132418560Y-99426000D01*
X132418560Y-100726000D01*
X132462838Y-100961317D01*
X132531000Y-101067244D01*
X132531000Y-101754814D01*
X132370254Y-101862221D01*
X132069900Y-102311732D01*
X131964430Y-102841967D01*
X131964430Y-103914033D01*
X132069900Y-104444268D01*
X132370254Y-104893779D01*
X132819765Y-105194133D01*
X133350000Y-105299603D01*
X133880235Y-105194133D01*
X134329746Y-104893779D01*
X134620000Y-104459384D01*
X134755000Y-104661425D01*
X134755000Y-106209867D01*
X134159151Y-106805717D01*
X133857454Y-106680441D01*
X132846979Y-106679560D01*
X131913085Y-107065437D01*
X131197948Y-107779327D01*
X130810441Y-108712546D01*
X130810437Y-108716972D01*
X130424563Y-107783085D01*
X129710673Y-107067948D01*
X128777454Y-106680441D01*
X127766979Y-106679560D01*
X126833085Y-107065437D01*
X126117948Y-107779327D01*
X126007169Y-108046113D01*
X123690000Y-105728944D01*
X123690000Y-104409750D01*
X128534000Y-104409750D01*
X128534000Y-104750309D01*
X128630673Y-104983698D01*
X128809301Y-105162327D01*
X129042690Y-105259000D01*
X129508250Y-105259000D01*
X129667000Y-105100250D01*
X129667000Y-104251000D01*
X129921000Y-104251000D01*
X129921000Y-105100250D01*
X130079750Y-105259000D01*
X130545310Y-105259000D01*
X130778699Y-105162327D01*
X130957327Y-104983698D01*
X131054000Y-104750309D01*
X131054000Y-104409750D01*
X130895250Y-104251000D01*
X129921000Y-104251000D01*
X129667000Y-104251000D01*
X128692750Y-104251000D01*
X128534000Y-104409750D01*
X123690000Y-104409750D01*
X123690000Y-103137425D01*
X123835100Y-102920268D01*
X123836950Y-102910968D01*
X123863501Y-103000677D01*
X124205056Y-103422658D01*
X124682097Y-103681810D01*
X124753725Y-103695993D01*
X124968000Y-103573339D01*
X124968000Y-101981000D01*
X125222000Y-101981000D01*
X125222000Y-103573339D01*
X125436275Y-103695993D01*
X125507903Y-103681810D01*
X125984944Y-103422658D01*
X126326499Y-103000677D01*
X126480570Y-102480110D01*
X126480570Y-101981000D01*
X125222000Y-101981000D01*
X124968000Y-101981000D01*
X124948000Y-101981000D01*
X124948000Y-101727000D01*
X124968000Y-101727000D01*
X124968000Y-100134661D01*
X125222000Y-100134661D01*
X125222000Y-101727000D01*
X126480570Y-101727000D01*
X126480570Y-101227890D01*
X126326499Y-100707323D01*
X125984944Y-100285342D01*
X125507903Y-100026190D01*
X125436275Y-100012007D01*
X125222000Y-100134661D01*
X124968000Y-100134661D01*
X124753725Y-100012007D01*
X124682097Y-100026190D01*
X124205056Y-100285342D01*
X123863501Y-100707323D01*
X123836950Y-100797032D01*
X123835100Y-100787732D01*
X123534746Y-100338221D01*
X123085235Y-100037867D01*
X122555000Y-99932397D01*
X122024765Y-100037867D01*
X121575254Y-100338221D01*
X121285000Y-100772616D01*
X121027157Y-100386727D01*
X121052965Y-100360919D01*
X121052968Y-100360917D01*
X121244811Y-100073802D01*
X121257103Y-100012007D01*
X121312179Y-99735127D01*
X121312178Y-99735122D01*
X121312178Y-99594761D01*
X121408431Y-99453890D01*
X121411081Y-99440803D01*
X121547910Y-99653441D01*
X121760110Y-99798431D01*
X122012000Y-99849440D01*
X122712000Y-99849440D01*
X122947317Y-99805162D01*
X123163441Y-99666090D01*
X123221516Y-99581095D01*
X123326208Y-99685787D01*
X123326210Y-99685790D01*
X123510056Y-99808631D01*
X123613325Y-99877633D01*
X123952000Y-99945000D01*
X127253995Y-99945000D01*
X127254000Y-99945001D01*
X127536484Y-99888810D01*
X127592675Y-99877633D01*
X127879790Y-99685790D01*
X127879791Y-99685789D01*
X128260787Y-99304792D01*
X128260790Y-99304790D01*
X128452633Y-99017675D01*
X128520000Y-98679000D01*
X128520000Y-98380227D01*
X128605000Y-98397440D01*
X129205000Y-98397440D01*
X129440317Y-98353162D01*
X129530980Y-98294822D01*
X129748690Y-98385000D01*
X129889250Y-98385000D01*
X130048000Y-98226250D01*
X130048000Y-96902000D01*
X130028000Y-96902000D01*
X130028000Y-96648000D01*
X130048000Y-96648000D01*
X130048000Y-95323750D01*
X129889250Y-95165000D01*
X129748690Y-95165000D01*
X129531878Y-95254806D01*
X129456890Y-95203569D01*
X129205000Y-95152560D01*
X128605000Y-95152560D01*
X128369683Y-95196838D01*
X128270472Y-95260678D01*
X128186890Y-95203569D01*
X127935000Y-95152560D01*
X127335000Y-95152560D01*
X127099683Y-95196838D01*
X127000472Y-95260678D01*
X126916890Y-95203569D01*
X126665000Y-95152560D01*
X126065000Y-95152560D01*
X125829683Y-95196838D01*
X125730472Y-95260678D01*
X125646890Y-95203569D01*
X125395000Y-95152560D01*
X124795000Y-95152560D01*
X124559683Y-95196838D01*
X124343559Y-95335910D01*
X124198569Y-95548110D01*
X124147560Y-95800000D01*
X124147560Y-97750000D01*
X124191838Y-97985317D01*
X124305442Y-98161862D01*
X124069790Y-97926210D01*
X123873968Y-97795367D01*
X123782675Y-97734367D01*
X123726484Y-97723190D01*
X123444000Y-97666999D01*
X123443995Y-97667000D01*
X123315222Y-97667000D01*
X123315162Y-97666683D01*
X123176090Y-97450559D01*
X122963890Y-97305569D01*
X122712000Y-97254560D01*
X122012000Y-97254560D01*
X121776683Y-97298838D01*
X121560559Y-97437910D01*
X121415569Y-97650110D01*
X121412919Y-97663197D01*
X121276090Y-97450559D01*
X121063890Y-97305569D01*
X120812000Y-97254560D01*
X120112000Y-97254560D01*
X119876683Y-97298838D01*
X119660559Y-97437910D01*
X119515569Y-97650110D01*
X119464560Y-97902000D01*
X119464560Y-99202000D01*
X119503227Y-99407498D01*
X119389210Y-99521515D01*
X119197367Y-99808630D01*
X119197367Y-99808631D01*
X119129999Y-100147305D01*
X119130000Y-100147310D01*
X119130000Y-100274914D01*
X119035254Y-100338221D01*
X118734900Y-100787732D01*
X118629430Y-101317967D01*
X118629430Y-102390033D01*
X118734900Y-102920268D01*
X119035254Y-103369779D01*
X119484765Y-103670133D01*
X120015000Y-103775603D01*
X120545235Y-103670133D01*
X120994746Y-103369779D01*
X121285000Y-102935384D01*
X121420000Y-103137425D01*
X121420000Y-106199076D01*
X121506397Y-106633422D01*
X121617950Y-106800372D01*
X121752434Y-107001642D01*
X124773358Y-110022566D01*
X125141579Y-110268604D01*
X125575924Y-110355000D01*
X125990688Y-110355000D01*
X126115437Y-110656915D01*
X126829327Y-111372052D01*
X127762546Y-111759559D01*
X128773021Y-111760440D01*
X129706915Y-111374563D01*
X130422052Y-110660673D01*
X130809559Y-109727454D01*
X130809563Y-109723028D01*
X131195437Y-110656915D01*
X131909327Y-111372052D01*
X132842546Y-111759559D01*
X133853021Y-111760440D01*
X134786915Y-111374563D01*
X135502052Y-110660673D01*
X135889559Y-109727454D01*
X135889563Y-109723028D01*
X136275437Y-110656915D01*
X136989327Y-111372052D01*
X137922546Y-111759559D01*
X138933021Y-111760440D01*
X139866915Y-111374563D01*
X140582052Y-110660673D01*
X140957560Y-109756351D01*
X140957560Y-111125000D01*
X141001838Y-111360317D01*
X141140910Y-111576441D01*
X141353110Y-111721431D01*
X141605000Y-111772440D01*
X145415000Y-111772440D01*
X145650317Y-111728162D01*
X145866441Y-111589090D01*
X146011431Y-111376890D01*
X146062440Y-111125000D01*
X146062440Y-110355000D01*
X151130000Y-110355000D01*
X151564346Y-110268603D01*
X151932566Y-110022566D01*
X154490420Y-107464712D01*
X154490420Y-111950500D01*
X116141500Y-111950500D01*
X116141500Y-91761080D01*
X117970208Y-93589787D01*
X117970210Y-93589790D01*
X118257325Y-93781633D01*
X118313516Y-93792810D01*
X118488765Y-93827670D01*
X118492838Y-93849317D01*
X118631910Y-94065441D01*
X118844110Y-94210431D01*
X119096000Y-94261440D01*
X119796000Y-94261440D01*
X120031317Y-94217162D01*
X120247441Y-94078090D01*
X120392431Y-93865890D01*
X120395081Y-93852803D01*
X120531910Y-94065441D01*
X120744110Y-94210431D01*
X120996000Y-94261440D01*
X121696000Y-94261440D01*
X121931317Y-94217162D01*
X122147441Y-94078090D01*
X122292431Y-93865890D01*
X122295851Y-93849000D01*
X129031995Y-93849000D01*
X129032000Y-93849001D01*
X129314484Y-93792810D01*
X129370675Y-93781633D01*
X129657790Y-93589790D01*
X131938579Y-91309000D01*
X134619995Y-91309000D01*
X134620000Y-91309001D01*
X134902484Y-91252810D01*
X134958675Y-91241633D01*
X135245790Y-91049790D01*
X135245791Y-91049789D01*
X135880787Y-90414792D01*
X135880790Y-90414790D01*
X136044353Y-90170000D01*
X136072634Y-90127674D01*
X136140001Y-89789000D01*
X136140000Y-89788995D01*
X136140000Y-88980227D01*
X136225000Y-88997440D01*
X136825000Y-88997440D01*
X137060317Y-88953162D01*
X137276441Y-88814090D01*
X137421431Y-88601890D01*
X137472440Y-88350000D01*
X137472440Y-86400000D01*
X137428162Y-86164683D01*
X137410000Y-86136458D01*
X137410000Y-81446272D01*
X137410001Y-81446267D01*
X137342633Y-81107593D01*
X137342633Y-81107592D01*
X137150790Y-80820477D01*
X137150787Y-80820475D01*
X136817158Y-80486845D01*
X136817155Y-80486843D01*
X136809511Y-80479199D01*
X136826085Y-80439284D01*
X136826326Y-80163060D01*
X136949774Y-80245545D01*
X137005965Y-80256722D01*
X137288449Y-80312913D01*
X137288454Y-80312912D01*
X141353963Y-80312912D01*
X141353968Y-80312913D01*
X141636452Y-80256722D01*
X141692643Y-80245545D01*
X141979758Y-80053702D01*
X141979759Y-80053701D01*
X142945317Y-79088142D01*
X142985232Y-79104716D01*
X143635675Y-79105284D01*
X144236823Y-78856894D01*
X144697158Y-78397363D01*
X144946596Y-77796648D01*
X144947164Y-77146205D01*
X144698774Y-76545057D01*
X144239243Y-76084722D01*
X143638528Y-75835284D01*
X142988085Y-75834716D01*
X142386937Y-76083106D01*
X142348006Y-76121969D01*
X141926991Y-75700954D01*
X142046441Y-75624090D01*
X142191431Y-75411890D01*
X142242440Y-75160000D01*
X142242440Y-74160000D01*
X142198162Y-73924683D01*
X142059090Y-73708559D01*
X141990994Y-73662031D01*
X142133327Y-73519698D01*
X142230000Y-73286309D01*
X142230000Y-72945750D01*
X142071250Y-72787000D01*
X141097000Y-72787000D01*
X141097000Y-72807000D01*
X140843000Y-72807000D01*
X140843000Y-72787000D01*
X139868750Y-72787000D01*
X139710000Y-72945750D01*
X139710000Y-73286309D01*
X139806673Y-73519698D01*
X139947910Y-73660936D01*
X139893559Y-73695910D01*
X139748569Y-73908110D01*
X139697560Y-74160000D01*
X139697560Y-75160000D01*
X139741838Y-75395317D01*
X139880910Y-75611441D01*
X140085000Y-75750890D01*
X140085000Y-75995537D01*
X140084999Y-75995542D01*
X140114603Y-76144367D01*
X140152367Y-76334217D01*
X140291628Y-76542637D01*
X140344210Y-76621332D01*
X141626590Y-77903711D01*
X140987388Y-78542912D01*
X139669474Y-78542912D01*
X139815278Y-78397363D01*
X140064716Y-77796648D01*
X140065284Y-77146205D01*
X139816894Y-76545057D01*
X139357363Y-76084722D01*
X139315000Y-76067131D01*
X139315000Y-76018502D01*
X139315001Y-76018497D01*
X139247634Y-75679823D01*
X139128796Y-75501969D01*
X139055790Y-75392707D01*
X139055787Y-75392705D01*
X139026289Y-75363207D01*
X139067440Y-75160000D01*
X139067440Y-74160000D01*
X139023162Y-73924683D01*
X138884090Y-73708559D01*
X138815994Y-73662031D01*
X138958327Y-73519698D01*
X139055000Y-73286309D01*
X139055000Y-72945750D01*
X138896250Y-72787000D01*
X137922000Y-72787000D01*
X137922000Y-72807000D01*
X137668000Y-72807000D01*
X137668000Y-72787000D01*
X136693750Y-72787000D01*
X136535000Y-72945750D01*
X136535000Y-73286309D01*
X136631673Y-73519698D01*
X136772910Y-73660936D01*
X136718559Y-73695910D01*
X136573569Y-73908110D01*
X136522560Y-74160000D01*
X136522560Y-75160000D01*
X136566838Y-75395317D01*
X136705910Y-75611441D01*
X136918110Y-75756431D01*
X137013113Y-75775670D01*
X137091361Y-75892777D01*
X137169210Y-76009287D01*
X137192183Y-76032260D01*
X133946422Y-76032260D01*
X133946417Y-76032259D01*
X133690798Y-76083106D01*
X133607742Y-76099627D01*
X133320627Y-76291470D01*
X133320625Y-76291473D01*
X132089210Y-77522887D01*
X131897367Y-77810002D01*
X131897367Y-77810003D01*
X131829999Y-78148677D01*
X131830000Y-78148682D01*
X131830000Y-82571884D01*
X131801309Y-82560000D01*
X131460750Y-82560000D01*
X131302000Y-82718750D01*
X131302000Y-83693000D01*
X131322000Y-83693000D01*
X131322000Y-83947000D01*
X131302000Y-83947000D01*
X131302000Y-84921250D01*
X131460750Y-85080000D01*
X131801309Y-85080000D01*
X131830000Y-85068116D01*
X131830000Y-85765000D01*
X131730750Y-85765000D01*
X131572000Y-85923750D01*
X131572000Y-87248000D01*
X131592000Y-87248000D01*
X131592000Y-87502000D01*
X131572000Y-87502000D01*
X131572000Y-88826250D01*
X131730750Y-88985000D01*
X131871310Y-88985000D01*
X132088122Y-88895194D01*
X132163110Y-88946431D01*
X132415000Y-88997440D01*
X133015000Y-88997440D01*
X133250317Y-88953162D01*
X133349528Y-88889322D01*
X133433110Y-88946431D01*
X133685000Y-88997440D01*
X134285000Y-88997440D01*
X134370000Y-88981446D01*
X134370000Y-89422421D01*
X134253420Y-89539000D01*
X131572000Y-89539000D01*
X131233325Y-89606367D01*
X131060000Y-89722178D01*
X131060000Y-88985000D01*
X131159250Y-88985000D01*
X131318000Y-88826250D01*
X131318000Y-87502000D01*
X131298000Y-87502000D01*
X131298000Y-87248000D01*
X131318000Y-87248000D01*
X131318000Y-85923750D01*
X131159250Y-85765000D01*
X131050899Y-85765000D01*
X131001506Y-85516690D01*
X130991719Y-85467489D01*
X130799876Y-85180374D01*
X130799873Y-85180372D01*
X130699501Y-85080000D01*
X130889250Y-85080000D01*
X131048000Y-84921250D01*
X131048000Y-83947000D01*
X131028000Y-83947000D01*
X131028000Y-83693000D01*
X131048000Y-83693000D01*
X131048000Y-82718750D01*
X130889250Y-82560000D01*
X130548691Y-82560000D01*
X130315302Y-82656673D01*
X130174064Y-82797910D01*
X130139090Y-82743559D01*
X130060000Y-82689519D01*
X130060000Y-73746857D01*
X130991635Y-73746857D01*
X131008139Y-73786800D01*
X131467670Y-74247135D01*
X132068385Y-74496573D01*
X132718828Y-74497141D01*
X133319976Y-74248751D01*
X133780311Y-73789220D01*
X134029749Y-73188505D01*
X134030317Y-72538062D01*
X133821915Y-72033691D01*
X136535000Y-72033691D01*
X136535000Y-72374250D01*
X136693750Y-72533000D01*
X137668000Y-72533000D01*
X137668000Y-71683750D01*
X137922000Y-71683750D01*
X137922000Y-72533000D01*
X138896250Y-72533000D01*
X139055000Y-72374250D01*
X139055000Y-72033691D01*
X139710000Y-72033691D01*
X139710000Y-72374250D01*
X139868750Y-72533000D01*
X140843000Y-72533000D01*
X140843000Y-71683750D01*
X141097000Y-71683750D01*
X141097000Y-72533000D01*
X142071250Y-72533000D01*
X142230000Y-72374250D01*
X142230000Y-72033691D01*
X142133327Y-71800302D01*
X141954699Y-71621673D01*
X141721310Y-71525000D01*
X141255750Y-71525000D01*
X141097000Y-71683750D01*
X140843000Y-71683750D01*
X140684250Y-71525000D01*
X140218690Y-71525000D01*
X139985301Y-71621673D01*
X139806673Y-71800302D01*
X139710000Y-72033691D01*
X139055000Y-72033691D01*
X138958327Y-71800302D01*
X138779699Y-71621673D01*
X138546310Y-71525000D01*
X138080750Y-71525000D01*
X137922000Y-71683750D01*
X137668000Y-71683750D01*
X137509250Y-71525000D01*
X137043690Y-71525000D01*
X136810301Y-71621673D01*
X136631673Y-71800302D01*
X136535000Y-72033691D01*
X133821915Y-72033691D01*
X133781927Y-71936914D01*
X133322396Y-71476579D01*
X132721681Y-71227141D01*
X132071238Y-71226573D01*
X131470090Y-71474963D01*
X131009755Y-71934494D01*
X130992164Y-71976857D01*
X130306934Y-71976857D01*
X130318982Y-71947841D01*
X130319550Y-71297398D01*
X130071160Y-70696250D01*
X129611629Y-70235915D01*
X129010914Y-69986477D01*
X128360471Y-69985909D01*
X127759323Y-70234299D01*
X127298988Y-70693830D01*
X127049550Y-71294545D01*
X127048982Y-71944988D01*
X127297372Y-72546136D01*
X127756903Y-73006471D01*
X128290000Y-73227832D01*
X128290000Y-82688156D01*
X128223559Y-82730910D01*
X128078569Y-82943110D01*
X128027560Y-83195000D01*
X128027560Y-83992963D01*
X125579555Y-81544958D01*
X126029912Y-81545351D01*
X126631060Y-81296961D01*
X127091395Y-80837430D01*
X127340833Y-80236715D01*
X127341401Y-79586272D01*
X127093011Y-78985124D01*
X126633480Y-78524789D01*
X126615000Y-78517115D01*
X126615000Y-78331308D01*
X126886120Y-78150152D01*
X127240543Y-77619719D01*
X127365000Y-76994032D01*
X127365000Y-76929968D01*
X127240543Y-76304281D01*
X126886120Y-75773848D01*
X126737514Y-75674553D01*
X127053505Y-75381994D01*
X127320133Y-74802435D01*
X127201319Y-74549000D01*
X125857000Y-74549000D01*
X125857000Y-74569000D01*
X125603000Y-74569000D01*
X125603000Y-74549000D01*
X125583000Y-74549000D01*
X125583000Y-74295000D01*
X125603000Y-74295000D01*
X125603000Y-72951223D01*
X125857000Y-72951223D01*
X125857000Y-74295000D01*
X127201319Y-74295000D01*
X127320133Y-74041565D01*
X127053505Y-73462006D01*
X126585385Y-73028598D01*
X126110434Y-72831876D01*
X125857000Y-72951223D01*
X125603000Y-72951223D01*
X125349566Y-72831876D01*
X124874615Y-73028598D01*
X124463379Y-73409340D01*
X124346120Y-73233848D01*
X124075000Y-73052692D01*
X124075000Y-71514001D01*
X124075001Y-71513996D01*
X124007633Y-71175322D01*
X124007633Y-71175321D01*
X123815790Y-70888206D01*
X122412806Y-69485222D01*
X122331981Y-69431217D01*
X122125691Y-69293379D01*
X122069500Y-69282202D01*
X122063489Y-69281006D01*
X122110031Y-69212890D01*
X122118400Y-69171561D01*
X122130330Y-69189415D01*
X122616511Y-69514271D01*
X123190000Y-69628345D01*
X123763489Y-69514271D01*
X124249670Y-69189415D01*
X124460000Y-68874634D01*
X124670330Y-69189415D01*
X125156511Y-69514271D01*
X125730000Y-69628345D01*
X126303489Y-69514271D01*
X126789670Y-69189415D01*
X126996461Y-68879931D01*
X127367964Y-69295732D01*
X127895209Y-69549709D01*
X127910974Y-69552358D01*
X128143000Y-69431217D01*
X128143000Y-68072000D01*
X128397000Y-68072000D01*
X128397000Y-69431217D01*
X128629026Y-69552358D01*
X128644791Y-69549709D01*
X129172036Y-69295732D01*
X129561954Y-68859320D01*
X129737344Y-68357913D01*
X133169638Y-68357913D01*
X133486392Y-69124515D01*
X134072400Y-69711547D01*
X134838448Y-70029638D01*
X135667913Y-70030362D01*
X136434515Y-69713608D01*
X136725782Y-69422849D01*
X139036756Y-69422849D01*
X139190435Y-69736424D01*
X139963108Y-70038066D01*
X140792398Y-70021058D01*
X141479565Y-69736424D01*
X141633244Y-69422849D01*
X140335000Y-68124605D01*
X139036756Y-69422849D01*
X136725782Y-69422849D01*
X137021547Y-69127600D01*
X137339638Y-68361552D01*
X137340326Y-67573108D01*
X138241934Y-67573108D01*
X138258942Y-68402398D01*
X138543576Y-69089565D01*
X138857151Y-69243244D01*
X140155395Y-67945000D01*
X138857151Y-66646756D01*
X138543576Y-66800435D01*
X138241934Y-67573108D01*
X137340326Y-67573108D01*
X137340362Y-67532087D01*
X137023608Y-66765485D01*
X136725795Y-66467151D01*
X139036756Y-66467151D01*
X140335000Y-67765395D01*
X141633244Y-66467151D01*
X141479565Y-66153576D01*
X140706892Y-65851934D01*
X139877602Y-65868942D01*
X139190435Y-66153576D01*
X139036756Y-66467151D01*
X136725795Y-66467151D01*
X136437600Y-66178453D01*
X136231299Y-66092789D01*
X136669088Y-65655000D01*
X141238420Y-65655000D01*
X141990000Y-66406579D01*
X141990000Y-66733575D01*
X141812849Y-66646756D01*
X140514605Y-67945000D01*
X141812849Y-69243244D01*
X141990000Y-69156425D01*
X141990000Y-69849995D01*
X141989999Y-69850000D01*
X142025732Y-70029638D01*
X142057367Y-70188675D01*
X142167580Y-70353621D01*
X142249210Y-70475790D01*
X146493148Y-74719727D01*
X146493148Y-81421421D01*
X145741568Y-82173000D01*
X143163005Y-82173000D01*
X143163000Y-82172999D01*
X142880516Y-82229190D01*
X142824325Y-82240367D01*
X142537210Y-82432210D01*
X142537208Y-82432213D01*
X141376210Y-83593210D01*
X141184367Y-83880325D01*
X141184367Y-83880326D01*
X141118560Y-84211153D01*
X141050559Y-84254910D01*
X140905569Y-84467110D01*
X140854560Y-84719000D01*
X140854560Y-85969000D01*
X140898838Y-86204317D01*
X140974000Y-86321122D01*
X140974000Y-87118009D01*
X140899559Y-87165910D01*
X140754569Y-87378110D01*
X140703560Y-87630000D01*
X140703560Y-89662000D01*
X140747838Y-89897317D01*
X140886910Y-90113441D01*
X141099110Y-90258431D01*
X141351000Y-90309440D01*
X142367000Y-90309440D01*
X142602317Y-90265162D01*
X142818441Y-90126090D01*
X142963431Y-89913890D01*
X143002000Y-89723431D01*
X143002000Y-89788310D01*
X143098673Y-90021699D01*
X143277302Y-90200327D01*
X143510691Y-90297000D01*
X143859250Y-90297000D01*
X144018000Y-90138250D01*
X144018000Y-88773000D01*
X143998000Y-88773000D01*
X143998000Y-88519000D01*
X144018000Y-88519000D01*
X144018000Y-87153750D01*
X143859250Y-86995000D01*
X143510691Y-86995000D01*
X143277302Y-87091673D01*
X143098673Y-87270301D01*
X143002000Y-87503690D01*
X143002000Y-87563887D01*
X142970162Y-87394683D01*
X142831090Y-87178559D01*
X142744000Y-87119053D01*
X142744000Y-86567862D01*
X142953441Y-86433090D01*
X142999969Y-86364994D01*
X143142302Y-86507327D01*
X143375691Y-86604000D01*
X143716250Y-86604000D01*
X143875000Y-86445250D01*
X143875000Y-85471000D01*
X144129000Y-85471000D01*
X144129000Y-86445250D01*
X144287750Y-86604000D01*
X144628309Y-86604000D01*
X144861698Y-86507327D01*
X145040327Y-86328699D01*
X145137000Y-86095310D01*
X145137000Y-85629750D01*
X144978250Y-85471000D01*
X144129000Y-85471000D01*
X143875000Y-85471000D01*
X143855000Y-85471000D01*
X143855000Y-85217000D01*
X143875000Y-85217000D01*
X143875000Y-84242750D01*
X144129000Y-84242750D01*
X144129000Y-85217000D01*
X144978250Y-85217000D01*
X145137000Y-85058250D01*
X145137000Y-84592690D01*
X145040327Y-84359301D01*
X144861698Y-84180673D01*
X144628309Y-84084000D01*
X144287750Y-84084000D01*
X144129000Y-84242750D01*
X143875000Y-84242750D01*
X143716250Y-84084000D01*
X143388579Y-84084000D01*
X143529579Y-83943000D01*
X146108143Y-83943000D01*
X146108148Y-83943001D01*
X146390632Y-83886810D01*
X146446823Y-83875633D01*
X146733938Y-83683790D01*
X146733939Y-83683789D01*
X148003935Y-82413792D01*
X148003938Y-82413790D01*
X148195781Y-82126675D01*
X148221449Y-81997636D01*
X148263149Y-81788000D01*
X148263148Y-81787995D01*
X148263148Y-74353153D01*
X148263149Y-74353148D01*
X148195781Y-74014474D01*
X148195781Y-74014473D01*
X148003938Y-73727358D01*
X148003935Y-73727356D01*
X143760000Y-69483420D01*
X143760000Y-69422849D01*
X144116756Y-69422849D01*
X144270435Y-69736424D01*
X145043108Y-70038066D01*
X145872398Y-70021058D01*
X146559565Y-69736424D01*
X146713244Y-69422849D01*
X145415000Y-68124605D01*
X144116756Y-69422849D01*
X143760000Y-69422849D01*
X143760000Y-69156425D01*
X143937151Y-69243244D01*
X145235395Y-67945000D01*
X145594605Y-67945000D01*
X146892849Y-69243244D01*
X147206424Y-69089565D01*
X147508066Y-68316892D01*
X147491058Y-67487602D01*
X147206424Y-66800435D01*
X146892849Y-66646756D01*
X145594605Y-67945000D01*
X145235395Y-67945000D01*
X143937151Y-66646756D01*
X143760000Y-66733575D01*
X143760000Y-66467151D01*
X144116756Y-66467151D01*
X145415000Y-67765395D01*
X146713244Y-66467151D01*
X146559565Y-66153576D01*
X145786892Y-65851934D01*
X144957602Y-65868942D01*
X144270435Y-66153576D01*
X144116756Y-66467151D01*
X143760000Y-66467151D01*
X143760000Y-66040005D01*
X143760001Y-66040000D01*
X143692633Y-65701325D01*
X143661680Y-65655000D01*
X143500790Y-65414210D01*
X143500787Y-65414208D01*
X142230790Y-64144210D01*
X142222991Y-64138999D01*
X141943675Y-63952367D01*
X141887484Y-63941190D01*
X141605000Y-63884999D01*
X141604995Y-63885000D01*
X136302509Y-63885000D01*
X135963834Y-63952367D01*
X135676719Y-64144210D01*
X135676717Y-64144213D01*
X134629210Y-65191719D01*
X134437367Y-65478834D01*
X134437367Y-65478835D01*
X134369999Y-65817509D01*
X134370000Y-65817514D01*
X134370000Y-66054701D01*
X134075485Y-66176392D01*
X133488453Y-66762400D01*
X133170362Y-67528448D01*
X133169638Y-68357913D01*
X129737344Y-68357913D01*
X129755184Y-68306913D01*
X129610924Y-68072000D01*
X128397000Y-68072000D01*
X128143000Y-68072000D01*
X128123000Y-68072000D01*
X128123000Y-67818000D01*
X128143000Y-67818000D01*
X128143000Y-66458783D01*
X128397000Y-66458783D01*
X128397000Y-67818000D01*
X129610924Y-67818000D01*
X129755184Y-67583087D01*
X129561954Y-67030680D01*
X129172036Y-66594268D01*
X128644791Y-66340291D01*
X128629026Y-66337642D01*
X128397000Y-66458783D01*
X128143000Y-66458783D01*
X127910974Y-66337642D01*
X127895209Y-66340291D01*
X127367964Y-66594268D01*
X126996461Y-67010069D01*
X126789670Y-66700585D01*
X126615000Y-66583874D01*
X126615000Y-66363460D01*
X126547633Y-66024785D01*
X126355790Y-65737670D01*
X126355787Y-65737668D01*
X125016330Y-64398210D01*
X124729215Y-64206367D01*
X124673024Y-64195190D01*
X124390540Y-64138999D01*
X124390535Y-64139000D01*
X117348000Y-64139000D01*
X117009325Y-64206367D01*
X116722210Y-64398210D01*
X116722208Y-64398213D01*
X116141500Y-64978920D01*
X116141500Y-63601600D01*
X154490420Y-63601600D01*
X154490420Y-67795288D01*
G36*
X140565176Y-99177787D02*
X140565178Y-99177790D01*
X140755248Y-99304790D01*
X140852294Y-99369634D01*
X141190968Y-99437001D01*
X141190973Y-99437000D01*
X143892778Y-99437000D01*
X143892838Y-99437317D01*
X144031910Y-99653441D01*
X144244110Y-99798431D01*
X144496000Y-99849440D01*
X145196000Y-99849440D01*
X145431317Y-99805162D01*
X145647441Y-99666090D01*
X145792431Y-99453890D01*
X145795081Y-99440803D01*
X145800000Y-99448447D01*
X145800000Y-100528914D01*
X145705254Y-100592221D01*
X145404900Y-101041732D01*
X145299430Y-101571967D01*
X145299430Y-102644033D01*
X145404900Y-103174268D01*
X145705254Y-103623779D01*
X146154765Y-103924133D01*
X146641750Y-104021000D01*
X141122975Y-104021000D01*
X140688629Y-104107397D01*
X140320409Y-104353434D01*
X137994224Y-106679619D01*
X137926979Y-106679560D01*
X136993085Y-107065437D01*
X136927611Y-107130797D01*
X136938603Y-107114346D01*
X136948794Y-107063110D01*
X137025000Y-106680000D01*
X137025000Y-104661425D01*
X137170100Y-104444268D01*
X137171950Y-104434968D01*
X137198501Y-104524677D01*
X137540056Y-104946658D01*
X138017097Y-105205810D01*
X138088725Y-105219993D01*
X138303000Y-105097339D01*
X138303000Y-103505000D01*
X138557000Y-103505000D01*
X138557000Y-105097339D01*
X138771275Y-105219993D01*
X138842903Y-105205810D01*
X139319944Y-104946658D01*
X139661499Y-104524677D01*
X139815570Y-104004110D01*
X139815570Y-103505000D01*
X138557000Y-103505000D01*
X138303000Y-103505000D01*
X138283000Y-103505000D01*
X138283000Y-103251000D01*
X138303000Y-103251000D01*
X138303000Y-101658661D01*
X138557000Y-101658661D01*
X138557000Y-103251000D01*
X139815570Y-103251000D01*
X139815570Y-102751890D01*
X139661499Y-102231323D01*
X139319944Y-101809342D01*
X138842903Y-101550190D01*
X138771275Y-101536007D01*
X138557000Y-101658661D01*
X138303000Y-101658661D01*
X138088725Y-101536007D01*
X138017097Y-101550190D01*
X137540056Y-101809342D01*
X137198501Y-102231323D01*
X137171950Y-102321032D01*
X137170100Y-102311732D01*
X136869746Y-101862221D01*
X136420235Y-101561867D01*
X135890000Y-101456397D01*
X135359765Y-101561867D01*
X134910254Y-101862221D01*
X134620000Y-102296616D01*
X134329746Y-101862221D01*
X134301000Y-101843014D01*
X134301000Y-101067797D01*
X134362431Y-100977890D01*
X134365081Y-100964803D01*
X134501910Y-101177441D01*
X134714110Y-101322431D01*
X134966000Y-101373440D01*
X135666000Y-101373440D01*
X135901317Y-101329162D01*
X136117441Y-101190090D01*
X136262431Y-100977890D01*
X136313440Y-100726000D01*
X136313440Y-99426000D01*
X136269162Y-99190683D01*
X136201000Y-99084756D01*
X136201000Y-98392580D01*
X136225000Y-98397440D01*
X136825000Y-98397440D01*
X137060317Y-98353162D01*
X137276441Y-98214090D01*
X137421431Y-98001890D01*
X137472440Y-97750000D01*
X137472440Y-97660000D01*
X139047388Y-97660000D01*
X140565176Y-99177787D01*
X140565176Y-99177787D01*
G37*
X140565176Y-99177787D02*
X140565178Y-99177790D01*
X140755248Y-99304790D01*
X140852294Y-99369634D01*
X141190968Y-99437001D01*
X141190973Y-99437000D01*
X143892778Y-99437000D01*
X143892838Y-99437317D01*
X144031910Y-99653441D01*
X144244110Y-99798431D01*
X144496000Y-99849440D01*
X145196000Y-99849440D01*
X145431317Y-99805162D01*
X145647441Y-99666090D01*
X145792431Y-99453890D01*
X145795081Y-99440803D01*
X145800000Y-99448447D01*
X145800000Y-100528914D01*
X145705254Y-100592221D01*
X145404900Y-101041732D01*
X145299430Y-101571967D01*
X145299430Y-102644033D01*
X145404900Y-103174268D01*
X145705254Y-103623779D01*
X146154765Y-103924133D01*
X146641750Y-104021000D01*
X141122975Y-104021000D01*
X140688629Y-104107397D01*
X140320409Y-104353434D01*
X137994224Y-106679619D01*
X137926979Y-106679560D01*
X136993085Y-107065437D01*
X136927611Y-107130797D01*
X136938603Y-107114346D01*
X136948794Y-107063110D01*
X137025000Y-106680000D01*
X137025000Y-104661425D01*
X137170100Y-104444268D01*
X137171950Y-104434968D01*
X137198501Y-104524677D01*
X137540056Y-104946658D01*
X138017097Y-105205810D01*
X138088725Y-105219993D01*
X138303000Y-105097339D01*
X138303000Y-103505000D01*
X138557000Y-103505000D01*
X138557000Y-105097339D01*
X138771275Y-105219993D01*
X138842903Y-105205810D01*
X139319944Y-104946658D01*
X139661499Y-104524677D01*
X139815570Y-104004110D01*
X139815570Y-103505000D01*
X138557000Y-103505000D01*
X138303000Y-103505000D01*
X138283000Y-103505000D01*
X138283000Y-103251000D01*
X138303000Y-103251000D01*
X138303000Y-101658661D01*
X138557000Y-101658661D01*
X138557000Y-103251000D01*
X139815570Y-103251000D01*
X139815570Y-102751890D01*
X139661499Y-102231323D01*
X139319944Y-101809342D01*
X138842903Y-101550190D01*
X138771275Y-101536007D01*
X138557000Y-101658661D01*
X138303000Y-101658661D01*
X138088725Y-101536007D01*
X138017097Y-101550190D01*
X137540056Y-101809342D01*
X137198501Y-102231323D01*
X137171950Y-102321032D01*
X137170100Y-102311732D01*
X136869746Y-101862221D01*
X136420235Y-101561867D01*
X135890000Y-101456397D01*
X135359765Y-101561867D01*
X134910254Y-101862221D01*
X134620000Y-102296616D01*
X134329746Y-101862221D01*
X134301000Y-101843014D01*
X134301000Y-101067797D01*
X134362431Y-100977890D01*
X134365081Y-100964803D01*
X134501910Y-101177441D01*
X134714110Y-101322431D01*
X134966000Y-101373440D01*
X135666000Y-101373440D01*
X135901317Y-101329162D01*
X136117441Y-101190090D01*
X136262431Y-100977890D01*
X136313440Y-100726000D01*
X136313440Y-99426000D01*
X136269162Y-99190683D01*
X136201000Y-99084756D01*
X136201000Y-98392580D01*
X136225000Y-98397440D01*
X136825000Y-98397440D01*
X137060317Y-98353162D01*
X137276441Y-98214090D01*
X137421431Y-98001890D01*
X137472440Y-97750000D01*
X137472440Y-97660000D01*
X139047388Y-97660000D01*
X140565176Y-99177787D01*
M02*
